<mxfile host="app.diagrams.net" modified="2023-11-09T09:44:49.046Z" agent="Mozilla/5.0 (Windows NT 10.0; Win64; x64) AppleWebKit/537.36 (KHTML, like Gecko) Chrome/116.0.5845.931 YaBrowser/23.9.3.931 Yowser/2.5 Safari/537.36" etag="vPAvuSZx454-MOw2wlea" version="22.1.0" type="device">
  <diagram id="C5RBs43oDa-KdzZeNtuy" name="Page-1">
    <mxGraphModel dx="3827" dy="2923" grid="1" gridSize="10" guides="1" tooltips="1" connect="1" arrows="1" fold="1" page="1" pageScale="1" pageWidth="827" pageHeight="1169" math="0" shadow="0">
      <root>
        <mxCell id="WIyWlLk6GJQsqaUBKTNV-0" />
        <mxCell id="WIyWlLk6GJQsqaUBKTNV-1" parent="WIyWlLk6GJQsqaUBKTNV-0" />
        <mxCell id="p9Ba1PvIgmXxeS6Y3Wst-129" value="" style="group" vertex="1" connectable="0" parent="WIyWlLk6GJQsqaUBKTNV-1">
          <mxGeometry x="-618" y="-110.00176470588235" width="410" height="550.59" as="geometry" />
        </mxCell>
        <mxCell id="p9Ba1PvIgmXxeS6Y3Wst-125" value="Авторизация" style="strokeWidth=1;shadow=0;dashed=0;align=center;html=1;shape=mxgraph.mockup.containers.window;align=left;verticalAlign=top;spacingLeft=8;strokeColor2=#008cff;strokeColor3=#c4c4c4;fontColor=#666666;mainText=;fontSize=17;labelBackgroundColor=none;whiteSpace=wrap;" vertex="1" parent="p9Ba1PvIgmXxeS6Y3Wst-129">
          <mxGeometry width="410" height="550.59" as="geometry" />
        </mxCell>
        <mxCell id="p9Ba1PvIgmXxeS6Y3Wst-128" value="" style="group" vertex="1" connectable="0" parent="p9Ba1PvIgmXxeS6Y3Wst-129">
          <mxGeometry x="18" y="70.00176470588235" width="320" height="260" as="geometry" />
        </mxCell>
        <mxCell id="p9Ba1PvIgmXxeS6Y3Wst-23" value="Логин" style="fillColor=none;strokeColor=none;align=left;fontSize=14;" vertex="1" parent="p9Ba1PvIgmXxeS6Y3Wst-128">
          <mxGeometry width="260" height="40" relative="1" as="geometry">
            <mxPoint as="offset" />
          </mxGeometry>
        </mxCell>
        <mxCell id="p9Ba1PvIgmXxeS6Y3Wst-24" value="" style="html=1;shadow=0;dashed=0;shape=mxgraph.bootstrap.rrect;rSize=5;fillColor=none;strokeColor=#999999;align=left;spacing=15;fontSize=14;fontColor=#6C767D;" vertex="1" parent="p9Ba1PvIgmXxeS6Y3Wst-128">
          <mxGeometry width="320" height="30" relative="1" as="geometry">
            <mxPoint y="40" as="offset" />
          </mxGeometry>
        </mxCell>
        <mxCell id="p9Ba1PvIgmXxeS6Y3Wst-25" value="We&#39;ll never share your email with anyone else." style="fillColor=none;strokeColor=none;align=left;spacing=2;fontSize=12;fontColor=#999999;" vertex="1" parent="p9Ba1PvIgmXxeS6Y3Wst-128">
          <mxGeometry width="260" height="30" relative="1" as="geometry">
            <mxPoint y="70" as="offset" />
          </mxGeometry>
        </mxCell>
        <mxCell id="p9Ba1PvIgmXxeS6Y3Wst-26" value="Пароль" style="fillColor=none;strokeColor=none;align=left;fontSize=14;" vertex="1" parent="p9Ba1PvIgmXxeS6Y3Wst-128">
          <mxGeometry width="260" height="40" relative="1" as="geometry">
            <mxPoint y="100" as="offset" />
          </mxGeometry>
        </mxCell>
        <mxCell id="p9Ba1PvIgmXxeS6Y3Wst-27" value="" style="html=1;shadow=0;dashed=0;shape=mxgraph.bootstrap.rrect;rSize=5;fillColor=none;strokeColor=#999999;align=left;spacing=15;fontSize=14;fontColor=#6C767D;" vertex="1" parent="p9Ba1PvIgmXxeS6Y3Wst-128">
          <mxGeometry width="310" height="30" relative="1" as="geometry">
            <mxPoint y="140" as="offset" />
          </mxGeometry>
        </mxCell>
        <mxCell id="p9Ba1PvIgmXxeS6Y3Wst-30" value="Регистрация" style="html=1;shadow=0;dashed=0;shape=mxgraph.bootstrap.rrect;rSize=5;fillColor=#0085FC;strokeColor=none;align=center;fontSize=14;fontColor=#FFFFFF;" vertex="1" parent="p9Ba1PvIgmXxeS6Y3Wst-129">
          <mxGeometry x="178" y="290.00176470588235" width="110" height="40" as="geometry" />
        </mxCell>
        <mxCell id="p9Ba1PvIgmXxeS6Y3Wst-29" value="Войти" style="html=1;shadow=0;dashed=0;shape=mxgraph.bootstrap.rrect;rSize=5;fillColor=#0085FC;strokeColor=none;align=center;fontSize=14;fontColor=#FFFFFF;" vertex="1" parent="p9Ba1PvIgmXxeS6Y3Wst-129">
          <mxGeometry width="70" height="40" relative="1" as="geometry">
            <mxPoint x="58" y="290" as="offset" />
          </mxGeometry>
        </mxCell>
        <mxCell id="p9Ba1PvIgmXxeS6Y3Wst-142" value="" style="group" vertex="1" connectable="0" parent="WIyWlLk6GJQsqaUBKTNV-1">
          <mxGeometry x="-140" y="-110.00176470588235" width="410" height="550.59" as="geometry" />
        </mxCell>
        <mxCell id="p9Ba1PvIgmXxeS6Y3Wst-131" value="Регистрация" style="strokeWidth=1;shadow=0;dashed=0;align=center;html=1;shape=mxgraph.mockup.containers.window;align=left;verticalAlign=top;spacingLeft=8;strokeColor2=#008cff;strokeColor3=#c4c4c4;fontColor=#666666;mainText=;fontSize=17;labelBackgroundColor=none;whiteSpace=wrap;" vertex="1" parent="p9Ba1PvIgmXxeS6Y3Wst-142">
          <mxGeometry width="410" height="550.59" as="geometry" />
        </mxCell>
        <mxCell id="p9Ba1PvIgmXxeS6Y3Wst-141" value="" style="group" vertex="1" connectable="0" parent="p9Ba1PvIgmXxeS6Y3Wst-142">
          <mxGeometry x="70" y="125.29176470588234" width="270" height="320" as="geometry" />
        </mxCell>
        <mxCell id="p9Ba1PvIgmXxeS6Y3Wst-31" value="Номер телефона(Логин)" style="fillColor=none;strokeColor=none;align=left;fontSize=14;" vertex="1" parent="p9Ba1PvIgmXxeS6Y3Wst-141">
          <mxGeometry width="260" height="40" as="geometry" />
        </mxCell>
        <mxCell id="p9Ba1PvIgmXxeS6Y3Wst-32" value="" style="html=1;shadow=0;dashed=0;shape=mxgraph.bootstrap.rrect;rSize=5;fillColor=none;strokeColor=#999999;align=left;spacing=15;fontSize=14;fontColor=#6C767D;" vertex="1" parent="p9Ba1PvIgmXxeS6Y3Wst-141">
          <mxGeometry y="40" width="270" height="30" as="geometry" />
        </mxCell>
        <mxCell id="p9Ba1PvIgmXxeS6Y3Wst-33" value="We&#39;ll never share your email with anyone else." style="fillColor=none;strokeColor=none;align=left;spacing=2;fontSize=12;fontColor=#999999;" vertex="1" parent="p9Ba1PvIgmXxeS6Y3Wst-141">
          <mxGeometry y="70" width="260" height="30" as="geometry" />
        </mxCell>
        <mxCell id="p9Ba1PvIgmXxeS6Y3Wst-34" value="Пароль" style="fillColor=none;strokeColor=none;align=left;fontSize=14;" vertex="1" parent="p9Ba1PvIgmXxeS6Y3Wst-141">
          <mxGeometry y="100" width="260" height="40" as="geometry" />
        </mxCell>
        <mxCell id="p9Ba1PvIgmXxeS6Y3Wst-35" value="" style="html=1;shadow=0;dashed=0;shape=mxgraph.bootstrap.rrect;rSize=5;fillColor=none;strokeColor=#999999;align=left;spacing=15;fontSize=14;fontColor=#6C767D;" vertex="1" parent="p9Ba1PvIgmXxeS6Y3Wst-141">
          <mxGeometry y="140" width="270" height="30" as="geometry" />
        </mxCell>
        <mxCell id="p9Ba1PvIgmXxeS6Y3Wst-38" value="Регистрация" style="html=1;shadow=0;dashed=0;shape=mxgraph.bootstrap.rrect;rSize=5;fillColor=#0085FC;strokeColor=none;align=center;fontSize=14;fontColor=#FFFFFF;" vertex="1" parent="p9Ba1PvIgmXxeS6Y3Wst-141">
          <mxGeometry y="280" width="110" height="40" as="geometry" />
        </mxCell>
        <mxCell id="p9Ba1PvIgmXxeS6Y3Wst-40" value="Подтверждение пароля" style="fillColor=none;strokeColor=none;align=left;fontSize=14;" vertex="1" parent="p9Ba1PvIgmXxeS6Y3Wst-141">
          <mxGeometry y="180" width="260" height="40" as="geometry" />
        </mxCell>
        <mxCell id="p9Ba1PvIgmXxeS6Y3Wst-41" value="" style="html=1;shadow=0;dashed=0;shape=mxgraph.bootstrap.rrect;rSize=5;fillColor=none;strokeColor=#999999;align=left;spacing=15;fontSize=14;fontColor=#6C767D;" vertex="1" parent="p9Ba1PvIgmXxeS6Y3Wst-141">
          <mxGeometry y="220" width="270" height="30" as="geometry" />
        </mxCell>
        <mxCell id="p9Ba1PvIgmXxeS6Y3Wst-159" value="" style="group" vertex="1" connectable="0" parent="WIyWlLk6GJQsqaUBKTNV-1">
          <mxGeometry x="-140" y="489.99823529411765" width="410" height="550.5899999999999" as="geometry" />
        </mxCell>
        <mxCell id="p9Ba1PvIgmXxeS6Y3Wst-143" value="Карта столов" style="strokeWidth=1;shadow=0;dashed=0;align=center;html=1;shape=mxgraph.mockup.containers.window;align=left;verticalAlign=top;spacingLeft=8;strokeColor2=#008cff;strokeColor3=#c4c4c4;fontColor=#666666;mainText=;fontSize=17;labelBackgroundColor=none;whiteSpace=wrap;" vertex="1" parent="p9Ba1PvIgmXxeS6Y3Wst-159">
          <mxGeometry width="410" height="550.59" as="geometry" />
        </mxCell>
        <mxCell id="p9Ba1PvIgmXxeS6Y3Wst-124" value="" style="group" vertex="1" connectable="0" parent="p9Ba1PvIgmXxeS6Y3Wst-159">
          <mxGeometry y="64.11941176470589" width="410" height="446.47058823529414" as="geometry" />
        </mxCell>
        <mxCell id="p9Ba1PvIgmXxeS6Y3Wst-94" value="" style="rounded=0;whiteSpace=wrap;html=1;" vertex="1" parent="p9Ba1PvIgmXxeS6Y3Wst-124">
          <mxGeometry width="410" height="446.47058823529414" as="geometry" />
        </mxCell>
        <mxCell id="p9Ba1PvIgmXxeS6Y3Wst-86" value="Зал 1" style="text;html=1;strokeColor=none;fillColor=none;align=center;verticalAlign=middle;whiteSpace=wrap;rounded=0;" vertex="1" parent="p9Ba1PvIgmXxeS6Y3Wst-124">
          <mxGeometry x="175" y="19.41176470588232" width="60" height="38.82352941176471" as="geometry" />
        </mxCell>
        <mxCell id="p9Ba1PvIgmXxeS6Y3Wst-88" value="" style="rounded=0;whiteSpace=wrap;html=1;fillColor=#31E815;strokeColor=#000000;" vertex="1" parent="p9Ba1PvIgmXxeS6Y3Wst-124">
          <mxGeometry x="8.279999999999973" y="25.882352941176464" width="31.72" height="32.352941176470594" as="geometry" />
        </mxCell>
        <mxCell id="p9Ba1PvIgmXxeS6Y3Wst-89" value="Свободно" style="text;html=1;strokeColor=none;fillColor=none;align=left;verticalAlign=middle;whiteSpace=wrap;rounded=0;" vertex="1" parent="p9Ba1PvIgmXxeS6Y3Wst-124">
          <mxGeometry x="50" y="25.882352941176464" width="70" height="32.352941176470594" as="geometry" />
        </mxCell>
        <mxCell id="p9Ba1PvIgmXxeS6Y3Wst-92" value="" style="rounded=0;whiteSpace=wrap;html=1;fillColor=#e91620;strokeColor=#090D07;" vertex="1" parent="p9Ba1PvIgmXxeS6Y3Wst-124">
          <mxGeometry x="8.279999999999973" y="64.70588235294122" width="31.72" height="32.352941176470594" as="geometry" />
        </mxCell>
        <mxCell id="p9Ba1PvIgmXxeS6Y3Wst-93" value="Занято" style="text;html=1;strokeColor=none;fillColor=none;align=left;verticalAlign=middle;whiteSpace=wrap;rounded=0;" vertex="1" parent="p9Ba1PvIgmXxeS6Y3Wst-124">
          <mxGeometry x="50" y="64.70588235294122" width="70" height="32.352941176470594" as="geometry" />
        </mxCell>
        <mxCell id="p9Ba1PvIgmXxeS6Y3Wst-95" value="" style="shape=image;verticalLabelPosition=bottom;labelBackgroundColor=default;verticalAlign=top;aspect=fixed;imageAspect=0;image=data:image/png,iVBORw0KGgoAAAANSUhEUgAAAuwAAAHWCAYAAAAsKdyqAAAgAElEQVR4Aey9B3gU2ZX3LRg8w6792rvrXcbP9+2+nzd5/Xp3be961x57Pq89jMdhGGaGgRnikDNIgDISiiiCJAQiipxzjiIngZAAISEECoAIQghQzuqW/u9zbquabqHQXd2trqo+ep7zlDpUddW5/3Pur27d4AazPz0ANvYBa4A1wBpgDbAGWAOsAdYAa6DnNWAG5sYXbsb/xD9cMD1fMOxz9jlrgDXAGmANsAZYA6wB1gBpoOM/BnZ+osBPVVgDrAHWAGuANcAaYA2wBhShAQZ2FqIihMgtCNyCwBpgDbAGWAOsAdYAa6BjDTCwM7AzsLMGWAOsAdYAa4A1wBpgDShYAwzsCi4cvsvs+C6T/cJ+YQ2wBlgDrAHWAGvAlTTAwM7AznfUrAHWAGuANcAaYA2wBlgDCtYAA7uCC8eV7hz5WrmlhDXAGmANsAZYA6wB1kDHGmBgZ2DnO2rWAGuANcAaYA2wBlgDrAEFa4CBXcGFw3eZHd9lsl/YL6wB1gBrgDXAGmANuJIGGNgZ2PmOmjXAGmANsAZYA6wB1gBrQMEaYGBXcOG40p0jXyu3lLAGWAOsAdYAa4A1wBroWAMM7AzsfEfNGmANsAZYA6wB1gBrgDWgYA1YAOy/SgN88+iLfNfDPmANsAZYA6wB1gBrgDXAGmAN9KwGLAT2nj0pFgH7mzXAGmANsAZYA6wB1gBrgDVg0IAFwM5iYbGwBlgDrAHWAGuANcAaYA2wBpylAQZ27urDXZ1YA6wB1gBrgDXAGmANsAYUrAELgN3tGH3JWXcU/Lvse9YAa4A1wBpgDbAGWAOsAVfWgIXA/ofrDO0cKK4cKHztrH/WAGuANcAaYA2wBpylAQuAnQvHWYXDv8vaYw2wBlgDrAHWAGuANcAaYGDn7j7c3Yk1wBpgDbAGWAOsAdYAa0DBGmBgV3Dh8B0131GzBlgDrAHWAGuANcAaYA04CNgfFhaA7H5BHm7duqlJy7iRjsePi6BvamTo57ty1gBrQLEauP+w8I0cfPP2TcWeL1fMLgRnLXqs37gOM2ZMZ2MfuIQGvL29ZOZeBwH74X374evlhXHjxsLH30eTNst7NrZs2wxdbR3Q6kIJlsFMZrCxRhjEnKOBdZvXv5mDg/xRU1fNWuZ85lwN6PQYMWoEevfujV69esGtlxsb+8AmDZCO+vR6S3H2Vq/eQucDB34iM+YcBOwjhw3HN/u8gz/r8zbc+vTSrH06+HM01daitVUnswCcU4EzOLHfWQOuo4FPhnz2Rg7u882+yH+Yz3mLgd25GmgD9j59+sDNzY2NfaB5DQwY8LHMmHMQsA8ZOsRwh6Rx8X3y2UBUVZUzsHOlJzMAXQca+QbBeWX9+aef4s/fettYEVILVN++fVHwgIGddek8XQrftwG7qT4Z3PnGRcsaYGB30o0BA7uTkz3fKPCNAmugWw0wsHOeUuyNSVfAzl1DbOoaopnuRU7iO0fdNDCwO6lAGdi5IlRsRcgg2y3IukrZMbBznlKs1rsAdurXTl1l2FzbB44CZ2cdl4GdgZ3hhAGVNcAa6FADDOwM7GoCdjH41M0NmzdswJXzF3DuzGk2F/RB6qWLIPMO9IVvkL/qzCfAF3/5nb8wdkWUbhBUAexvvfUWPv7wIxQ9KET+3VxheXl3oQZLv37tDaeT87mFnStCxVaEDK8dwqsrlhcDO+cpxeq+gxZ2Avbebr2Qk5ONxpoaVFaWsbmgD+prqyGsvgaNjXWqs4qqcrz7N/3g1tt8TIIqgJ0GOQ0e+Bl0uka06ptVY3S+lDCkuyPTLQM7V4SKrQgZ2BnY2zTAwM55SrF5qgNgF9PfufXCg6L7HMOcx1WpAV1rM8pqy9Gvn8qBXa9vUlcBtOgY2DlpqEuzXF5cXiYaYGBnYGdgZw0oVgMmuUor56gZYG9pVhmwQ4+qcm5h10og8XVwxeVqGmBgZ80rVvPcws6NCxoEdlpMkxbV/F6/d9XdJYaBnSsPxVYeWkwcfE0uXyEysHPOVWzOZWB3+fykWG3aUncysDsv6XILu/N8r8lgtiUR8L5cwVmpAQZ2zl+KzaMM7JzPrMxnitWy6XUwsDsv6TKwO8/3qghO00Dl/7kCUpgGGNg5fyk2jzKwc75UWL60S6wwsDsv6TKwO8/3dgkeLSYEviau6CzUAAM75y/F5lEGds5jFuYxxWq4o/NnYHde0mVgd57vVRWkHQUuv8cVkpM1wMDO+UuxeZSBnfOjk/OjQ2KDgd15SZeB3Xm+d0gwaTFB8DVxxdeJBhjYOX8pNo8ysHPe6iRvKVazlpwvA7vzki4Du/N8r+qgtSSw+TtcYTlYAwzsnL8Um0cZ2Dn/OTj/OUX7DOzOS7oM7M7zvVOCTYsJhK/JZStGBnbOX4rNowzsLpuXFKtJe9SVDOzOS7oM7M7zvaaD2h6JgY/BFV43GmBg5/yl2DzKwM75q5v8pVjtdnXeDOzOS7oM7M7zvSqDtatA5s+4guphDTCwc/5SbB5lYOd82MP5sEdigYHdeUmXgd15vu+R4NJiwuBr4oqwTQMM7Jy/FJtHGdg5T2mxrmJgd17SZWB3nu8VW9FoMcnwNWmy8mRg5/yl2DzKwK7JnKNYvfVUHcfA7ryky8DuPN+7fOD3VILh39FsxcnAzvlLsXmUgV2zeUexmuuJuo6B3XlJl4Hdeb536aDvicTCv6H5CpOBnfOXYvMoA7vm849itefIuo+B3XlJl4Hdeb53yWB3ZCLhY7tcBcnAzvlLsXmUgd3l8pFitWjPupGB3XlJl4Hdeb53ieC2Z6LgY3EF2E4DDOycvxSbRxnYOV+1y1eK1ao158nA7ryky8DuPN9rInitCXT+LldgdtYAAzvnL8XmUQZ2znd2zneK0DoDu/OSLgO783yviODTYkLha3KZipKBnfOXYvMoA7vL5CHFatARdSEDu/OSLgO783zvUkHuiMTBx3T5CpGBnfOXYvMoA7vL5yfFatOWupOB3XlJl4Hdeb7XZDDbkgh4X67grNQAAzvnL8XmUQZ2zmdW5jPFatn0OhjYnZd0Gdid53tVBKdpoPL/XAEpTAMM7Jy/FJtHGdg5XyosX9olVhjYnZd0Gdid53u7BI8WEwJfE1d0FmqAgZ3zl2LzKAM75zEL85hiNdzR+TOwOy/pMrA7z/eqCtKOApff4wrJyRpgYOf8pdg8ysDO+dHJ+dEhscHA7ryky8DuPN87JJi0mCD4mrji60QDDOycvxSbRxnYOW91krcUq1lLzpeB3XlJl4Hdeb5XddBaEtj8Ha6wHKwBBnbOX4rNowzsnP/slf9a9Wht1UGna4SupQkvXz5H/r1cZGbewOmzp4SlnD6B4ynHhKUcP4bzZ8+I969fT0dubg5KS4qh1zcBLTpxLNlxw8DuvKTLwO4838sOGHslAT4OVygq1wADO+cvxeZRBnbOr3bKr6+Kn2Hn7h3wD/DHvOB5iIqJwoLoaMTFxmLV8uU4cfgwtmzciMMHDmDfnt3Ys2unsPgFCxC3IBbxMbEImxckLDI8HHsO78OVG2nyyoeB3XlJl4Hdeb5XbEVjpyTD18facrQGGNhZY47WmOzjM7DLA0Kuf97w2420NEyeNhmVlWWor69Bc3MD0KwDdJbFv661GRX1lcJevSpFaFAQUs6efON3LNI6A7tlTrfImVaKnYHdeb53RHnyMbk8XUkDDOysd8XqnYFdHhBayTCKLX87XkdLcxOKih5g/Zo1OLJvPw7t2SugOyosHEsWLcKEseMQExmJ+IULEB0dhYiQUEyfMgVLliTCx98H4dHzkbhssWilT16xAtm3MuV3i2Fgd17SZWB3nu9dIdHwNbK+HKkBBnbWlyP1ZdOxGdgZ2O0I7aTF/Px7iIuMRsjcQDQ01BqsuhofffihobWdWtx1etTWViEiLAw1zbWo1dWhorYCvt7eWLFiGW7fyrStXBjYnZd0Gdid53ubKgM7JwI+F9aBGjXAwM66VaxuGdhtA0Ou4970n94A5Hv27MLD+wUC2AnQY4LDUFxUZIT2nLu3sX7VagHrBOwnz53C8XMphu/b6lcGduclXQZ25/lesRWNrQHN+7+ZaNknDvEJAzvnL8XmUQZ2h8S8Ysu7J3J8G7A319RifnAIbqVn4HZuNpYuSsSW7Vtwu+COMH8fHwHo9Nm2bVuwYfUaI8zb7D8GduclXQZ25/ne5sDpiQTBv8GVjoI1wMDO+UuxedQBwE7T8tGAw8bGOlRVlOHFixIUFz8RVlJSLKbuo/dpYGJTUz2a9Y3QtzZzDlNwDrNKv23AfvXiRfjN9RP91qMjI0AWszAGCxYtFBYUEIDVy1cgJipSfLY2ORnLlybh6uVLtmuBgd15SZeB3Xm+typQtZJw+DpsT5jsQ6MPGdg5fyk2j9oK7G1wduHSeRw5exyr1qyCx+Rpwv7pB/+Mn//yF5g1cybGTxovbNjXI0D2p08+xo9++EOMHPIVRg4fjqT4Rdi7e5cYaKirrTPGjmL9xvmtyzI6cuQQMrNvdvmdN8q21dCVZsOGdUILYnYZek+OrxnYZTpOjrPb7cPA7jzfywqWduXHx+Dyc2UNMLCz/hWrfzsAOw0UXL9pPdJvXMPNrBsoKX1mWDxH12gcdCjgy2R6P2qFlwYkllW8wv2CPNy+cRP79+zB5wM/RenL5/JAjese2X5raWkWT0Zothc5Jj1ZefSkCGvXrjYuokTvW3I8NDcbu8TQTDKkGX1zo1hIqUVn2TGk36Fj0Y3f9/q9C7febnBze20DBnws00fo8M/N/F3rk92QoUPg1uv1CdLJ9u3bF4MHfiYcp9jk0UmwMbBbrwG1lTGfL5exVjVAwP5On7eNlUavXr1EPi54kC+z4mCtaFUrPX5dtgJ7ix6V5a+QvHIFcgtyUfC4EDcy0nEq5QTOnz+Lvfv3IHn9amzfuc3M1m5YC1r1kuzalVQQ5BXk5uLQ3n3Iyb2NFug4NjrhIUdohGC9qqocR48fMdqxY0dgjUn7ent6iqkbL54/Z9X+9FvHjxqMFlzav3MXjh4+ZPUx6DinTpzA2WMn8Bff/s4bLMzA7mBhMbBzBe2IJMXHZF31hAY+/fxT9OnTh4HdwfVET5Sl5n7DVmBvK9P6xjoEzw1A/1//BqcvnBFGAL903Qps3L3F2JpeUfEK61avxuJFCbh6/aqwA4f34//8+F/hOWsWnhQ/ZlB3QpzQWIKNmzcgKmI+zqSeM9jlczhjjbXtd+DkYew9fgAHThyybn/6rbZjHDt1HGSnLp6x/hiXz+H42RRs37eTW9idkbAsAfbWVp14BMNb9gNrgDWgBA1IuZKA/e23O29hV8K52uMcpOvlrYpuhO0E7FKZp6Zdxr6duwSgV9dV4eadTBw6fdQM2P38fMUc3NI+84NCUPL4MVr1PPBU8klPbyVgP5t6HujnpglrauAuMU65++0Q2N9yw1+/+zcICQnGrFkebOwD1oCGNeDu6QEyj9nqiXXpnH/4r/8HvXv3NrawS/0pp0yZDD8fH1Xr1mOOB8gmzZxqhLKehg3+PRtuEOwM7FQWa1asxJW0VKGH5y9KMOnrsXhVUyYMOh1CA+aB+iTT3Nvb9+zAtatXnMIVrBtz3Rw7chib1qwDaCCx2qGdB52aF25Pir0zYHfr0wtub5n31ZcqQ96yX1gDrAHWgIM1QDm4zaRBhD1ZN/Bv2Vgv2xnYaTrHe7k5+NV778FvlieCvPzw+9/2h/uMGcJC/AIwdfxEBHr7Yra7O0YNH4HwoGAB+M0N9QzuTugOI8UQA3t3sWQ+ulR6xYNO24m2Q2CnQbWSmYwA5grawRU0+/qNllLWHGvOZTUg5eDebmiqrRUmAQBvuwMABXzeBuxv9/mGMa/RoOjebr1Q9KDQOoDW67Fi2VJcT78GmvmFjPqsk1VWVxissgyVlWUorywzfufF82c4dfYkQueHglrgRQtvOwZgLTleKwzs3flYQnTzLQN7u2DtENgZHI0J1mVhgTXAGmANKEMDvd1AKxuSMVx1V/Er6PM2YG8/KJqgXQJ2mkGkW9M1YcGCWGRezxBTOpIGxD40HV83JumFZpU5tH+/mM6v29/r5pykY/LWcq0xsHfnK3NQl14xsLcD9rKyF6AEQsZwyq2Z9tKApClqTerwmO2mRu3wO0oHRqkF1HSr9HPu6PxMz1/6v6Pvqek9ug6T85X0aPqeav5nYFfnjYpOhxGjRuBb3/5f6PP2N8TgaJoCmgC+4N5dQ+t4+SsxdSNN39jepBb00tJniI6IQNmzkje+036f9q+lY5Q9fy6mh6ytqrT6GNIxy16Uoq6uWp1l0Y57evpmg4Gdgd0ugfPw0QN8s887wlRTgZlUxHzO5mCiFH9Imnqn9+sp94znRmMjtDBGwqSPsdTX2HiNatKoVq5D8rl0PSZjcCQ99un1lhnIK7G83urVbhAtA7td6rqehDSa65wGfvoG+iEqNgoDPx6AQZ98iiGffi7s6/FjMG7yeEwc37nRCqbiO5MnYtq4ifCe7tHl9zs6Fu1PNnXSJEwYPQbec+ZYfQzpuMFzfPHlZ4PwpOihWHCnJ/2p9t9iYGdgt1sSy713B2S0khob+8AeGqClk3/9q/fRHtj7/vmf4e++/78xcfJETJg0AePGjVWtTZg6EWR//4//ILb0vxqvZ+yEsSCj8qBy+Yd/+kcMHT5UlddC/peuZ9yEcZg8cSL+/1/+CuvXrhE5LjMnU5E5LjPzBm7dvAFfLy98o/1NLgO73eq6ngI/CdjnhQUZV5hEix5uz38hzLg6Ka1Q2gPWqGsQNxD1unrZv0cDnwna7+fnMbBb2WLPwM7AbrckptM1Gpc75v/ZF/bQALUu/bb/b99ozaTHwQRUopKiKa5aVWxtSZvmPjaCgJqvh8pDp8ek8RPw8OF9wzWp+Xro3HV6JCxciLTUy+J6aClve+jb3scQAwJ1eszwmGG2EJR4AsDA/jq+rAQlY1w6Yz+dHnO9fYxrmEiwrtYtxZKnjycKChjYrdUVAzsDuzqTmDMSJ/9mj2vFYmDXQNmYAbuar6cjYFfz9XQA7NZWtD32/TbfM7B3V7Gr6HMG9h6vd3osXq3Miwzs3cWtNMzUfMuDTq0UmlIDgM+ruwBw7ufUAtm//wcdtrBTtwVjC7sG9MjA7lytdZoLVArsb7/1ehpAbmFXqLYsyVsM7AzsbTphYO8ujs1BXXrFwG5JouHvcKKxVQM6PX7Xv3+HwD5+DAN7p5Bpq99t2Z9b2J0X9yYt7H0Z2J1XDrbET/t9Gdi1UY7ty1XGawZ2BnYOBhmBo0hQ0uJ1MLCrLz4Z2J1XZgzszvO9o/IvA7v2ylSmVhjYGdg5GGQGD0N7d8Fjh88Z2NUXnwzsziszBnbn+d5R9QgDu/bKtL1WpBl+2r/f7jUDe3dMIXWCMd9yl5h2QmJ47U5I/LksjTCwq6+yYmB3XpkxsDvP946qExnYtVem7bWi06OuohKPHxd1ea0M7N1xlDmoS68Y2NsLjl93GWiyYJV9KgaVch/27pKUwj5nYHdeLmBgd57vHZWvGdi1V6YdaOXwwQMYMnQIHr94giZ94xvXrKuvx9G9+3Hk2GGA4ryfm7qtVQ9dbR2+1+9duPU2X7hxwICP37h+yxhKQnTzLQN7B4KzzKEKgwu+DpmB0UPlyC3syi6fjuKHgd15ZcbA7jzfdxQL9niPgV17ZdqBLpZEL0RlQxXily7Cw2fmLe202FR4SIhYkO7IcQb2zlnTHNSlVwzsHQiucyf2ENzxOWkvsTGwq69MGdidV2YM7M7zvaPqHwZ27ZVpO63oWpuRtDAB9Y112LVrB/bu3gW06MR1l5Y+w+QZU1BVUYaj+w9g37493MLezn+v2VNCdPMtA3unDmM4fy0e9oXNvmBgV19lxcDuvDJjYHee7x1VJzKwa69M22mlprkWUVGRQHMzNq9bj8FfDQatpkz1Z1L8IuP1cx/27pjKHNSlVwzs7QRnM5jx8YxByb40CUoGdvXpgoHdeWXGwO483zuqDmNg116ZttPKvYd5WLQoHtDpEBoagqePi7AsaQkybqQjIirCeP0M7CZs0M6HBm6SEN18y8DeobO6cyZ/zjBupQYY2I3JWjXaYWB3XpkxsDvP946qExnYtVemJlpp1TcjJzsLS+ISUKurw1xfXzHotLVVh9iFsVi6ZDGoD3tLSzMY2LvjB3NQl14xsJsITjUgweesvsTHwK6+MmNgd16ZMbA7z/eOql9cFNibG+tB0Kp1viBgv3j6jBHYgwICjLPE5OTlMLBbFVcSoptvGditcmJ3d0X8udaTkuzrY2BXX4XFwO68MmNgd57vHVUnahDY5/n44UFenugCIqYobOe7p08fY9zwUaitqNA+tLfqcf3qVWzesEG0sI/8eiTWb1yHtFvpeFZWwsDeThtds4Q5qEuvGNitciIDedciY/906h8GdvUBCAO788qMgd15vndUnahBYA/y8sPlC+fFOhugVT5NfPeq/CXWrV6NC6dP4+jhQ8bZUky/o7X/6Tp3btsmgD0sLBTHz6Vg0fLF8PX3ZWA30Ub35S4huvmWgd0qJ5oHZPdO5++zj9o0wMBuVpmpQhcM7M4rMwZ25/neUXWiBoE9wNMH80ND4eXlicoXL42t6NQFxi/ADzmZmXj2oAi0mJA0vaEqcp9MDRw5cgh7du1Enb4eURHzUd1Ug4raCpRWvhCDT7kPu6VMaA7q0isGdpnC1HLQ8bVZGlRWfI+BXX0AwsDuvDJjYHee7x1VJ2oQ2D19PHH/3j1UvyrD8tgEVJa/EuW2f/9eDPt8MHLv3cHzZ0/FlIbS9IZarl8PHzuEPft2Cx8sjIo2ajjv7h2sWrGcB51aHFsSoptvGdgtdqAVcMbHNAaqlpOTVdfGwK4+TTCwO6/MGNid53tH1V8aBnbqDlNTVo7kZcuxb9sOnDhwCEePH8GxgwdRXVuFyRMnCli1qs5wVDk48LgE7Nt3bhPajQwNM2o4J/c2A7tVfjcHdekVA7tVTmRo13rCcdj1MbAbk7fDfGzvWGZgd16ZMbA7z/f2jiPpeBoF9oKCPOh0jaivr8EHH/wWDwsLRNldzriCdRvWClD39/RGbW2V9spUKtu27ZmTJ3F4335xneEhIUhek4zosPkYPfprBM8L5Bb2dv7qvC6UEN18y8BusQMZ1jsXF/umW98wsKuvsmJgd16ZMbA7z/eOqhNdANj9Z3sZBqBCL+D05InjYvvRhx+i/NUL7ZWpiVZofnUC9sSEeHGdw0cOR2lJMcrKXiAr5xY2rV3HwG7ir66ZwRzUpVcM7BY7sGMo1bU2o7mlSZi+qRFkUkHoTT4zvqdvEnfjdEeOFr25tXb8G9K+vFWxfxjYjXGhGh0zsDuvzBjYned7G+vETuNb48Be11CLYN+5oP7aNPBytp8n4hPjRX0/euQoFD95pL0yNdEKzcN+68Z1JCxcKLgmLDgYaGOaO/dysHr5CgZ2E391GifiOxKim28Z2C124JuwWFNTiVdVr1BUXITcglzk385BWupl7Ni9A3v278H2PTtw4PghbN27Heu2bcDWXduQkXENt7NuoTDvHkoePkJ1RTnqq6oMd+UE8DacD++rYP8xsKtP2wzsziszBnbn+d5RdZDGgZ1mQBkx+EtQK/vFqxdRUfEKa9evEeXoNXs2Hj16qL0yNdEKAXvRg0IsTkgQPEMrndbXVKOqphKJiQmYNWcWA7uJv7rmNXNQl14xsFvswNcwWF1XhcQFcfhqyBCMHT8WXj5eOHY+BS+fFuPx/fviEVB5+UuUvnyO5xWlePLiqQheeu/Jk0coKX6Cvfv3IC4iGjMmT8Gnn3+KqNBwFJc81XRAdy3Q1/7V5PcY2NWnbQZ255UZA7vzfC+jTrQoZ7sAsM8PDBZQSrDeHtjv3M3RXpmaaEUC9oiwMKBZh01r1uHg/n2YMmUySkqfibnoeVpHSzlHQnTzLQO7ieAsSjrQo0nXgF37d+N4yjG06JqMiybU6urEggE0Yvzh/QLkF+YhOz9H2IOi+3j89BGamupFQDc21hmDN/XqZcQujEVNXbXxPUvPhb9naQCYfI8e09EiF92ZDG10Wh4M7OrTNgO788qMgd15vrdn3jM9lgsAe1hIsGAAiQVWr1stXi9fvAQF9+5qr0xNy5f+1+mxcH4UqhqrsXnrJkyZNsVYz1ZXloO6yVxMvYBDe/eJ3gdiddh+boCarVUPXW0dvtfvXbj1doOb22sbMOBjmWVuDurSKwb29oKz4DUNrqCAPHL8MBYujEVCYgKC/eZiptcsYWMnjMUc7zkIDApEQkKcMPfJU+E+aSpme82Gu6cHZnnOwuKkxaK/177du0U/t05hz4Jz4n1NgLwDf1GZ0QCYRw/v4+6d20hPTcWdzFvIzryJnbt34MC+vaI1IOv6ddzKyBCfZ2ffQlHRA5SUFIubNJt8zMAuM3F1Xa42lUkHOjE7HgO788qMgd15vu8uLuR+7gLA7uk5B+k3ruFF1UvBCBKwjx8/zmWAfUV8ogB2miEn70GeEdgptzY3N2BJfAKGfjGYgb3LOJIQ3XzLwN6l07qHhZr6agHm1JcdjU3Cql6+woVTp9FUXydWPqNVz1avXY3S8lJUNlQJMd8tvItDhw6IOzNpYIYZLNh4XnwsQ3LYuGo1Rg0fARqlTzdSSxYtwqXUi0hNu4yr6VdwPf2asIqylwLMCc7z79xBxpUr4jvrVqzCrOkzMG3yZIwfOxbbt28VT0ioTK3ycVfAPnasWauM1Dqj1q23p6dDr6cj3zvCVzSgnMp42Jdf4c7tbFHujvgdGrQuackRx5eO2ahrEJXn8sQlYqyN9JuK3DKwGzWhyPKRUz9pHNjpqbn7bHds27IZP/3v/8T0qVOxYtlSEXNR80LwoDBfe2XagQ527tuFpIUJokFMtKC3+w7l72NHDotZY7iFvTPGNAd16cz08cAAACAASURBVBUDezsxWZscG1saxbK71HJe9qxEBGdDVTX279kDXWODMUCpFf5VTZlYqjc9Mx3JySsNgE/dMmw8B96/Yx/STDyLImOQcvyY6E/Y2tTWfYlgQPJ5W7eYl6Ul4jvU79DYVabtOy3NTWiuqcXZ82ewPCnJ7sD+69/8D67lXEd6zg1k3LmpWqNrIPvjgD+JLf3viOu5evMa0m6kmZkjfiftVrr4DQL2s2dP42aWY8onPeu68VoccR3GY2bfwLWMNIweO5qBXYp/3r7OhY72hSsAu6eHqCuoHklNvYRNG9aL+mT08BHiCa+x3nG0r514/BuZ1w18Q3WraV1rck4C2NesM3yu5u4wdO7cJcYEqEwKWYlib9I3oq65TlhUxHzk3MzEjStXMXnseKRevICU0ydw8MRheMz2EC22166nYc6sWSBRUwu86AOv8GtUot+tOSdaee3yxQvYtHWTaPEIDQrCxvXrMP7r0QiZNw+xEZFiDEFEdIQoG59ZcxAbEo7FsXHC9u7ehTMnTiAxPl6MQaBxCB218nZ5Tp20sPd6qzfe+9UvRVcpT29P+Pr7qtboppWs/0cfii3974jrWRgRhfjIGPzwBz9AdEi4+N8RvxMZHo646Bh8/x//Hh4e7vD29nLI9YQGB2FBZBT+48c/wdTpU8Ugdj8/++sgMDAAsVFR+Oij34mZqrrUq7NzErew9xxI91RZuwCwjxk/BhUvXohFkh4XPxIDLQlaf/dBf1CjkKJjzp46oPgl62TmOwb27hhXalM333ILu40ipT5Zd+/eAVXux04cFQNRD6UcEZB+/FwKzl27KOxgymEcOnkE0md7Du7F2EnjUPj0gesEsY2+lpvsqEtAadULDBszEk3VNWiorRFdNnbt2I4nNNUWtQS0JZZQn7l4VfpcvEcr19H0XEmJiaJfovj9ThJQt+fWCbD36dMHI4cPN2jA0sGwbU8FjE8ClPK6rXxnTpv2WtMOPLdZk6ahrqLy9RMRB/3WtImT8OhJkXiy4gif05Mg0miIXwAy87LF/9Dp7H5drTrD2Jvly5fibOr512XkpLjsMmYY2JVdPnI0o3FgpxlQgnz8sTjOsHAQPQnctnObKMdwv0DU1Wh/pdMuY9pEMwzsDOw9n+BadLiRkY5dB/eIZYmNlXmbMHUtTca+vO2FTC20z8pKsGbjWrx4/qznz90keNqfm9ZeS314S58VY9XSZWisqxXlcv7qRezavt0I7FVV5ZgxbhL0dfXivZqqChDc0E2ZzT7pBNh79eqFn/zHTzFl+hQxop76yqvVxDVMnyKeGEj/O/Ja3v/5e5g8YaLD/DVx4gSMmzAOP/3Zf2D48GEYM2a0Q35r0vgJGDt6NN7/r19g0LAhGDVhDKY6QAeTJkwArT74/vu/Et17bNa0I3MIA7vtOceR5SPn2C4C7DS9c0xkJFauXI5Tp1JQXlmGwDk+aGp4PTOcomNPTtlauQ8DOwO7xQmOAIzuhsnkBo60f1RUpOxj0G9n3riO2OgoAZAE+HLOh+BfglI5+7vSPmfOnELcojjk5mTj6tVUTJoyCbdv3sTtW5k4dvgwPN09cOfWLdxIS8MM9xnIzbvjUGD/1rf/F54+fYyaygqxyERDdTVsMZoNJys3C0O+GoJnTx6LGw9Jq6ZburksLy0VAyoflhSBVumz5Xdp34rqcmG19TXG/zs6Ji2mUVtRgWMpR1FZWWaMRTq/h4UFoAU3qsrLhD+aG+rFwmJTx05AZZlhfAEN7jK9FvqfroeelixZEI/U9FQRR9JvFxc/waVLF8z2KXz2EH/45E+Ghctqqrv0PXVdq6ypENckHbOjLXWNS1q5VHSPk86P1mL4tx/9SByfrpuso33pPbqRrKqtFL9TV13V6fca6mowecYUs+uhblrDvhgioKCz36mtNhyb1pFQfMwzsCu/jKyENIrRud4+xokY3J7/Amo2up6A2d6g+dWp/qWJDMgotuob6zBoyCBRx9DaK+EhIdZ3o7TWvyr6PgM7A7vFCY4qtwcPCrFn324kJsTLsvDQEDEt0RdDvsDihfHCrDpWvGEf2ve///Nn2LJnG5LXJss6l6Skxdiwe4tIGoqviJ2YVKjcaWpN6qNOs8WQxcyPELYwKhoJ0bHC4mJjQRYRHoZhI4chcWGc7dNudtLCLgE7dYuwV9kRsAf6+4snBfS0gJ4ctDd6X1dfjy+/GAwCdho8ba/ft/Q4BOwvXpSYnRudFwG7sTWqRS+AfeLosWipbxDXVF1dYbYPXRvtRxYfFWMEduk8CNhp0KipD8rrKgSwC9i3kybrdfVYvHQxKmpfnx9p7t//9V+ha7LDU5q286QGh0lTJ4HmNZauiVZdHjposO06tZMvJN/L3jKw93g8yi4rSzWjUWDPun0LO/fsBM2OZerDyPnhyCu8h6ePi3D8bArQYuXMYpb6VYXfY2BnYDcLFtPAaf+/vqkRE0aORu7NW6Bgk2M3b14H2a1bN0HzdZNZcxxpH9rSvOBk2TlZVh3D9Pdo2sLiF8UW+6C9T7T8mqCJoG3L+g2oq6sWLR30Hllzo8Gk16bvUWs1AR213CZExRpaeOUmx26A3Z6Dj6trqzB95nT4B/obLMAf/u3Md66vmI7UfcYM0aJr9SBauX4w2S8v7y58vbxAAyyN5+friyOHDoJ8L2mSWtQD/P0wL2Qe6LyN3zW9prZrpa44FVXlxn3pGAT41LLn5+Nj3NfHzwcrk1faddC3vrUZAX5+8PX2Nv6Ov78fqOKmVQCl67F1S2VFPqOB7JIvwucFY8H8SDO/2fo7Tt2fgd1uenFqOZrEuxZb2P09vbFq9SqxngeNETH1dVnFK6xevQpHUo5i//GDZp+Zfs8V/2dgZ2C3OCAosKaMGS+mVSR4p2n7VGm6JgEc9Mj+y8GDUfTkocU+cKUkQdCdELtATNsopz86dcsoffwEF8+cke/fboC9fbJ3pfLha+0uebvg5wzs8nONKSQr6X8NtrAH+c/Fw7x8wzgoGvTezt/UiDZ79iyxBkv7z1z5NQP7m1ox14P57DDSK5ecJYbgfNKYcWhpbDT0K1P5PKD65kYMHvyFywB7SekzsZDNnews5GZ1bxk30jFq1Ejx9IJade/dy8XtO9kWW0HeXeTl5MB75izcy83B3ZzbuJuV3elv0yI7OTnZKDRdKIOB/Y3KzDxBdZfA+HOX8hcDu/biRYPATl0PjcBOmm0H7LQoGnWVI2v/mSu/ZmB/UyvmepAQ3XzrksDeQAO0xowUK46KrgAqB3a68Rjw+UA8fKz9KSKpq8SipYk4fvIYrl67IrolSd2TlLJNT08Tg43+4fvff91FgYGdK6x2lbl5gu4ugbvY5wzs2osXDQK7p48nCgryoNfLmzDCVXMAA3t3+dwc1KVXDOy0xDwDu2oqBwJ2monjcekTNDY3KHKWAWkWIgJ240AjBnbVaMxVK1FFXTcDu/bihYFde2UqsxGCgZ2B3eJg4Bb27sSi3M8J2OPCI/Gy8iVoGkwlTgtmBuzSY1IGdovjU1HgKLNC4muwMYcwsGsvXhjYtVemMvMjA3t3+VFqUzffcgs7t7CrKokwsHcX6Pw5w7IGNMDArqq8bFHMMbBrr0wZ2IFWPXS1dfhev3fh1tsNbm6vbcCAj2WWuTmoS68Y2BnYZQrKOVDAwO4cv1tUIctM3nxsLtM3NMDArqq8/Eb5dZQLGNi1V6YdlXN377XoxdS965NXA3r1d0lmYO+uwG38nLvEqBcQGNjVW3YWVeo2xjb/hkb0wcCuPbhjYNdemcrJ13o9Dh3YjzWrVonBujTxh5qNxqlxC7scIVi4DwO7eit1Bnb1lh3DNJedxRpgYNce3DGwa69MLWQus7hvA/arV1NVDerSTQZauEuMQ4XNwK5ecGBgV2/ZmSVtOYme93FoXlRU+TCwa6+sGdi1V6Yyc3LRg0KxGve8sCDIsaCQIKxbsxpjho7A/LBQYdYcJyg8GGERYcIGfvEZktcmIzB0nqxzCQwPwvad2/Ctb30Lbr1e91+nvuzch12mQEwrIwZ29UIfA7t6y840Bvl/LscuNcDArj24Y2DXXpnagce6zANdHL9J14D5QSGoa6iV7ddLqRexa/t20GroxBZyzkXX2oyy2nL069ePB53KcWB3+zCwqxcWGNjVW3bdxSV/zmVr1AADuyx4MPqvC9Bx2ncY2LVXpk7UWau+GUcOHsTR40fESrKNjXUgg07/hkmfSVtdUwPQ3IzoBdEoLnlqWPFe7rW06tFUW8uzxDgqsTCwqxcMGNjVW3aOimc+rgY1wcCuPbhjYNdemcqFXDvtV6+rx8H9+7Bu3Rrs3bETZ86cwqljx4SlHDyM43sPCMu4mQ6yKxlXhK1fswahoSHIv5srFmC0qQ7haR0dWwERsA8fPRLVDdWGOysNrHT66eefoujxQzEnaKfia9UbPqetnQKmp4/DwK7esutprfDvqVgrDOyqzdGdxp1OD38fH+NAQyUuemfNOVFLrrevN/IL88RsJ51et0rrWjVcT3NLExr0Daiqr8L5S+cw9MsvsX/nLmGDB3+Bnes3CVu2aDEG/PFPiI+Jxf6D+zB1+lTRwk6t7DZfJwO7zIqmRSecv2LpUtTWVnVaENRfaeTIEeI7NNIXGgD2rz7/QgB7V/2wEqJiUfnyJWhUs80idVISYmBXb9mpVXN83k7QHAO7anN0p/Gi08PX31dTwD5v7lw8KMxnYHcSD0hao0bY0OAgFBc/MXaH2b5li/F/+t6SuARjP/XM6xmIDAoVfdelY8jeMrDLrCBadLh79w7mzQvEoqWJnSa8upoqzQI79evqSHjbt27BihXLcPvGTQb257+ANS0p1n63ublBJIJ/+P73AQIPSmY6PX7Xv7/ZKmg0ivxb3/5fePr0MVp1HZdbR2XJ78nMD06uVLjcrCg3BvYO87iqNdQG7LTQDNVT1PiiZqOczsBuRUzbO/+2NdBSz4KkxYm4f7/AWNempl7C2eMnzIA9OXml8cZKr29CWuplHDi0Hw21NbbFGgO7PBFQIZw4d1IMJMi/n4ftmzabFURdZSWSlyzFgsgofPhhf+h0jZrpEvPF0CGIWRCD9KzrqGmuha6lyXjtKSnHxUjoivpKnDl/Go0tjcbP1FYBcAu7vNhQWznz+bp4OTOwqzZHdxS7LdChVleHiEUxAnIJdP38fOHp42mxhcwNRGRgCNwnT4XvNA8EenhZvG/735k1dTp8Z85GqH+g7GME+Pvhiy+/QElJsbHltqNr5/cckMtoYGljE1bFLUZSbBw8Z3pg/vxwYZs3b8QfPvoIy5cvxZ79e4StSV6FsOBgLI1bhKUJiZjr5yf6sHvM9kDymmRk5dyCvlVmoxkDu/wCJmDfunWzcH6Qj78ByKEXWyqs+soq0cLsPn265oD94dOH2Ht0PxYtigf17aJEQYA7aPAg1NfXoKqxGhu2bmRg5xZ2TcEAV4jy86VifcfArqkYlYCdoL2jWTyseY8aoB49vG/wTwczglhyrM2r1iA777aYXcSS73f0HboWsma9ehvAFBv/3bXGN+sQHhSMpw8eGvQkPcmGXjzdpm7P1CB7I/uGsOaaWpBJ5diiaxJlJ5Vh2LwgFBU9kBdzDOzyKiDqj75t5zZkZt+EvqEBVAhLFi1CZV0lTp05icvnzokCo5b4MePHoLapVjMt7DT5f9GTh6Jrxarly5GVlYlHhYXwdPfA8qQkXE29jEaat3R+uKpbA7iFXV5sqDYxd5e4+XN5lYzS/cbArrlypRZM0YppOvmBtf+36FBbVYmVSUsN3Q2t3b9VD31To+jvbOv5SPvTzQjn156tlx7fvw9/L2+MmzgOyxIXY8WSJFy5lirgnKZYJKNyFl1S9XoB6xKwF90vFDx06NABxC9JgNfs2WIw6vr1a+WVIwO7vMInYF+3Ya0ByuvqEb9gAV4+e4YV61YhOCwYlS9eis9owv1hY0aKFmetDDod8PlAPHz8wHgH6entKUAdzTrs3L5NGMHuggWxxqcOakwyDOzyYkONZc3n7MJlzcAuDx6UfiNmh/OjBrdrly9jy8aNeFL8WNiz0mKUvnwu7PHTRzC1R0+LRGMWNWjdunUTK5cvw7NnT9m/digLp+VokycrL0qeIT09Dbt37sCyZUkIDgzEljXrEEYroEbNF7YgOlo03lK3GLIdm7fg/NkzuHM3x3YdMLDLrKha9aJfEj32aKiuxqK4ODTW1YpHHwM/G4iGqmqXAfbt27cCOp2wtEuXsGPbVtGyPnTUcKBtsIbTgs2GRMHALjM2bPC5GnXC56xynTCw2w4SWo55nR4lT59gno8fvGfOwoCBAzB+ygSMmTgWQz4bBN/ZnsI++J/fwHO6O2ZPnYH33/slFiYsZL9qQRcmwC66uZh0idHV1oGM+rhLXWCM70n72XOmPAZ2mZVNqx4BAXNFQJ5NuyDm25T6KC2IX4Dq6grxGU22r/UW9pCAQGMfrX3bd2Dz6rXisdDQEUNFdyG1Ag0Du8zY0EKS5mtwHdhgYHedsrYhrmtqKrF4UQLKy1+KvsvrVq/GqVMpxn7MNPCQFsuhPs30nSWJi9ivNvhbrdzg0PNmYJcPJVJAErCPHPs11m/ZgNwH9+BqwD5j6lQkJiUiKiYKPl5eRmBPXBAHXWODarvFMLDLjw2HJi2uBBgE7KkBBnbWUzd6qqooQ1RUJKqqysUAQ4Ly0aNGoaT0mRHY7xcVIjo6yujL/Px7WLx8CWjebs6HXJfYRQMM7PKFFBkeLgLx0N59OLJ/v+gaEx8Zg/d++jMxUwoVkCu0sEdGRhgfBz14dB9xi+LE64UxMXjwoFC1yYqBXX5s2CU5dVOJ8m9w+dhFAwzsqs3Rdin/LvIMzXi2eGE8Rnw+BLHRUdh37AAyMq7hVnqGmKbxxZOnIKPpFktLijFo2BAUPrmPfSkHsW3fDkwYNw7UoJV9J4t93IWfHV2Omjk+A7vMSq9Fj6WLDAsmEbCnXbxkXLiG3nelLjEM7I5dHKmrxZR44SSZ8cuVBwOEpAEGdtaCpAWT7fOXJYiLjcXdB/fw6NkjPHnyCHl5d3H3zm1kpF3Ftm1bcPToYWFb92zHtt3bsXXvdmTfzca1m9fEdJCPix7g+fNi0HzdNP+2ZsDRxE98TT1YBzGwy3R2i16MBCaxnko5gQunTkPf3CjmJF+ckOBSwB4RFiamNaKpjWgRKVpUiQZgxERGvl4RTIUBzi3sMmNDhWXNlY4LlzUDO4Nk+5zVqkdMVCSWr1yO4ynHcObcaRQ8yBfdX5ob6431HdV5ZDQPNxk1oNQ31QmjGWPS067i0qULWLZyGSZNmIDnPGMMa6291qx5zcAuv6KiqRypor905aLoElNbX4Oi4iIEzwsEDVChz1yhS8yYUV8jOiICOTnZuJR6EcuXJglgpy5DhYX5qg1QBnb5scEAzL5TjQYY2FWbox2msTZN5OZk41pGGlYuWYqIeSHC/vT7P+DLzwaJlVCD/OeCzHvOHGEzZkzH7wf8Uays6uXrhY3r1uHE+ZO4kHHZsHCSNXDG32VdttcAA7v8itUU2P/42w8x7IshWLd5PUKDglwK2GkVsBcvSnDvXi7CQoLNgJ0GnTosqbYXs51fM7DLjw21ljmftwuWOQO7anO0w+K1TRPSVH20rah4JYy6u9bVVQurriwHGQ1KJaPBqPQZzd9O/4vXzYZVSqnxzmHna+e6j89ToXmQgV1ewdAiSPODQkRL8tlL55C8JhmNjXUiIGNjY1yqS0zIvHnGRHTpwnls2rJRvJ48bTJAq8OpNJkwsKu37NSqOT5vJ2iOgV21OZrjxQnxotL6XBNaYWCXJ3gC9tiISAHs1Kdt25bNRmBfnpTkUsA+bswYnD53SiT9M6dOCmAn2KWpLsXqrioNcAZ2ebGhicSoUs2y72VoloGdgZ3jnTWgBg0wsMtI8NALEN20dZMQeVNTPZYsXSKAfX5YKGbPmInrt28aPtM3anbhJHrER5YQHYtr165i95at2LNzpzA0NSPQ3x+w5ypfPRxQDOzyYoOhkf2mKg0wsDOs9XDdoqr4YN8oJz4Y2OVVrtRyvHnbZmTlZoGA3d/fDwvjFyLjcirqKiuRmBCPZn0jGlu0C+y0smvBk/vYtX276Kt38fw5zJg8BZcvXxRL9UaHzWdgf+7YKR95Wkd58csVJvvNqAEGduUACcMhlwVroHMNMLDLq7gI2AlMt2zcKKZymjZtKnRNDYa52PV6PCi6Lwagpt1Iw6dfDkJtU62he0g/N0DF1tLYiIFffIaiJw/x5PkTUP/1F69KxU0L3bh4e3shN++OWOE0JeU40KLrXHwKD0wttrDTVGM0/Zi+tdkwvoDGGCjNFK4LI+iZnmdHPjT93M7/U/mJBgGaRq6xDo3NDSC9UgxKRq+pbGm6Wfpc+g69pu/Q6yZdA1r1zSJ3Uf6izyhm6fhkLVBv/HZYTh2VAwO7anO0xWXcUbnze1zuatMAA7s8YCfoybyegTXLViAnLwfxSxLeED+NED9y6hj+45f/JSBJ9OdWMazTjQYB+xdDh2DSpIliNpyGqmpjKzpV/CePHsXa5GRU1Ffi1PnT4gmDWpOq1oD929/+NgoeF4KejDTqGsT4C9NZEBTxP8GT2pIona+unTm4Kxh1RbuanY4xX3+N6ZMmIzs/Rzzl2n10H2ZOmgKaUpXyD51X8ooVmPD1GKzckCzmhy4re4G53j4YP3Ysjl5MQVNtLW7dvIGZ4ydj/LBRYsEX0giZjm7s1Fge1pwzA7v2y9gaPfB3WQ9K1QADu0xAaNGJRYFo2eHlq1egpq66U5HPnj1Lc8CelnH1NaS0g5NL589jxPivcSP7BgO7grrE9O7dG4OGDEJQeDBme87GvHmBirH4xHjMmTMbaNapY2ahthZ1XUsTih4/hLevN5YsSUR0bDTuZGcBep1o8aabPnsY3eyLG37ocTX9ChISE/Dr/r/BHF9PBAYG4OOP/4SYmGh8p993xToQI4cPxyx3d0ydPBm/698fvr4++P73v4+Vy5bhD3/6A2bNnAkffx/8w7/8E9YuW4Gf/MdPETw3AH6eXpg5cQoC5gVgy5ZNDOy93dBcUytM8zcuSoUUPq9O2YI1KZPf1KopBnYbClynx+aNG1BTVdFpQDU01Wt20Kl45N5O+AIqWvXYf3CfmJdWzQlFay3sffr0wdgJYw03WtSq2FE3js7eo5syqRW5XZl3WMadHafd+6YgGjY/zAilHR7Tkt/tge9UPn+BBaHzMdvDA5OmTMLEyRPhOWsWwoKDsSAyCgTLo0aPwpiJY22yKRMngmzCuHFYtGAhEpckoryyDKMnjMWd29kouHcXWZk3kXEjHQ8K85GVlSm29Do7+5ZYtIzWRsjNzRHfoWXV79y5Lb6TmXkDt7Iz8fB+gXH/GzcykJ15E/fu5OB61nX84dcf4PmLElV3a7NIR9zC3mn9ZZH/eiDm+Dxs4BQuH+3om4HdhkCQAIYgpJOgcDVg78wPanxf88DeiWY7LKsWveg6QUt0nzx3ysxSzp/C6QtnhHW4bze/I0G7p4+n4oGd+nzHBIehrqISVTWVeFVTJkxaVEV6bc9tdV2V6N5SX1+DnXt2YsLkCaiqKu8058gpg/b7UHcYBnY3uHELu0N11l53/LpzlmDfsG+okU1XW4fv9XtX5CY3NzdINmDAxzJjFR3+uZm/a73zhwwdArder0+QTrRv374YPPAztDQ3yTxZ68/DGDhSa2EXQKJlYJce0Rv90YUf1PgdLQI79Vs2tpRTy6JejyZ9ozAxELWTMszIuIbY6CgcO3MCp86cNLMzZ07h/NkzwqhrS1V9lWFQayfHaq8FNQF7ZWUZIkPD0KJrQk19tRHYy6rLQGZPUJeOVVZbjqraSmGr167GrOkzDCspd9FQ0N7H1r6mgay/+6A/t7AzsPd8vWph3rBW0/x9G1iHy0QZccDA7lgRaxnYtZ4ANQnsY14D+9MHD9FcV4dXVa9w8fIFUJcIWla7oqocL6grhEmSTl65QgxCpJZXujlub7QUN/kr+04W9p04KIDWdP+u/lcTsNMiaZ98+gl8PD0x22cOPHx71mKiIuE9cxZqa6uMg7278m13n0m+b/89GrBKfd+5Swz3YW+vDX7tWGZg/7J/O9UAA7tjxcHA7lj/dipsE9iU+x2tA3v+3VwE+PkJ+ExethyL4uIQOT8cUWHhePncHNg3rltnBPau/EnAvvf4Ac0CO019OHzQEIwaMhSDB38hpjilaU57wj4d/LmY/cXLvWNgpykYLZ2GkebvJ1in6R0JzknrdNMllS0De9uTXG5hN2pC0gZv1VuncdmpvOwY2B1bgAzsjvWvIxOQpoG9uVmAWuBcfxzYtxe0Mi11laHBjQGzvdFQXW3oOtN247NsWZJFwF6Qm4tNa9eZ7UtlRAOzl8QlGCw+AcuXL8WLqpcCGqVWXjX0YS8tL8X0CZPw6lUpqivLUVdT5XCrqalEZU2FmDc9NDwU5Kfq6gpDC3uLHuk3ruHwwQNIWJwgWv2vXEvFyUNH3igDESs0eLipGWdPn4LX7NnYvXMHzp8/C3f3mVi6dImYzYq+x8DOwO7I3MrHVm+9yGXnxLJjYHes8xnYHetfRyYPrQP7wSMHkHrxAq5eTcWqNauwed16PHv0CEsXJeJuzm0z4LMV2MmXk8eOx/zI+WLKQGrZp+41NIhGjcDuSN11dezImEhzYG+7oRo1dBjWbliLO/fvon//D0T3JjFWof2TprbZfo4dPoz5YaG4nnoF94sKsXHzBvGEhcqJfp+BnYG9Kx3yZ+qt17jsVFx2DOyOLTwGdsf615HJh+Bl6YqlogXVzcL51I0DOlv1sHQf0+/RvN4EsmSm73f2Pw0apd/80Q9/+Hr6PZ1e9D+WRo9LW5rWcbzUh12vR/i8YBQ+KBCjzr8eORKLly4WWmwUuQAAIABJREFULayHTxxB/r1cs0fhtgJ7RXU5ZoydhHk+foiJjITvbEMrsQTrtFVLC7uYGrM9CDv6ddsA9+jICHh6v25hp5VJaXDq0RNHsCx5uZiDnaZs3L1xi9kNl2mcNDbWITA4ELTq7Y79uxASECgAnbpCEajTdxnYGdhNNcP/q7ce47LTUNkxsDu2MBnYHetfRyYjAvawmPnwm+OF6dOnYcz4Md3buDEYQ2bJdzv4zuixozF69NfCLDnGqFEjMWLYMAHsxj7IFgI7rUS7YcM6rE9ejapXr5Caeglr1iTDz9sbTx49tCuwU5eOySPHwn+2F7xmeMDf01sMnGRgtzA+OgH2Zr0B2D1me4iy3HtgL6ZPnYr0q1c6BXaaDSgsIgxXb17Dxo3rcfjYIdBMPwmxC0SfdoopBnYGdkfmVj62hXHv6IYAPr5ZPad4XTKwyw+c5pYmkHU10IuAfcyY0ahqrDbMMd3PDVCxtTQ2YsDnA/Hw8QPD9bQPeHrkbmoOnHquJ4KrurYKN2/fRE5eDvIK73VrScuTcOHKBdzLv4v8/HvIK+h+H9Pj3s3PRVBAAIqLn3T7W7Qf/c7dvFzzGUMsBPZX5S8xw30Gjhw8iEePHoIGoVI3CbpBaW6oNzumrS3s9OSA+l2TUQuvadlJ0G5sYZf0015bCnj9oqzUsPhUT59LJ8Deqm/G4+JH8AnwRVxsLCKiIjBrlgfOnDppVn6m/qb/09PT8MlnA5H/qEB0iXGf5Y71a9YYY5qBnYG9vWb4tXxWYN+x7+yiAQZ2+UKibgvFr56BYKSzwiBgnzRmnCaBXervanbtbYtJvSp+htaGxi6hwWy/ngYgO/4e3bBRqyVtb966gbXJyYZ1Adp8QVDVnUm+aKqvE6tkUjcXaR/pM4u3FgL7iuQVePjwPo6dOIphX30luqk8ffoYd+/ewf1798xaaG0F9q7O3RTYxeqr0oJkdiyjrn7fms9evnyuKGC35tyl79IMMZvWrxfdrgIC5mLY1yPEiqknzp003kwxsDOwS3rhrXxGYN+x7+yqAQZ2mYJq0aHo+SMMHvYlTpw83jGw63ViQRpXA/b8O3cwasQIPCoodAlgNw1IuonbuW8Xdu3aYQBe/etBlRKYdrSlYzx99gQLF8aivOS5GSybHt+i/y0E9i6P1Q6aexLYi4uKcOvWTWRmOd9u5GSC7NadW2J+ei0Au1Tu0liJjp4QMrAzsEs64a1MRlBggwOXpcrLkoFdXgFSf+GszJtiAN3mzRuRdumSWDWSAkJUgDo9LqScwqatm/Czn/+XGMxHoKbm7jB07lKXGFqi3jjAkrowtCWnrKxM0CI7uTnZuHb5sssBO7W00/L1F86dxeKEBCQlLMKCyCjRP3je/GCEx0YgIW4hlsQniKn0IqMjsWhRPAb9YYCYDvFp6VOjLyWfWr21B7C3q2wcDewEiONGj8GCBbHiZidxSSLWrl0ty9asXwOy9ZvWY8+uncLkHkvab+vmTVi7chX8vbwxdfJk28uonX+7LeNOusR0u5+1v9P2fQZ2BnZHaYuP+7q+ZF+wL6zSAAO7TMG06JB2JRWH9+4ToL4oeoHYSq1Vl86eRUrKcQGsczw8NAfsC2Nj4OM+G08K7hugvK2velhYqGiNpO4wGZdTXQ7YTYOPlrGPCAsDbQmA9h09gIKiAjF/d3NNLUL8AsTKoNTSWV5XgVWrVwnYF91CZIKW+H2VAvuEyROMgx5N/Sj3/1vZmZg+fhJy79+1HbBJ3zo9ju8/yMBuizaVuG/bTEszPGag71vfgDSrktjywkm2x44Sy9yac2qr26gLKDXU6XSNqK+vgVgfobJM5Hdak6Gqqly8T13OxPdamoxjQuTmMN5PJp9ZU75q+i4DuzxBUGv5jt07cDPrBhr0DRj8+SBczjDMzHD96lWsXrkSaNaJ4B41bjSqm2q0N+i0oREx8yNQdC9fTA0YHhCEmbNmIvXSRZGwaOVM8VRBTQFh67lS5d9moQHzUFdZibrmOmH+Af6orK5AXWOteP2q6hWOHD+Mstpy0QeeBn8eTzlmewWpQmCnytDbz1usuGlrJUXxWKevx29+3x9FDwoxdeoU++iwVY9nL59h3MRxtpeRtTrjFnbH+ZyB3XG+tVbnSvl+Ww6/lpGGM1fPY/vObQiZG4hQ/0D8z29/g48HDsBcPz9R31GdN3HaJEyaOgkjR4/Ehx98AI9p0+Hh4Y6Na9bixLGjuJebA119PftZKeVrr/No0wnN1kV1DplU/xu3Jj0QbK3bqDFPV1uH7/V7F269254Cuhm2AwZ8LFNf6PDPzfxd60F5yNAhcOtlfpJ9+/bF4IGfGQb52asQLDgOgejmbZtBs0YQIMQtisOhQwdw6shRUBeZovuFokWOukcMGzNSk4NOqcWx4sULrFyyFJvXrkfu7Wxs2rIR+w/uE+AVEhJsH1CyoDxsDgR7/EaLHrUVFdixeYuAT/JLypEjuHz5Is5dPIt5AXPFrDH5D/OR/7hQWHh4GK5lZeDg4QPCqLvFvLlzUVHxSj68qhDYKZ6Ms8TA0O/fbLYhaeYYC7b1unoxoJJmMyJdkD/FjWOLzvDEx4JjvP5t2kdnTIS00qmS5mF3lO65Swx3iXGUtlRxXL0e/v5+YvVgakShLqD3HxaCWs+phZ3ig8zYLbSt/qCWdemz4udPkXk9AxdPn8GaVaswfMiXKH353JhLVOEHe9SLaj8GNZa06DpmmbaxXsR50pggoyakcWAE9Sb6II1Ir63eMrC/dqZVzmvVgxYxoX2a9I1YvjRJdGc4eugQvho5DGhuFndaWgd2EudXg4dAX1cvbO/e3di0aYNoYZ/lOUs+dKowyOkR6cb163Dnzm1cv5mB/fv3YvniJYhfuEBYaHAQyMJDQ7AwJkYY9WUnS1qWhP1794hl4mnlUepiVfzkkaggrNIl+U3lwE7jAGjmpZelJUZ78fwZLDEaFFrTWCPs00GfifgM9PcXlSy14tPnlhxH+g5NfVlW8UromcqBWtgZ2GXmTKXGNLewywcIpZaprefVokfZy1KsWLYURSWP8PRlsXhal5OdJfL7tWtXsXnXVrGGAa1jcOjoQWEHjh40Dpa/X5CHl2UvUPz4EY4fPISMG+nsZ1vLxQn7001aSfET3L6TbajXD+3D4rh4RIfPx5Qpk7E8cQnmzJmNgJBAYd6+3iCb7eGBWe7uggH27NyJi5cviLF9T548Ql3bAnVW1+0M7DIrn1Y95geHiACk4D22e7/hUQj0iIiNFP3bqDCotU/LLewEh7FRUcaWhhsZ6di8eq1oZZg8caJd+yRbLe4eDG4KagreW7czxbWLFl3oRVcX6c5banmhPu3Ugk4mvWe8Nmr9pQHLl87DfcIUs2MZv9PddakY2AnWyV/0pCFsXpAwmnrQ19/XIvOb6wfvWbOFb78cPFjEJy0ERY+kBw8ahMDAAIuOI/3eXF9fkI0fP05A/4NH9xnYu9Of2j5nYGeQ7ESzFVXlCPT1wx9+9xFoBej9Rw4gPTMdsUnxWLV5DV69KhVG62bQoPSo+fORcv6UsJ17duLHP/sp5sx0R8H9fOFjaYybxbm8k/Pi/WVymwx/Xr54AdNnTseOvTtx6PhhlJe/BK3PQnU3jWVoaqpHTX216EVB6+00N9YLo8+E1VajprwcV65cxsGUwwgPCsbKZcvkxRwDu/yCT1wYJ5xOXR68p7njzu1s0SIaGRctFoihoHIVYD+0Zy9iY2MweuQoI7BHhIQaWohNuhRoNdFQ6+3trFs4fvQItm3bgqioSMRERSIsKhwEkUlJi7EsaYmwTRvWIyo2SlhsdJToKhMUEYIFMdFIjI/HxZOncfb4Cdy6cd3xwN5WNvSYjq5BlE8H5eXoWWKkLjEE7NOmTMHte7eNN4F0A2ON0YJV69euAfXpo+sKCgkS/q+trTKbH9+SY0rda85eOoc7d3OgJWAnn1OZk4+kG0yp+w9VRr/r3x/PX5SYdQnSZPwysMuDBxnwo1b9nDp7EiePHxf5uLquCtdv38TJi6fFa4oVanzx8/MVqzdL10grB9/PzxPraUjv8VY+bznLdzRBxPqN63Ax9YIob6pHaLE68ST9ejpSTp3AwSMHsGv/bmGnUk6A7Oz5M8jJyUZJSTGePioSdVj+/TzxZJ2exsu6HgZ2+QKKDA8XTr9y+RJiwiMQFhwspvCbPGGiMXBdAdjHTRiHDVs3oqa5VgDNyuSVwi/BwUHIL8yTJ0y1Vwat5vOv0+qeFLjU0kKPSmmMw/Pip2iorRH+IWAyQpOt125JC3sbBDfX1YmBsI+eFuHJ8yeidfvJi6ev4b3tXOwC7B2Bd1t/dbp26sNOg2re++nPDIBugR9opWFqkc/KuYWMtKvGGxzvQF/8zwe/EfFIg1mnzZ4prunFq1Kkp11F0eOHFuuS+qzSNKUpp08IPau5Swz5iwbAk5HfaC2JFyXP0FRdg9Ymw2q0VJEwsHMfdllAYUHMqvW48VExYmE8ig26kfWYOBWvasqEQadDsO9ctOgM+Wj/sYOG1YY17A+1lqOc86aGjYP79sF9xgwE+c/FlJlTERoeimWLFuM3v/41dmzdisOHDyI9NRW7N28FPd2lAcehoSHw8vXC8JHD4ePlJcZEyPl94z4M7LYD+/b1G3Hl7HkBGVS5R0dHuVSXmLCQYFH5EwBQCyQNwCWBuTSwOzNRWwHsSbFxSF6/GlMmToS/pzcig0IRGRhimF7S5BpsBfYr11KBxiZsSF4jBuXSjcKFy+fFTYp0syIX2B+XPMZ3v/tdfPudP8fRk8fEMQnYaSwJVa4L4hYYgf2jT/4It3f6oO93viU+MyZCk2tt/x61QCsd2GlVXDpP6ppF/0st5e2vhYCd/EWP7xMSE+A+dRqmT5qMGZOnYMu2zWLwOO3DwM7A3l47rv76cdED/OdPfgo/9zkInO2N93/2c0ybPFlYsLc/xo4YhblzvDFr+gwMGfQF6AkzNSTomxotbhxwdR8r+fpF15eaSgwZMhilVS8E89CN2heffW72BLgw/55ovJWe4JaWFIOepFdXV9jeKMfALg/YqVJcnpQkAnHvrl3IuHLFMAOFXo9F8XEu1SVmfmgo6hvrhBXk3RU3LDQQlxYEultohzmwu4ApJQe4087NGmBfnAhapKipvk506aFWotMnU0Tfe9PztxXYKYl99OGHYh7zbRs24r1f/RKPnz4ydseQ28JO+5WUPsO7f/XX+Gafd7B5wwbRSk83izOnTMWR/fuxe/dOjJowRrSwfzZkENz69MIvf/mexQN/qNVMscAu5ofX4cLZs9h9aK8YvHz67KlOZ6MgfzU01yMiKgLRcTHGSuf6tTSYzoPPwM7Abhr/Lv2/Xi8mEzhz6qToCvGk+LFYlZpWpn7+skQYPT0lKy55Kr5DXSboSeq+A3uxOGkxCOzEzFNcl6n25kXqPkizBe3avl08TSEojw6bDxq7J9ZPadVj55atYlYhXWMDyNYkrxINIJRTbY4jBnZ5wE6Ol7rEHDiwT0zJJwpMp8fSRYkuBex+Pj44eTpFdDO4dydH3MhQaztNWcjALl9fsoPbCmCn2Y3KnpXA19sbG9auFfDrPn36G4OFbQX28+fPikE3wX5zsXBhLA6fOoqs3CyRwGxpYZd8lJ2Thf07dhpaOlr1YiYeGhx07PBh0MCxL0cNM/TXbmgQs/FQv0Rp3+62ygd2vRj7MGXWdCSuXQb3We5dXhvNlLN61Upk3EwHLYB24NB+7Ny+Dfl37mDvgb1iXwZ2Bvbu4kLxn7fqRcwTaMk1emK+eFEC0q9eEY0LdM3iWLomAWyUGzozyT+nTqWIPERwJ/c8pP2kY/LWCfVq283WixcloDVn/H19sWHDOrH6NY2TiotbIGzEsGFYkbwCyWuSMebrrxEbEYn09DRRD3X25NPi8nQWsC9+BEy+QzOzW+54Jc3DTuctAfuhA/uxcvVKLFuyBD4zZuHffvQjMTqYvuMKfdhpNU9qbfj5++9h8rjxZsDe2MKPA63RuF2+ayWwFxUUiJl+aDYVaiHymDHjjbi0FdgpYdH8/DTWY++hfVizbT1u52Yb57eV28Ju5i+pj3wbsJt+ZgrsBOtaA/b1yauxfO1KDB81HAsWLcTDxw/eKEPJHxevXgQNoqWb6hs5mZg4ZaJY5O3pg4dIWLiQgb1tIRJe6dTyulnSlpK2lFMk0JW7pRvXpMREoEk+9NMUzzu2bRUxJvc8aD+6HiX51xXPherH6VOm4FXxM7NuMB09PSHtSEbdYWa7u6O5oR6turbJHaxgX6OvnQXsbseALBpvZ8VJKwrYW/WIC4sU53/1+lUx/dzlK5fEvKtxi+NdqoV9flCIUbw0BdKKxUlCqD6z5kDX1GBVGVujB/5uJxWqFcC+bvVqTHWfJm4wn5Y+xScff4z8RwViCkNT/yYsSzSOUzB9v/3/Bbm52LR2nUEPJrFNXWI+//gTRIWFi1gZPnQoHj68LypUe7SwS+chHSswONCoO+q+JgG79D1rtopuYW/zMc0JPOSTz7AwIgqe7h7Ga29/ndSHneaSX7lyOTKupYnZDQrv3kVy0jKx8NnZ1PNiX25h5xb29tpRy2vKAaTfhLiFmDZzmrDp06eJ8Ro0ZsMSmzFjupjKj6bzGzfya3hP97BoP9Nj077CpkzB6OEjEBQYYPUxpOMFz/HFpLHjxHzgYoyKSW5VS7mo/Typ8XXZmhWiEVaqZyzZCpjX6VH6rBiJCfGiHqXZ0GT5w1nAfrrMOlini1MasEcGBAun5z3Iw97duwzL0kIPVwN2L49ZKC8tFZCWcvCwEdinjJvwRtcKWSLl5GRdcFsB7Ad27cbJMykIDApEZHQkrtxMQ1xCHGhWG9OyshXYacAWVaI5ubdR+KBA3NDSgkTSCnKU+OQMOjU9R/pfSqCuBuyFhfl4+vQx0tKvgsaR0Fz/7X1Dr6VZdUIjw+A+2x3UH5f61+7bvRujx402LtTFwM7A3pF+1PAe5QDSb+AcH2MjA3VtkQYB9vS2sW0VTAI+ub9N10PQTtNE0uByNZSDUs6R9CB8ZtUK17S6qWSG/U9dPINtu7cLYKcnHqJ7C02B3J3pdcZypymd6clms77RZD/pdyzY6vXQ1dbhe/3ehVvvthzV9kSQpjGW53Ni8Tf/3Mzf6qR1sAs4UxKwkwhobk4KpLrmOkTHRouCaKirwfvv/VLMiEHB6Qorna5OWoa53j5oqqrGznWbsGvtJgFOIeEh/BivCz3LCy4L4sYSYDdZLtmSfnWUaGhRCEo2XZ03zUV/+ORR6JvNu0IJkNY3G1Yc1TUZZjKhAZMmkE3ATonwf37xK9TVVYvYoviy1ige/cIC0aA3PN2hY06ZNEk81qZBQNYej75P8+muXLJUzII0ffwkQwJuO/+u/GHXz2ixtvnhYhU9MY8vVSht+qJWN6qUaNtdC9yFKxfEDD1Xzl/AV0OGoP9vfoutGzbiWdEjLF28WByTrpnnYXcTlaK1XaikMuHta332uC90elEnibzTqoPb81+o2oglKD8WFDCwW6MlmtmF1oj53nf/Bj/+8Y+F/eTf/x1y7Ic//CF+8IMf4F/+5V9k7U+/SfuT/fjf/k3WMf7ln/8Z/fr1w5/92Z9BdNkz6b7nUGD/VRrhu3UBrURgv5uXK4A9dmEsDqUcwbIVy3D+4jnEL4oXlborAPvatatRV1mJtUnLETM3BGmXLgnwWhQXx8BupcatjYkOv28tsLdBc4fHajv/1EsX4entiWtZGbiedf0Ny8y6KZbkjomMFK271rQCSZWqBOyrVq3A1cuXZIE1gebGzRvEkuESsNPxacaim9czxKh9OcC+dnWymAWCpi2VgJ36IlLLXU8ZXUdnwN5V2XX6mdTnX9qa3MQxsHMLe6e6cUZOs/Y3Gdit5itVl3cn+pCAnebFp8YmMjn5X0n70NPT/+9v/65nW9ipD7svranTiaM7el9JwE7nd+HcWVw8f05MkzZu1Nc4eviQYWof6HFwz15kpl3Dq9LnmDRlkpjykCpc9HNTtbU0NuLzzz8TM8JQa2X8ggWi9VGatspz9mzQTDE0ddySpUuga+HHdx1p2aHvdQXsX49+/ajPitijVuqs27eQvGw56EbM1BbHxWN5QqIw6pdO4xbEI0NLjt/22JF0Qgsc0aNCSo57tmxDVMR8g82fD+qjbYnFRkWJ7mk02Jm6f5CfKe5oJhwaFE7naslxpO+Eh4aIedwPHz0kBgvdv1+AEV9+BWqdvnLhAlIvGuxq6mXY3S5fEjcuaamXce1KqrC5fn6YNy/QsDCbSQu7LD0ZH/maPIptKzMGdgZ2WZqyJOZ74jsM7FaxlarLugs9UWPK4QMHsHP3DtHbQdQLzQ2i6x+tWaFGq62qxN/+P/9vzwK7HIEoCdgJSNKupGLfzl1ikaQVy5Ya+v1Kj8l1ehzevVcsRvP++78Cga5WgP2rz78Q01gmLogTfWbFo/i2Eew0zVFOdhYq6itx5vxp8Cwx1j1FkhMXb+zTBbDT4h5vfL+LhGf8LsGd1BJryVaKg+6O3XYs6t9Jc6TvOLAL1LedWhGoW4wcq6+tFkBLS0hLVl9VBWE18o5JXd1qysoRGxsj5t2luXfJaIGU2LAIsdz0wpgYu27jI2NA9sff/x60zDkZzQU9bNhQwyxUtgJ7F2XDwM7Aboz9LnSi2O8wsMvL82os627O+diRw9i0Zh2g16u6WxR166Kpw7kPezcF3lFSon6id3NugxYNoor0xfNn5gP1TKCGVhHUGrBTa2LZy1LzLi+tetAKlhs2rcfZK+dxPTODgV2GtjrSm1XvdQLsvd7qjZ/++Mei3zL1XVaSzfHwwNfjx+BKxhUsiIxCzPwIMW0qTZ1qrdGiSfOC53Vo1GJu7fHo+9EREWLlQrFAhkmZiinfTF5bVU4W7Jebd0fMGy89zq2oePUa2C3YX+75mAG7A39H7vnZdT/qCqTTY4bHDPR96xvmfUN7u4kpQK2ZBtSu56Z13zvq+hjYGdjbtMXA3l2jofnoUumVpgad0kC9qppKzJkzGw8K8zsNDuoaMmzMSDFgTyst7AM+Hyjmee5saiJqHQ0ODcaTJ4869QtXat0FkQ2fdwLsb7/9NsZPmQAPr1kYOmIopkybAi8fL/z8Z/+FeXPn4m///n/D088LXr5e+PD3vxPTPfb5Zl/MmeuN3/7hQ3z59TAMHzsKAwcMEPt9+2/+SnznjwM/FnO3+3h54e/+6fvi+z/8wQ9Ar73mzMHgLwdjxIjh+Pef/hjzQubh3//zJwjw88P7P38PY8aPgYeHO/p+51sICJuHwNB5CAoyWHBgIJRiIfPmISwsVBhdA1lAwFzMnD4dgwYPwty5/sL8A/1hLwsND8V7//1zMTVceEgIyMg3/T/6EO+88w769u3rMKPVYMkC5/qL36Xflq7b2m11Zbmy84AJsEvXLW3feruPsc8r5ywbcpKjwLyz4zKwKzvmOis3B7zPwN5d3EqIbr7VFrBbKCwtL5zUGbBzxdZdgDj4806Avf2o8jde0zRRbaBm/Ex6bbqVRqa/1fZ92krvSd/r1cF70mftpqMS+3Z0LOmYvH3t357yhVRWpuUo87ezs28pGx7agD0gKADf+eu/FPYX3/1LkP3VX3+Xgd3Cuk5ReZ+BXdkx14OaYmDvjjfMQV165ZLAruUWdkUl6B5MAIq/brnATkBGgGYKadJr060puJl+t6P9Td+TjmG6v+n/7Y9l+hn/37PQ3l1ZWVgeb/XqDcUDO+WOFsPc3c+fF4OstMRgz549Fd3+xNNRzjHqgUAGdvWUlYPjioGdgd3iYGho0m6XGMWDq4MTgWKv3xZgtxDEjC3q/P2eBWmV+btPr7fUAext0E4D6GlCAZqyUzLFxrmr5jdLrpuB3WJG0bq+GdgZ2C0OBgb27sTCn9s9Yer1+OjDD9GrV6/XLeZSiylv2Sc9pAFqXf9G7z7qAXZLQJC/Y3HdZ/e8Zo3vGdjVUU7WlKnM7zKwd8dYUicY861rdonhFnZOHDITjS0V3p/+9Ef0efsbr/ukS32Secs+6QEN9OrTG9/s844wVXSJcUKM2hLfvG83EMLAzvVuW0wzsHcTK+acbnzFwK6RhZOkWWK40uguEJz3+fX0a0g5dgwnjh1lYx84RQOnjh0DGa02yLnCebnAJX3PwM4xx8BuoQaMjG72DwM7A7uFAuLKzdZKlvri0oqj+qZGNvaBUzVgq5Z5f86HVmuAgZ3rWgZ2CzVgxunGFwzsDOwWCogrKKsrKH6kz9piDbAGWAMGDTCwcywwsFuoASOjm/3DwM7AbqGAGNgZ2FkDrAHWAGtApgY0COwBPr64n58H6HRAi7lfWqBDaekzeEyehtqKCvMVyLV6E0c+aOeHjuKF+7Cba+VNH5lxuvEFAzsDOwO7VpMnXxdrmzXAGlCKBjQI7MHe/riRlgbo9AYz8TWtur5+zRqcPn4cR44cEusKvAlm3YGbyj7X6aFvaOg25hjYuytXI6Ob/cPAzsDebXBpPsmYJFm+1u4SCX/OGmENsAZkaECDwB44xwf+Pj6Y4T5DtLKbLuYVHhGOrJs3UHz/oRhgTguBaV43Oj1yMjMROT+8y2tlYO8ufsw43fiCgZ2BvcvA0nyCYVjn8mcNsAZYA47XgAaB3dPHE/fv3cOLx0+RGBmL6spy4cfTJ1MwaMBA5N67g+fPniIpfpFY/Evz9alOj7XLV+JG+jXs3Li5Q03dupuFqZMn48jZ44BeD7fnv1C1oVUPXW0dvtfv/7L3nlFxZVm6oF7/6v4zM7+q+89bM2tNrzev+82bedOvu6u7uiorTWVWZkqZqZS3WIEQCG+EEUJCAnkvIe+9994hL+QFSICQ8F54D3Hhm/XtiBsKVJjAiYjgsNZZYW9wz9nf2ec7+2zztxjxVyM6FO0bOfLHTsegZxyYOXr/US7/AAAgAElEQVSHJ4qwK8LeR0D1tENUn/c8KdUYqTFSGFAYGCYYcGDCTpeY2vIK7N21C5dPn8WhXXtw4dJ5XDxzBrX1NfCcMQNNTfWOv9YaNCSsWgODoRnHDxxE0sMHIKHlHGf/12/diA0b1iF28UJF2Ls1EnTg6eYXw5Kws7y1y+SpQHPLR98z3QfNHh81DT+PGoXsvCzHVwjdgnyYLHxqDBTOFQYUBuwNAw5K2DMzM4SgNjbW4d9+9+/ISHst2Lz35AF27t4hRHVBxFw0NdQ5PGbrDQ0IjwoHUxhv37QZ2zduMvf54sXzH5+fP4e923cqC3uXc9jM0Ts8GZaEva21RRH2LoGiSK+y+CkMKAwoDCgMDDAGhgFhDw8INgefVlZX4MKFc0LYv/3mG1SWl5kJq6NiK6c4F4uWxkFrbxXCvm3bFqxZtwZ1DbWIjp5r7r/yYe9pbnXg6eYXw5KwQzNgx8ZNCPELgJ+fb5/a7BB/fPvjnzFl2hT4+vhI681v+fr7wifIDz+P/xVeHh4I9PNDgJ9fn+7F13c2ggICzJPBUZWB6ldPk1x9rjCiMKAwYKMYcHDC3tBUj7mhc5CXk4Vbt25g0fJ4rN2wFq2tTZg0YQKKCvIceo1mwG1GVgZWrFohFnbv2d7it5948wbWbFqHbVs2y/v8niLsPc1RM0fv8GR4EvYBsC7z6Of+y0d48iTp4yTsjTuNZhTYpk0bP14/APelFqueJoL6XGFEYUBhQGHgs2PAwQk7fbTH/PQL3CdPx5XEa6iqKseOXdtlfQ8OCMDbt+kOvda3a63ITE9DXGysnCps37pFNivEWXJaMjasWyvvt7W1KsLeI9frwNPNLxRh73HgOlfsJOxs6xPWf5yEvSTsjJZWhL3z8f3si0kfcaDuU8lPYUBhQGHACgwMA8K+MGqekFKS9eFG2Blcev38RQm45ebFzcNNEXaVJcYKxfCZyBcDK148e4qd27aBaZzSX6fKcVhaxhuwpb9JRVpysrTnr56BjQEqL588wYVTp7EhYQMaqquHR7qnzyQTtXDazvxQslCyUBhQGDBjYBgQ9gUx88SQpxv0tu3cJq8T1q4T67N5LBx0PbybmIgjBw+KH7+39yysXrYcCRvW48zJk8rC3iuZm43qHZ4oC3uvBrFz5cu0TScOH8GkKZPg7OqMRRHRmDM7AON++RVxi+Ok/Tz6Z4QEBmJeRCSmTZmCK9cuf8xQMwD34OiKQPWvc+ypcVHjojCgMGAXGBgGhD0yfA6yC7JR1VgtRF0n7G5ursOCsF84d9ZM2KV4UnMLWmrrcOLgIUXYe8XzOvB08wtF2Hs1iF0vDEnPk3Bg9x601tWjobUBO3Zsw+NnScYcpO0abibewIOXSWBKydaGBsREz0V9eYU5otwuFO4AjZXqa9c4UmOjxkZhQGHAITHg4IS9ubkBXj5eElz53cjvMXdulNHl1WDA/PAovM/M+Og+66Br6bkLZyXglu4xu7Zsg1R3bTWgJD8fWzZsVD7sVsvdzNE7PFGE3eoB7HwRKasoxevXKULQuZNkAYW61nqEhoeiua3ZPEGfpjxHYEigEHZ+p+ZDOeLiFqGu0lgZzSEVdD/HVo1J55hT46LGRWFAYcDuMDAMCLtvkJ8Y7ei/fvniBWzdvEk4gaerG0qLC818wO5kZ+Vafu7iWRw6clD6GTd/gdFgadCQn5ONrRsTFGG3chw7sHSLF4qwWz2Af7lAFBcXYsXSpRg7dgxiIqKwfukK7N68FfuPH5TKZifPnUJS0kOxrjOt0S8TxuD6rWtYsWIZoqIi4eLkhDlBwbhz7zZatWYw3ZGjTmTVr7/EjxoTNSYKAwoDwwYDw4Cwe87yFCNcbW0VikuLcOX8eSkO9O3X36CspMjh1/fzF8/hyJFD0s8Fc6NRXJCP/KwsrFu9WhH2XnFNC5Zu8VQR9l4NonFxYVqiwvxcMFVTXV01eBRWW12J3JI8YyvKRW5RLq7dvIpb925Jy8vLAVvphxJ8qChDRUUZ6hvrZMf5IOk+Tl8+i8aWBoef0MNmceoDrtTYKPKmMKAw4LAYcHDCzsworO2yJSFB1vGHz5Nw0GRtjvAPRn1ttcOv71cvXcKpo8ekn/7ePlgaE4tLN6/gTtI9Rdh7xQksWLrFU0XYezWIxsWkqaURq9aswqpVK7B162acPH4M924n4m3euw4R4pYuMZzMbEL2iwvw+NFDXLt8GYcPHsCSZUsweeJEvM97b/T56sM9OaySV2Ph8EpeYVeRVIWBYYCBYUDYo0PDkff2HZYvWYI9+3bj0qULYMXTqMBQNDfWO7QuZx7250+fQIJNoSF+fiwM7a3CiV5lpCjC3isuY8HSLZ4qwt6rQfyoVOm+QgJeUJQvx14J69dj7eJlmDB6DIK8ZiNsdgDcXVyxdu1qzJjlIdVMly6Kw7iJ4xAQ4I+1q1fh2rUreJn8AvX1Ncodpo9yUAv9R0yqsVBjoTCgMGCzGHBAwh4ZEILXaalGUpr6Etdv3xBS3thYh+9H/oA7dxKRn5+L2JgYh0/fTMJOo+PqtavFbz8iLAxthhYZm6t3rmNZXLzZaKkqnfakpyxYusVTRdgHgygaNLQ3NUNrapLCASxNTFKuW9htVqEOxlio33Roq4rCck+KV32uMKIwIBhwYMJ+9sIZBPr7dyDlsfNj8C47Uwj72SvnHf70XCfs8+MWAK0GkLAnp77Cxk0bcevBbWzfv9PMgRRh70knWLB0i6eKsA8GoWzTALb2j0JhkSU2FVj6cUzUQq7GQmFAYUBhYJhgwAEJ+5zAYGzYsA63b94Ua7IllgtLCrBt2xZcuXlVYtQs+YDl9xzlOblNXU2VpLNk+upjBw/J8xuJ12Foa0FqajK279oOraUZ50+dwrFjRyQgd0TJb2HPjXI11Dfg737ztxjxVyMwYsTHNlJVOh0mym0wNhLqN5W1W2FAYUBhQGFgKDDggIQ9OjwC2RlvjfVUDH/JTfIKc+Hu7obSytLhgTmDhm3rN4px8sTRoxLjZ7khefrqKQJ8fbFmyXKcPX9GEfYu56GFWd3iqbKwdzlgfzn5LIGnnqvxURhQGFAYUBhQGLASA8OQsLe2taCmuVZqswwLnBg0rFm2AgZDMxbFzO/gIqT3v7muDicPHlaEvVvuacHSLZ4qwt7toFmpiNRvDA/rgZKzkrPCgMKAwkDfMOCAhD0oNAiZmRliUdYJ6XB/PHD4ADxmeqCuolIs6J2Nh/Jh74lbWrB0i6eKsCvl2zflq8ZNjZvCgMKAwoDCgLUYUIR9WGCltr5Ggk5Z0R1a58RUEfbOx+Xj5saCpVs8VYTdWmWjvjcslM3HCdPThFKfq7FSGFAYUBiwGgOKsA+PNdQi2UZX2FCEvSe9YcHSLZ4qwq6I+PBQIkrOSs4KAwoDCgNDhwFF2Idu7G0M94qwK8KuJoONTcqudtfq/Z4mq/pcYURhQGHAwTCgCLviKCaOogh7T3Pbwqxu8VRZ2BXJVUpEYUBhQGFAYUBhYHAxoAj74I6vHeFXEXZF2NVksKMJq6xnPU1Y9bnCiMKAwoADYUARdsVRTBxFEfae5rWFWd3iqbKwK5KrlIjCgMKAwoDCgMLA4GJAEfbBHV87wq8i7Iqwq8lgRxNWWc56mrDqc4URhQGFAQfCgCLsiqOYOIoi7D3NawuzusVTZWFXJFcpEYUBhQGFAYUBhYHBxYAi7IM7vnaEX0XYFWFXk8GOJqyynPU0YdXnCiMKAwoDDoQBRdgVRzFxFEXYe5rXFmZ1i6fKwq5IrlIiCgMKAwoDCgMKA4OLAYOG8NBQtLcbpI0o+S3subGSZ3BYMN6+y4CmtQzu2DkYNhVhV4RdTRgHm9TKutbTpFafK4woDCgM2AkGDBrCwsMcirDPjYhA1ru3irD3knsowt7TnLUwq1s8VRb2XgJNLQ49AU19rjCiMKAwoDCgMPAJBiwIe5uhBe1aK9ra7LfRwq4I+ycytpJPKcLe07hZsHSLp4qwWwkwpXx7Apj6XGFEYUBhQGFAYeAvMdAGA+oNDQidHyEkl0R3zpwwBIUGWd1iIqIQFxWDML9AhPsEIMov2OprP/0/IX4BiAoMxfzwqD7/RmT4HHz/04/Iz89VFvZe8ihF2P9yjnTUGxYs3eKpIuy9BFrHQe1p0NXnarwUBhQGFAYUBoY3BnTCXt1Ug9ryCnOrKS+HtY3X1ZdX4NixI3jz6hWqqqy/9tP/sWXtejxIuo/S8hKr//+nv1FcXoySihJF1vvAoRRh70kfWLB0i6eKsPcBbGrx6Qls6nOFEYUBhQGFAYWBjxgwtLWADW1av1pddRW2bd7c59/QWprFyt/f+9Gv52ZEyfmjnK0Zi0vnz+PXUT9j/vwYaQvmzUNvWl+v0//H/HnRiJgXKa2/v8XTogBfX/xv/8v/ihH/aQRGjPjYRo78sY/YsGDpFk8VYVeEvY+A6t0EtWYSq++oMVUYUBhQGFAY6A4D9H+/dfkKTh87jvLKD9IqqytQXVsl7UNFGT5tZRWlYMvJycKmDRuQnZul1j075z719TUInOmDpqZ6NDc39EqehvZWcdEqqizG+pWrwXgEtPdt3vG3Kuor8b//5/+MEX/1kayTuCvCbucg604Rqc/6NmHUuKlxUxhQGFAYGEYYMGjIynyLsIAgaT+O+hHOM1ykjR39K4J9/KR9+/U3CJw1G74eXvj33/4WS5YvQUtLY6/IncKV7eJq1aLF/SLsNx4l4uje/Yqwj/3pF7S1qtykarLb7mRXslGyURhQGFAYsF8MNDTUYtWK5SgtLhTidmDfXly+fFGe0/K6Zs0q3H18HzV11SgszMfmhI2KrDuI0ZP5/KvKP2D71i14ePvOR7nSWm7QYGhpMuOAAc+ftt27d2LH7h1obW36eG1fxqZdg6G+AX/3m79VFnalTO1XmSrZKdkpDCgMKAwoDAwGBhrra7F06RJxiTEYmoWcOU2bhvzCPDNRS89Mw+qVK8yE7MWr59hzcC9aDP0kaX0hduoasxwGDA+ahuoPH3D8wEH4BPkhJCQYC+fFSPNycceiefOlhQeHwMt9hhS6YrGr6dOnycaOJJ6pRft1P4qwKwXXLwApxdC/CajGT42fwoDCgMKATWKAQZ6rly7HuB9/xrJlS3HzQSLeZWUiP/M9FkfPR2tdvTRa2NnGT5+E8roK3Hp8B6eunIWbswtmeXri7fsMm+yfWvt7z/9obT9+5AhOnT0JtLRKmxMSYi7SRVIeERUh5Jzf3bVnp3lT1+/xVoS99wLr96Ar5ayUl8KAwoDCgMKAwoDNYoBBpuvXrMHz1y+Qkp6C5OSXuHX7JhJv3sDlc+ewadNGHD18SNquvbuwY+9OrNuyAXfu38bZS+fw7MljPHv2BBkZadi7dzdogVfcwf751qtXL7Dv4D5xe6E7TEbaaxw5cqiDbJcsXCSEXdNaUN9YB2aKyc3N7vCdPmFBEXb7B1CfBK8Wiv5PHjWGagwVBhQGFAYcDwPtGhYvjsfeA3vx6MlDPHvxFIXFBRJEamhugtbUsdE3ma2ppRH1TXXSSj+UCJlLSXmFoyeOgi40xcWFjjdWDo5/km6ttRlZ795iW8ImeLq44dLVi5JbP+XZcyRsTsC506eFkGdlvUNBcT5Wrl6Ju3dv48mTJNy7cxs3rl6Fl4cHLl26ILn0aXnvE29ThF0R9j4Bx8EnqRoTNS8UBhQGFAaGKQY0YzDhi2dPcfteIhbHLkSQt6+0f/5//z9898VXiA4IRWhQkDQ/Hx/4e/tg2rSp+J//9i+YMcMd092cxUJ/6uIZXLl3HY0GlTHGHucTXZ2KigowP3KuuD/VVlTg0aMHOHH4COZHR0uLiopEWESYtPDQULAlrFmHhLXr8ODJA9xJuoeiimI8e5yEDavX9L0AliLsw1QhKcLdtx2uGjc1bgoDCgMKA46NARNhl5zZpkwgrHbKJvnYy0tRXl6KwvxcaQV5OWBjjnbmZWc6R92vvaHVmDVEEXb75FqPHz+Cq6cbHj9NEsLOLC1mXJj0gJyumOIYdLnrmxM9DzuDTotKCrEkdhG2JCT0bf4owm6fINLBoB6V/BQGFAYUBhQGFAY+DwZUtdHPM862gufa+hrcuXULC+MWYuvmTViyZDHiF8Ri844tWLlmJfbv3ytuMbt27QDb9u1bpS1bsQxsu3ZsR1TYHKxYsUyuvXD6NPLzcxVhtxUBq/sYXhNayVvJW2FAYUBhQGFAYcDxMUD/cz3Pum5pt8zDrr+nW9o75F43ndb0tdIpr1N52NXxZt92e2rc1LgpDCgMKAwoDCgMKAwMIwxo7a1gE+LdrklKR6ZzlDzr7Zq8r7/uEGBq+qzPGztF2B1/R9hncAyjCajGSM0DhQGFAYUBhQGFAYUBm8WAIuwKnDYLTrVhUFYbhQGFAYUBhQGFAYUBhQGx3CuXGAUEpQwUBhQGFAYUBhQGFAYUBhQGbBUDysKuLOzKwq4woDCgMKAwoDCgMKAwoDBgwxhQhN2GhWOruzx1X8oCoTCgMKAwoDCgMKAwoDDw+TCgCLsi7GpHrTCgMKAwoDCgMKAwoDCgMGDDGFCE3YaFo3aun2/nqsZajbXCgMKAwoDCgMKAwoCtYkARdkXY1Y5aYUBhQGFAYUBhQGFAYUBhwIYxoAi7DQunl7u8jevWobGxTu2OezluSkE5zhxQslSyVBhQGFAYUBhwSAwowm7nwDaVul29eBn2HdyH2f6zUVxapEi7LZN2Vjuz5ftT96bkozCgMKAwoDCgMGBbGFCE3c7JU6sBG5auxOEDB1BvaMDL9GQEBgeiqqocaDPYFtjU5BeZNDXVK7k4CBbUiZad608HwaEyACgcKgwMAwwowm6nQjZZ1hcujMXVW9fQbGjCiJLfoq2tFclvU/Hll39EVW2lIoY2uCB/+8ev8OrFc4AytMH7U/fUg1xMc+/Fq+f4ZdRPaG5uUHJUOFYYUBhQGFAYGFwMKMLew+JsqwA0aEhYvhoXrl4Uy3pzW7MQ9vZ2g9nSPtN7JkrKigcXQLY6PjZ4XwUFeXCaNg1v094gMjQMySTtNnif6p560AkGDanJrxAWEYbnL59h1A8/orgwX8lSYVlhQGFAYUBhYPAwoAh7D4vzIIOPBPvmzeu49/AuNK0FfN0lYaLvs6ltXLkaR/YfEMt6i9YMQ1uLEHZa2fm6SWtC+ts0BAQHoKy8tOvftOifob0VKW+SsWvPTrkX3o/+/7q8J4vr1Xe6wFKbAXk5WZg1cyZamxuBNg01lRUY98uvePbsiVWyUWPbxdh+TvyZ5t7zp08wacoklJeVwNDSJIHeXp6eKMzPVbL8nPLo5/+ifhMdR9dBXbf28zfVPO3/POU6xCZroZKL0ilqTn7EgCLs/VcwfVXSVEjhQSHwmzkLVy5eBH2b6dLS5e+1aUCrAcuiY3H+mtGyToLeVYOmITMzA//x5R/Q0FDb9e+aJgR94G88ShRi+dV336CopNDotkEXACpONXF6PQaUJ+U8bcqUTuU0ZfwEvEx+0evfVbL4zHgk/k2W9dETxxrn6W9GAGyaJnN3/Ogx3W+41fyxKZwz/uB//Ms/oaSo4KOeUzIachlxHaprrYe7u5usd8p18DPrOjUHhnwOdLm+K8I+NJMhJy8bgT6+eHj/Hk4cPYrTJ070TNg1AzYuW4U712+I2wsVW1dkne+TSFDZvU1/A1dPN5R8KDZalLqYkDph37p5E3h/M2fNxP1bicbFbJgTdhJvtvr6GqsnM4l6SUkhXJ2dUVpa1KmsqqsrEDFnjpyGdDlJO5FXY3ODkRxyE9fJ5+q9rsdFP8lqM7RYPXb8bsrLF5gTEoLKmgojUdcJ+29GyNzNycnC+DFj8aG0d25ojTU1gq1uN+tKxlbLyhrsV1ZXwMvbCy+ePYWLhytyst4Z9Zwa5wEdZ2tk0eE7bRrySvMREhaC23cT4eQ0HY3VNcpgpHA5tLi0lfFXhL3rhb2DIhlAgZ2+dBaRMVHIyn2P1rp6HNq7DzevXesakKYgtw1r12Lvkf1C1mnx7o6sW35GIkC/6RD/AJR35x5j0FBckI/IyAjzhmD90hXYvHEjWlubur6/ARybwRrzPv+uaewz09MQHBqMs5fOAVo3bksWY5Gd/R4zPTxQV1fdraw+fCiBs6szkp4+snqM7yYmwmu6GzKz3ppl1ec+Wtyzo/+G1tSEF0+fwGniZKSnv+l5vE2b3pfPnsLTyxMVkn1J+wvCTks751lFRRm8PTzFBcrasVy0YAGCg4NQU16uSOMgY5Ey4kmmr78vnjxJknmZnZcFL38fFJYoS7u1mB2U7xk05L57B9dp01FbXQmDoRncBM90c0dFUbGaG4M8NwZFpuqee15jejNGirB/PsLOxeLajauIj48TklXXUIvNWzdj1FffdSlU8eNracWqBfE4c+aUmZxZEvKenos7i0HDu4x0jB8/DvVdFVcykdOpEybC3cUVlY1VoiTPnj6FObMD0BuLpCNMfhn7VgOaamrx4/ff49mTx1YRdp0UuDg5dUvULeVGq+/4iePxItm6QFQGrJ45dxpeXjOR+OiO4MIRxnww+8Ax3rt9p2yizl04azVhp2Wd8QayabWwqos7zCevSQbZuCGQeAUrlDEJ+/GjRzB19HixJgrurLhuMMfKUX+7qaURv//jH/Ak6VGHuUmy/i+//zeUFJpIuxr/LtekwcBGu9YqxitPFzezXEjY9fnk6uqCtsYmaO3duIwqmX1WmQ0GDtRv9sBHFWHvYYD6qwTosiBWOgNiYubhyOljonSoeOaEhuLRowdYtXSZBIkyUNS8WNMFhddpGtasWolrN6+ixWBUWLzWkuxZ81wPqqKl/acxv4iLhj45WloawUaCwbY0Pl4st67urniceFdI+6uUl/AL8JOAVv2+9Osd+XFlbDw2bdyAqpJSPHv0CIV5uT0ez9LK6ubigrKy4l7Jqbq2SsbYGtJOv/fjZ06gpKoUR48fwSw/b1TVqDSeHbBoMYdKq8swc6Ynzp0+jebGeoQFByMr533XC5xp7qWkvEJEWJhY/Doj6J++x81au6FVAlAnjhkrLlEd7qkTfbIkPg5pr1NQX1uNVetXY8nCRTIfqQ/YGFDe028Mm89Ncmk1BdZzfKzpOzdb1HEMDn79OkVOQyz1JvUjY3acXJzEHdCs46x0OdN1KOVvzf043HdMcmlvaYGhsVGaNX1sbWsRjJdVlcHXxweV5WVmncm1UMaztRXv3r0Vy3trQ4NxXeytXOj+ZrpHa+5LfWeQeVEnelCNuRVjrgi7FYPUH3C1aWipr8fyJUtw5ORRsYS+z3knR7B3799BRX2lpPij//ijJw+xY+9OHDp+2Oi6YtCweeVa7D9iLIpkmQnGcrHpzXP6tNMVIDAsCKUfSmRxoRUjOzcLaW/fiEUjKiLcbNmY4xuIVw8fo9HQiPtPHyIsPAz0uXXkQCAuEqwWG7MgBo9u3Ja+0vLGKrK0tnepWNoMoBuMh7u7FK7qjVz079LlgrEDj58ldf1/2jWkvUvD6O9HIic/WzDFglm+3t7IfpepCmbp89UUKJqRmoqggAC8SHsF+v6/TkuFq5Oz0b1F/+6njwZN/Jv9Z89GeeWHTl1gPiXrlq+11mYh6zzOL8jL6VqW0PAuOxOuXjNQWm6cjwcO7MOGVWvMp2kkNV1i7tP7dvTXplPAZcuW4vylc1adLNHQQR0XERiCB7dvmwmhPuf0R2ZvonuMX6CfUWb8X1YQw7NnT2PGFCfBFa3CZqOLo8vCsn8mueRnvkdMeCSKcqzLmMQN1+t3b+Dm4SbuZLosPn2k/N5nZsDd1dXoHkPybfn/O3lOPb5p5xbs37VbMjrJmsX77OS76j01LnaBAUXYBxeotDasX7sGt25cl8Xl9fs0/Nf//o94/OihWM5I2OPmL8DazeslBePtB7dlIfLx9cE8/1CcPX5CyDIJM1NdfarIevtaV1rMHjPdZbooMv4vt5nuCPELwLoN6+DrOxsNTfXSbl24LMSQRWJ4Dzw6HjdxnBxf2gXAe6mceTTLjcxkp6lC2DhedRWV+PXnX+A2w002X3q/uTDrje/V1FTKgtJbmXz6fVrrxo8di5TXyZ0vLm0GyaIQ4D0bkydPwrX7N0U2bTDAw81d7oOLFV/r9zqcHtlv6bvBgIqSEvj5+Jjn0MWbl/Hz6J9x4MQh+c6nY8TXJF3JL1/g119HizXekohb+5zuNyyoxMbNAeMYOpOBfq9hISEI8PUV0sJrkh4+wC8//YQPteVQhN2oozk3czIz8fWXX2Ln7h3YtXUbGrTGTsdVH2vOz9r6Gowe+ROePHggbk2fzrdPX+cX5uH3X31hzB5jBWFPvHkDB48dkpiSN+mvRa9/iiv9fhz2sdWAytJS+HnOkiQKZfkF3cqF4yC6trJUyDrl+KkcLF/rc4lZ0jxnzOjecKLr/DYDtu/bib2H9iHAywdVpWWAYXjqRIfFnS7r4fKoCPvgEvYF8bGgvywVzev0VMyY5SHBZTFzIsHjw6qqcvzhyy/wMOmBKDhaHGhtX7tiJa5du2K0IPUiwNRSyXX3nIGTb1KS8Xe/+VukZRiD7/h/09+nI2r+XJTXVeDag5uYExQsBGb10uW4euGCWJtz3r8T9x6HUwKaJq4MtPaU5OdLX+luEjjbV6yx9BfnGOn91v0redxOQkbrD4N6uxt3az+rqapAUGhQR592k8VYNhGVlXByd0FzXR2WL12C3Qlb5N5KK0sl68zzlOdG96Xhosgs+snFn3J6mfYKM2a4o+JDqchy1aLFOHz4IC5eu4Rj507IdyzlSWLM149ePkbonFAheuJK9omfurWkXb7HHPx5OZgwdpxspHTs6I/8f2y79+0GZRcTGYUTp08IxrLevYXHTA/kFVpnrdR/01EfmfrWPyQAhYX5OHfsBK6ePW+ei131mXPU3cMdGRlpVs9LWtULixzlCtQAACAASURBVAswftok5BZ0fzrC/3vtymWcOXIM9ZVVWLd6NeYviZUNYlf35Ijvr1i8BCvXrcKHijIsjolFYVlh97IxaOKT7u/ljaqKD1bLpqWpAVlZ7+Ay3annlI9tGvYcP4D3ee/llGzN+jW4fvuG6AIxXFnoDEeUierT4HK7IRlfRdgHT6hr1q3BkYMHRUHkZWchbkmcHM1SWezcvg0M5hwz5lfJla4Ln4R97drVOHjkoJlQWEvyevM9Oeo1aKCPLt1caFXWyUNOSS5C5oRg2uQpyHjz2qh4NQ0bV6/F9UuXpD/PHichKjzcYbLH0CL2PCkJERHhKMjNkT4e3rcf8UvjZWPFY/WQkGCkvnsjfsaxMTFYtmIZEu/ewru36eKzPlBkXZcjXTHohvPmTarIgNU1Tx87jsSr18CsJVNdppsXn+jouVgct0hkWNtUK77wD5LuD0v3GJ4EnT53yhjcXV8jc25x7EKcPHhYAq4fPXuERYsW4tHjh9i4cT2WxC7C0qVL8OT5Yzx8ngTv2d5i6e4VMe+G1JM0ssqth4urbAgZ+EgL+tGjhyUInTmnj546ZpRdS51Uwz1w+IDIPL8oTzYP1hBHXYc41GObQWpIRMyNANPN6n2LDA5F0oP75tf6+5aPtbVVmBMxB3dvJ8pJmD6vrH2ku5lPkF+PpJ3ucj5eXjIXmw1N4CnO1OlTO92gWd6fXT9v12RM6ToYGhwsqYa5rlEHznKdIZvPLvvH1I3v3sPD2VU209bKg9+jpZ3z6e3bdEybNhWVxSVduyC1abj18DaWrlom98Nrd+3YLjFhQthZMEuRdjUG9oQBRdgHh7A/vn8fOxM2SxXEN+/T8OUXX8jxPBUFFQ5zNf/piy/NJFkUSEsrVqxYJserJB29UWT9+W5G2mu4uDh3yB7De5zmNA082mTqSQbq0Yo8btxYPH36WPrw/NUzbNu9HbR6yP3bsX9gSVkxAvz8pB9tzc1yjOoydRoSNqwXGbH/nk6uki2mtNhkPTJoWLooDl9+/eWgyYpjTgs/fbAXREVLpp8Th49g5A8/YCaPhluNAcPffPUVtm1IkIBhXRbR4REoLRg+WS/0DSctcCtWrRCixxOsBYsWwNnZCXWVlRK4nZGbidHf/ii+thwr/brg8BCMHv2LMdc+XSG6IeG9/YwuSlX1VYiOnYfwmEisWrwU9x/fx559u/HzqFE4c/yEcQ41t2DhwlgsXrUUJ8+cBFpaxaI8eepkiavQ73U4uFxQB36o/iDz8ub9RCEWxcWFcJ06HQvnz++SaNANhgaISdOniFtZX3UjgxS5UWKQPompPq86I3kMmPz511/Eks/PmxrqMGXSJNSWV5jx5WiuTZxbxCXdPDnmxYX5GPXnHySxAtePT8eJyRKI3/ySfEx3nt4vnYlWY3rOWTM85GRDZMMTSEvy1WYAg83HTpmA4MhQUG/zvm4m3kBYmOkEzfL76nnH8VPjYXvjoQj7J5N8AED66MF9ySyB5hYh7BPHj0eQrx/epqSK0meFPadxk0BfSX0BpsJZs2Q5riUafd178unr6yLU2XX837Sk02dX8kybxoAKeaaruxD21NRk+Pv7YdO69ZgweYJYCGtaaiVA9vqFi90uZh2U6ACM70D+Hn2NC4ryJd1lWaGxsuuWteslew+zrsyNiJDA4DMnT2LxgoUdfPe1hka4OzmjuqK8X4tPZzKxfI8+uAEB/hCLuSm4q7KhSnyet2zbggcP7klAM+V47+Yt88ajoaoaUydNRmVRN1YoG5NHf2TLufQ2NxP+3j6gdZXVfd093fHgyQOpLzB6/Bgh7Fu2b8GKDavA+ckx43V0g/H2nmWsCDyARN2S2JOwZxdkg9ljuAFkX0kgmFWIBZno4rFu2Urcv38XNXXV2LV3F46dOCqBj9xQctOh6wuHJ+xtBnErCfTzkzFjf69eviQbV2Zf4olJV1gpKM7HVKepUjDOch719Tl/j6RdP3nj/yVBlQBTzVjJ2MfPBw3V1QgMCcSBQ/vl3pg7PCpsjllmjkTY36QmY/r0aUjLzpD+0X0z1NtPThyZ/aw7wu43e7acPvRVHryOG2D+D7qbcV5wHov7msk3nrJhGuKc4lwcPH1EMBTqHyibX5nvTx7ih59HmhMvdIUl9f7A8yM1pv0YU0XY+zF4n5AdKnGtpRnh0RESnEmlQcL39HESGlsaQBeZ2Oh5mOXsjvSUFDCTBL/DtnH9Ohw5fkQIBRX7QGSEsVYhintMmwHv32ciKCTIaE0y9a3gXRZmz/YRdxAGfNFyVNtQg4VLFiGnMEcC4ubNjUJ+fq703V4mIxU+x53+54HBgZLijyRqS0ICLp4/Z5bLpasXEb0oBvELYqV/lC/7mJeTBedp01FWXCQLhbVj3dfv0WI4P2ouXr58LgSOGGHbumubBJ4SX7JoGTRcunQBWzcmgK4XJK6B/v5S5ZbfdziiR6sareFtmrgmTZ8yFfT/52I+f140eAok5KFNw9wF0fDynQVmGKHs9fGivz8LF7GAlSXBHujnPA1hlhpWEXaePh25udlmnBUVFSA8LAxRwWEfcdbcgrUb1gpx5/0+un9PrO8kHA4nR0td2qaJqwSD4Hn6xxSOF86exfKVy81jQ11Kn/99+/Zg3ZrVWL9+LW5euSKyplsbayb0da51dh0t7SGBgca0rm0aigrycPLIUfFfZzpOusvpOGSdDd4XdUVhTg6iY6LFOCOYM2HVXvRkZ/d569YNmVtMi8o+nT57ChvXrIWhuQkpb5LFWJWakSpyYbajJcuWID83G++yMqXqM08ruFZ2Ns7WvqdvmLiGspK385SpYkGnPn/28qnI5fHjR0jOSMHG3Vtk3rEwmZf7DJy/ckF0JzMCRc2L6rDeddZf9d7AcSQ1lv0cS0XY+zmAFgsNd/T063545w5qmmuxff9OY6YRnfyWFkhBIp0oyGNLKzasWI09h/eJpaIvOdatVXLdfU8IAFM+vkmVtIK08MnkMmgS2BgaEIjSvHx5zoDUVxkp8PCYAVqoWW0zNDxUThPsZUJSVvX1NfBx90R6ZppYVvcf2o/4RQuF5Or9uHHtKr798c/ST/290tIiKb7T3XgOxme0tI8ZNwZPnz8xWxfrm+qwbO0K3Hl4B+1NRhKa/PoVXNxcsGVTgtm6FxgYYMaX3g+HeCQBMmiSajTAZ7Y8p68qs64sXxQvxID9JLHYvGOL0Q/adErB6xgLMGHCeLFoDzRB7+r3mKedm4iZMz3NlYdJNPgeY1ruJyYaNxOtBrxPT5cAO+YO5+eJd25hXlSUccNhoXscQpbsT5tBsnkw8FtSqBo03L5yDaN/GGkM3jfJbtL4CVK2/vztyzJW5cXFiI2Mxp+/+gaZ79/2iwx2NnfFPSY/R2RBd8dgHz9xrdiyYaO4wvB0RmSgabIh3LJ6HU6dOiEyY/YoFlErLTKe4Inet1PZ0aJNow6xyBOs+eFRkoGHvuTsV+qbFHHxCg8NlY0pv8fmNHmKxGbQUNLZ+PbnPf4+x5gxYowNCw8Kwc2b10FDkoeXB24+SDTKobwcY0f/Kpm0Tp0/LbqB1cZ5esnrHWYO2Sm27Gb8aSQyxXDopzqd3rvpe/KdT921+iojRdgHjrCzimnClgRxm9i2bwf+73/8R2xL2IRTR46KL+W4MWNQ9MHCF9KgYVX8Uty9edNMrIaKsFNhykJC95iMNDkulEI8pgWSqQ15BDpjmjN+/vknafSbXhm/BExFKRVcF3V9TN0poPsK2gG4jpYZZu+5m2hU5kxzuWrtKuzfswfTpkyRxejy1UuIi42VjQg3JnofXJ2Nafr6s8j09VpaaJmnnZl6eD8k7KU1ZVi3fSO2bdksRZ4YAMejYFrfN2xYJ9hKevkEnq5uHTYeen/s+tFE2J1cnYwB0gYNqxcvw7GDh7A+YT2YvYL927h5I3bu24W2VqMbjJCLVy9lTEjwuyLXg/G+fpxP147xk8bL8b5O2Oku5x/oj317doMxCCvXrBSXKy+3GVI/gdb1G3du4sbly2Y82rX8LOYyx4V9obW65kO56KPDe/dh79btksZU/NZN+igyNlos7BwPypKBn2N/Hi26iwSur/Orp+t4EjLxlzGSE1zXl9xYMBsY/ezPnThpjCNpbcWl65cxb2GMkEWe3vjN8jbrWHuTGS3azAAz6pefkFeQK31av2YNXjxMQvrrVNB1ieNB10F/X1/RMzpZ5yNdK+li2dP49uVz/f+UlRTBz8+3Q0xVXmk+fvz1J2RkpkuQd1ZaupxiL1+1XOYR5cAaJF9//ZX0T05JLDBpb3JS9ztwfE4fS2KfKUjlhKwbbPA7bPp1nT2SR8h3+krgFWEfOAFv3JqANWtWSeaJLTu3SsAS/YsPHT2E77/7TlxjdCXPx4T163H0zHEhVNyF9UVZDcY1VFqsiOrj442y8lIjADUNBVnZcHd3+2iNMGiSNWbv7l3SZ6bCo8tMZ0C1mfdMC/79O7exeNlisHLew6cPJTMIyTDvk1bXL/7137E6bon4QdLqx/fp9sP87CUlhUMqKx4pB0WE4GXKiw5jHRsXi7XLV3Z4b2HcQly/dU0wduTIIVy5bXxubYVIm5FbF4qSJO/EiWNg8RreK/2/Gbgt992u4d7VG5g2biK27thqtLaz4IpBw+uUZLBAGP3HZZEeJL/17gg/752FtsZPHC9ZZPSxJgGZFxGJ/Qf3ST/oylRRWyGZiJ69eArGL7BIlhQ6s7LSp/7bNvvYpoExIf4es0D/aI7BwYP75USEJxIk5gdPHkbs/BiM/2k0WBVY7wt9zAOCAySb0mDoQ8vfJFYYexQaFCT6QNfnPP3iXOOmmMRW7s2gycZx1Yrl0h8WyBo7aTzKa8rN9673wdYfi0oLwVPW/JxsqYa9aN58MM0m75uEhtV6d27agpVxxg2y3v/ivDy4ubmCZNpyHAfjOetX8CSKyQKqP3wwbo6gicsLs/awujHjeigzJlLgqTCLEnIe8lQmOirS7uRi67hxhPujLnqT8VqqZJ89cRLbt25BQsIGcW/mGrJh7VosXRyP1StXSFsYvxBsIf4B0vbu2iWGsyOHDuLa5ctgul5JNdzFmtbtmCnCPnCEvbOBbm5rFmsncwHryp052Zkice/+PbIQcTEaDAXW198UAmNyjwkNDTEujiaik/vunVRjlb6ayK98vy/gG4prDJoEhy2YEyXyqK+qktRtdPPRS8DT6h4TYqz2qpN1BqZ6eHvK4tTXcR3I60hYxkwcBxa00nFHxUJiunH7JkkVyoq2L549xbhffpXMDOwjLbo85XEEwk5rRWpaCpjdhYW+6N8/ddwEcyAZrdZrV6/Cwd17zGNE14aXz5/h119+gZwgDQFRtyTxlBmb98yZQmooS/09Z083XL16GW/fZYhv8N1Hd6V8O/UFG69hFhUSJh0DdvvYpoEW2+smP/TExJuSpYo6UyfsqZmvJeCd46OfeDFGg7UtWIhuIOdXT7/FOARWsaUrjuh1E3FllVT6SIscGNBcXgGP6S44f/aMxDFl5WdJylU96Nhe5OXt7yNFq7h2sWgVXYGYHUzH3q2rVxEy278DDotyc8VtkidYPY3nQHxOwk5s8OTKZ9YsVJWZNk7QJJ6AJzc0ROnr8LuMdEycOAFXrl+W666cPy9uNfYiE3Wfg8vd9PG9fvManGe4YNvmzbh+/qKcrjE+TD7vjgOZPuOpLosgsh3YuxdMCc0TVP33e/WoCPsgC73NaLGl0HVFsSZ+Ka5cuwzm7KXvONtAKKyB/g265zB7zJ/+9I3Zr5tEce7cKLsuDEL3gqjAUKxZtkJ8S91dXDFh3Dj87o+/x7/87rdYEhcnx1/6YsQJxUwEXAwGeoz783s8omOu/FepL2Xy835pLWIWFKYMPXLsMB7evyeKYvTY0Zjm6oTth3bDycvNIQg75cL0cMyjvjx+sZDwyNAwqVL5xVd/xH98+QfsO7xfxkSfe8xpT4sfybz4Fg4xYafMeERKH9pxE8ZJnml5r90gaVSdpk1DSFCQ6IsLl87j7NHjGPXDj1gWFw9nV2eERIT2TfEPxWa5s/9pWtQunT+P3Zu3SjGc2zdvynybGxmBhcvjUNtSJ4Xc5sXNN89LrakJhvoG/PDnP+Pt+4zPPi9ppGBxpS9/9wdj0KK+OBtaJG3n9bs3sW/zdkz9dbxkKQqPCsexk8dEh5y9cl4KeJHIWuqYXi3cnY3lYLzXrmH5gkV4/vCRrF/0DV+9YY0UJLvz+J70hwHBTIlL3aMbezjfZJ41Nwq++6PnenOt6EBDixRKYiCqPu95Xzwt/umnUXj+8hlWr16J8OAQyRBG1zOmiWQV1FNHj4FBtT25NtikrAZD/uo3xThw4folqZVBuRPnrFDPdunWFWnUzXSzYmOWqKu3r+PcjYvILs5BQ6uxdgD5Q2bqa0lyQZfcPmFIEfbBJ+xMF6hb2OkGc+HCObGQtWjNn32h6Y3yMweivk4VhUw/TGYrYTYLWvj6BLghVgBU6C+ePsHThw/x6sXzDsfaJHB+AX4oLisyLj7QQJ9V+kdzce7N2H2u7zINJ492X7159VEeLa2YGzJHspDoMqKf+9u8d0jJfC3FgRzBws6+JSU9lFMEniQw57Jufc4qysbYCWM/FvYyaFLZNzx8jizmllZuW3hO6yDzx5O00+WKfaOCZ4ucG/mReBg00M0g+eUL6Xda2mvbJ33dzXmDhuz3mVi4YL70kakTFyxcIG4lzMN+494tMA1gVGw0ckvyzBhvbWoUF4fcrPdDNi+pL6gfggMCxFVEyGG7hrqGWoREhWHJ/IVGuZn6HxAUICcllCkzGN26ft2sZ/R5amuPV69fkaJi7BuL5dHYQct6fWMdTp4+AR9fH8TPjzXLhcT4Q1GRyGyoXAep4znG4h7D+iKVVcaNBN1jyorgNHEyDu7fZ543rLT6048jUZSTK640ni5uknHG1mSh7meQuVo3eook/fz5s5jtMRNxMQuwa/9uHD5xBBevXMDvf/c7MCMRT27Z6AbNCr5MEHDq7EmJnYgKCEGwpw8O7ttn1AnKh/1jUKBNAbvNIEe6DEpiMCDdYGhZJ2Gib+rnInZ9/T90IWBjIGp0ZKSkPGQlP0chfIIVcfcxSCGbrdu3mhdRBlcxywCVf1/H73NcV1ldgV9G/YTk5JdGqzGzNSS/wvZNm80LKeVl2Yg9m5on3ShLa+9T7x/n1+nTJ42p9dpbwZOi5BfPMXnceCmDbgsE/dN74GkJSTszbzDjCIkgX7PRR5+pOoUQmuajtWNi099r09BUXwdXd1fk5ufIczcXF9lYkQwzDeabzDfwnOUpRadYwZeWT/qIMzCXNQdoaf8cc6y7/8GgRS+vmSgvLTESw3ZNYl/oM01XGLposHGT5ek+QzaM1CnMTkJ526KVnQSF1XlZtI2F5JgSMWCWj6wF/IxziumKYyKjBKNyWtWuoSA7W6zvjTU1QyYXjqc+d5iZx9vLC5WlpUbd2K6hsvIDZri5CbliPFBBXg7Sk1PkJIu+7UywMCcoWFxB2U+bnkMDoDdV/3q3EfD1nY2yilLRSVxrxv76q8xjnSs9S30hmbz4GduL5OeSCZCY1L8j86UvslMW9t4Jq7fgpg87rX5LFi7C5WuX5Hl3yt9WPyPQSAL//u//3q7SN1orLxKBpy+eyG5YJhY0CTClr6ytysTyvriIsqBVSsorI7EzaFi+1CIArC/KwV6v0TQ58n705KHMt6epzzFlymSj3/MQu8B8StQ/fU1XHaYbHTt+rJkokBDSfUsIu73KpLP7bjNIjYc1W9fj5JUzYr2d4eyCqS7TpcVERAnBJbk1z2ODhq///CekvU6xmXlJ3VhUUoh//ed/NpJ23a+11QBff19898VXmB84B4GzZmP7nh3SJ6YfZLwJq7Ga+9bZGA3Re3TXmT7DBScvnMbpc6cw4dcxmOXkjtmunvj6T1+DxZHmzYv+uNkw9dnDxVUMHpa6aSifEzucT05Tp5n1IsebpP2f/+mfMGnsOPG9jwgMQXhAMH7+YSTo3sBTg7iFsXbt+mmLuHKEe2KVemJF9JJBw471CXj+5LF5Hh/csxePnhldyKizeao7YJtyRdgHj7DLTl9rlgIS5y6fNx/XD6UC6+v/lp2hQRNgspASrVwDBsIhWpQslQf7wkWKuXtpWXdyd5FFuK/jNRTX0QoWGhkmlvb3mRlgARfLPg6b55omNQP8g/yRlPIU/mGBklLuU3Jsq6+5ELCI2YRJE6SYE/N5nzt3xrEIO63Qba1IvJ+Im3dv4V7SPTx5/hjVTTUSLPguLU0sV3SX0TfQ1XVViIqKRNqrZLGWDsUc6+5/krQz5SozqcjmivUBqmsQ4O6FsrwCNDcYXZx4msAFnu1h0gMp6mNrc5O6kNVLkx4+kIJddL1iylEG32cX5eDXSeM6kFlmZWEl7A8lxTazkaKsOJfYWFzJ1dXFmNvftN5QDqy7oeOLMsh88wbPHzyS0wMWgaJblq3JRt3P4HE2a8aWc4OF78ICgxAZPgfeHp7w9vVGdOw8ad9/+52kg+ZnrL+wNCYWR/bsM9b66C/XUYR9kIRvsjhs35Ag/nLi821DqRu7W3i6+ow+7SS2LK7EypDlVR8cS5m1azh+9Aj+44vfg2nauhoHW36fR++Tp06WAl2s5GeNAnK475gyGrEaJqvYlpabXBVs3LreYQPRZkB+WQEWLFmI2YG+w0eOphSqdMeIio6SftNdiDm8IyMjJGDQVucfjRqs/unl79MhELW8sAjrVq+WolB2PdfaDBITcvz4UZw6c1KSJXBdS8/OANMmDlae9YGQN0+uGCPCzD4VJcYiT7z3XXt24vypU8NnfvWXMA7n63mSlpsrMTbMMMRNOV3auCHkZpbP2Ujo9efcDLJWyrPXL7B8yRJxGZPNfB992A3txoDX3/zmNxjxVyMwYsTHNnLkj33EMTr9G9Hx3d4T5XETx2HEf/p4g7zZv/7rv8bYn34xFkSxETCJ5bnVIEWRTpw+YdeW9U+VpfheGTSxWEyaMskmrUN9WRTpEkNiwKPTT/tsb6+52Rg9+hfxnevLWNj9NZoxwJTH25J+y56IusW9Mg0n2+yZXuY0hnYvGyt1NPNiJ969JQsQF8A//uEPSH+bZhdzk1bof/73fzUTQ/pFM1BNMqhY2X9blTOJL4uQ3btzWwg7T0SYrcjWdSR1u25td3FxBppbZF1mEH5c3KI+Ep3ecxhblau6Lytk2dqK+KXx5tMzId5WzGemi+bmkE1OvWnM7SthZ02O+koowm7FwFsFalNQ2Pq1a3Dp6kUhgQxcYbN1pWbt/QnY2gx4lfISkydPMhYXGqjxG6LfYbYVpiErLR7aokjWyqC779HVgP0JDgyUrBRW4XaIxn1A780091genX6DtPh1sFpbkGF7eJ9ZpLjhYDl4VydnCVwc0PGyYZlTdv7ePmDwYmhwsASlkix2h3tb+Yz6Mb8oTwLWeVJQW16B7du3OgRhpzGKAdELYuahurIcQbP9jLhss83UxDomeN/Ui8QQEyi4ObtIVqnjJ49J4ZvhMq+GWz+ZXIGBnwxgl5oqPMHrZdOxwzoYdx/cMQcvc57zs56azv/4ePL4MbmeWOR1vb0XXscMTX/3m79VFvZ+g5m7JoOGLQkJkvaHOyrurnSl4UiPdI+hxYLVNudEzsGHyo9FKvo9jp+ZSLAIirunuwQiOZKMGFg1y2dWh+JK9iabXt2vQZNMHN6zvY3VJu2MoHe1iSDJKC4uFAJLstSrMfnMc2kg741VaxnsyPSr9jYvaU2nS1pgeLDEleS8f+cQhJ3y5TF/wob18HWbicryMruTjfi0v03H2g1rJSUuMxHpBfIGEr/qt6ywWg+yfmLmsNuP7kqGMPqcs3kH+vap/TLuV/B0RvzW+/gbNAqGh4bCN8ivT/fgF+wv2Yz+5m/+5i+8TZRLTC/ApO+W1q5YCfr4kawzYMVRCTsXUB5Vs7FsL4FIRWhPSopuMPQ1c3az/SPdvhIWWmgnTBgvQYz2JJve3ivn3+uUZIwaNdKYxchByDpJPDMV6XNt1gxjmtHejo89fZ+ypE/oDCcX2YANZYrAvs47/br8wjwp4MVgTHt3iZG6HJpBTq78XD0Fk3o/7elRn0t0LZgwdpzEYnEtsKc5ou7Vus0ACfveA3vBQmaOMmbkWcrC3gty/heCNwW5bVyzFtduXhWyzuMSe1Ji/blXLkRvUpLx86hRYE7wvxif/oztIF1LUkBfb1dPNznS7U//bf1aWtojwsKQ/NqiuNIgjetnl32b8VSL6SxDwkKMFXl50uVAhN3cF02TYlgu051QX1ttF/Ost3gwtDTJxp/pEOm6YOtzq6f7o24sLMwXyxzdY8TvlT6sdjj/aISizzoLWZWXl9q9bEh8MjMzwFSUaDUYZWOHcrFHLH3Oe754/hz2bt9prF7LtcGOGw3Ayoe9v5PU5Aaz/+A+c3BBT4rckT4Xy5FBQ0baa8RGz5PCIPS1+pyTsjf/i2SdbjBM3cjKrY4ki676UlFRhiB/f5FRb8bK5r9rMEh9AKbVIokwk1tHJOy/GSFkNj8/F75es1DiYO4xDAxsrK9FzIIY3L2dKD6eXeHZ3t6ne0xQaBCK8k2kvb9rzue+vk3Du+xMzHKd4TAGDhJ2NqZ8ZAXXqlLHSlVs87r7M2FYJ+zCSex8XVBZYvoDGlpKWlqRsHYdDh89ZMzZOows65aLJo9LGVTx5k0qprs527R7TG11JXxmeA4Lom4po9raKowfPUaChR1Fmb9OT8XEyROlHLxsHO1cIVuz4SCx5bG+98yZxsqt/dFhNnIt+1RXVw13V1cp/mWJW0d4zpSPzPs9duwYY3yFjYx7j3rAFJfFGg+e01xEZ9Lf2xFkovcBra2yXnl6ehjztPcji0eP42kvcneg+9QJu9SSsff1QeVh79vxJK20xPAr9wAAIABJREFUPN5cv2o1rly/LJb1Bq3RoRSZrtB688gxoS/x+PHjbM89ps0gWXsCPL1Bi3Nv+uUo32XVv9CgIKS8TrbZExBrF73XaakIDAk0knV7V8S9vH8Sdlra3aY7oaWpwe5lScI+08MDL549deh5SZ/2iRMnSAEia3E+pN8zuZwFBPhLVhhH0YOW/aDllZb27Oz38PGcaXSNMdUDGNKxdyDSPJTjqAh7Txy3Y8J1/ZXD5WHfvWMHjhw5JCSQ6YMcOcDUUsF191ysnG0a3r7PwJyIOeJyMpSTVf/f3GDRh9Sd6fFKihyaFHQnH37GzUqAr699knYSiDYNtKyHzAkZFm4wnVndSXC11mYh7TzOJ7YlKNDOFnn2g23uwnlSUZPPe8KvvX9Od7zgsGAjaTfhWfxqbUl2vC9NQ2FeriQUKCt2XJ3JtUGfT3TrdHdxReWHMlPKvZ7IjvpcX2Nt9VER9p4wqlP0jo8ORdgPHtxvzK1rOj6z90VkMO7/+atnUq56qCcyLShMP+bn4+PwZMBaOdL9YNLYcXiZ/MK+rLM8wUl+hdHjx6C6tsrhfdY7I+uW77UbjNZBX29vY955WyJ9PdwLSRJxOGv2LDx4cG/YzE0SYfq0OzlNR2VpqdGiy8QFPYzXZ/3coKGqpBSzPD0lWM9avWLv36Olvbq6An5+vqivrFKBqLaEyT7eiyLsPemWjkRdf+VQhJ2ZN6Y4TzMpW8fy6euv0qXFgs3bexbuP7pnEwuRj5cXamoqhw0psEaGDU318J89G9m5WTYho54ICQleWmoKZnt7g/duSVyH63P9OJ952ll5WAKr+riw9TT+A/05UzdOd5mO58+fioXTGsw60nfoHjP6x1EoLSgQa/ZAj2+/fs+gITQgEA3V1cNKZ+qBqOXFxZg1y0vWd65l/RpLO5mPjtpHRdgVYZdj+ZycLMyeNWvY+kN3tXgyXWJgYADu3Lvd5xK8A6E8mtua8T7vPTxd3FCSny/Kt6t7Hq7vM9PI3Ji5kkt/IMZ8UH7DlDY1880bRC6YayzSxSP7Xvp9O/T32wzIynoH12nT7SJ7DIlRTGyMQwaYWqtL6NqVV5Ar6UgLivJtgxQaNHwoKBTLuiNUfbZWFp9+jy5KNxNviEGDlWolHaci3raB0V7KQRF2RdjNwK2rqQKtt/ZY8e1TJdXf11RyLJsbtyQOSc+TzGM0KCTOiknLksSrNq7BqzevjArXMHxy4/dGls+ePZFAuKGSU4//10TYx4z6GUlJDxVR72KjQhK8a/9u7N27e8jnXlcypbWS9xkQHIDExJvDynrb1ZzMyn0Pdw/3oc8e02ZAWWGhBF5SRl3d73B6nyfEQQEBIGlXlvaeiJ9tfq4Ie09y0Z1gOj46lEuM5YJEP0yS9uGkyLrq6yw/bzx69MBmLBIs6z5j5gy7LG/e1RgPxPsS5GbQpHAIj37pnmCJaZt73maQVIbTZ7ggPTNNkXYTaWcqVVZUZnua9Ahz54SjvanZJmXJuUgiOG7iOKSnv3GoPOv9mZO6pf2rr75ESVnx55cdT6sYi2XQZB2jLuhPfxzpWhgMkneeFYb1MZLEClYYjGxOhw7Te1aEXRH2v1CqdI9hUONw9ZNmusDggADcuZNoM2TdUmHGzo/BvTu3jZH/wzRXvuVCylzK796mIyxqztBb9qxcSFg+/ENFGcKiwyULkUO7uHRhRf+0zyTsrEB59sp5xC9aaKzYyNzZVo7p5/xeS0sjoudHy4beEovq+W/FdZA+7YHBgcgrzP288mszBphGhc3BcHaD6QyH+olQamoyZji7oJGBqNzg2OD8UvfUuVwUYe98XD7ipaNlXX/lsBZ26Xi7JinmZs2c6TCV4DpTYJ2911BXg8Vxi/Dk2WNj8JStZTwwKdf586Lx6vkzQDPIAtlZXxz9PRI8ph9Ne/sG01yd8KF0CCx6/VzsWNHU2dXZ6HdvJbH9lOja+2sGl7I1tzbh0eOHWLgw9uPcs1HCvnhxPPbu3oXG5gYpskYsOvp8603/eOr1+NFDeHp5fl5C2KaB61b661Qlj5LfdhgDEnZuNNnuJybi4sXzoNX9I9npiQypz4d6rBRh7wmDOkXv+OjYhJ0kRNNkYpMI9UZR2/t3ebJA0jDUE7On/0+CM2n6FKS+eilK197HvS/3T9eJl29TMGrUSDQ01Nq8zLqSKV0rJkwYj7fvMoalewwLJ3EMnj95jAVB4UBzi8372DY01yPE209OBHgqwNYXDDviNWJEMGhwGT8FdB3qCveD8n6bBlYy/f6778S674jj298+PXpwHy5OTuI6yGxVgyKHfhoy1D11TkwVYe98XD7ipSNR1185PmE3TbisnPdSmEYIUZtjBjrSGsT++fj6IPHOLftRYC2tCIsIw41b14eVDy2L6tCi+TI9Gb5BfsgrtZGsFP1YpOgeEzk3Ehnv0ocXaW/XxJ//7PkzmDc3CqDPOn2Q+zGWn+PaFq0ZxWVFCPbxE5kpwm605tKKW1pUKGS9LK/g88vR5MPO4kh0N2MQLN0++kty7f16yoXt9q2biFscJxtkbpIVYbcdXdNmaOlxvijC3pO8dIre8XHYEHYufiUlxtRYZWXFDqn4mLoxdlEsHiTdt6vczzoxiYuNRcrz50aiMwx82kmOXqS9wszZXjZTfVaXRV8fNa1FXHpmuLkh483rYUHaSRjYnt5/gKXzYu3ueJ4EyNDSJMWSkjNSOgTy2TvB6+v95+ZmS/rAoSaCnE9F+Xnw8pop6Sb72h9Huu7Zk8eImDNH5hzjfvqqq9R1PZHGPnxu0PDkwQPMi4pCZUMVaBD4dJzpynTu9GmcvXre6DJo7y6U7RoM9Q34u9/8LUb81QiMGPGxjRz541/0/9Px6Px1R6KuvxpWhF0fmBmubg5pyQ0I8MfjZ0OfulEf514/tmnwcHNHVlq6Q8rHctGkZT0l8zW++PKP4Ear12Nly5bbNg2tdfX4aeRIZGa9dXjSTrLO6rTzAsOMZNdG40V6whg3kMzehFaDsR/D0KJLFz1uYKiHehqvz/a5wege8+0334C54S31yHB7/iTpEcZOGm+2rH82GdiyvrWlezNoWLNsBaqbarB9z45OCfv12zfg7jVDEfZu5aZT9I6Pw4+wt2mge0xUcBjqmh0jVRZTfrEMurjB2LPFoV2D1tosLhXMB81AIkdbkEjUm7QmvEpPRmh4KErLS2yHGHSrQHphbWGAZbsmxcsCQgORluZ4lnZaPmkpam1uxPUrV7BgbjQMzU3mjEf2SCRa21pQXvkBs/1miwsG+8gYIDZHm4ed9Yf9/FBSDOfp0/Hhgw3NS30+lZUiIChAinF1dv+O+p6OwRuXLyMmeq7EExCbgs+B0lnqdwZmHTJo2LZ+I1hv5dD+/bhx7WqH32XWrLuJidixbSsOHdivLOxd4q4jUddfDT/CDk12fay2OW3MBBQVFdj1YlRVU4nlS5fg/v27HSaGPRIGy3umH/TTx0lmAuQIixF91lnp9VVGCtw83IYmv3OXCqIXhNzK36Clkj647p7uSMt441CWdrpK0LLOuIvFCxaKRZr9tcSwPT4nRsvrKuDl42XcaJlygTvC/OuuD/QPL87NA+sfsIaHTcrOoKE4Lw9+AX4oKB4elnaZUwYNLx4mITLc6AbD4G6blI+VetGh792gIWbuXHHJPXvipDGexzQu586dMZ64ahounT2Lfdt2KMLeJWZ0it7xcVgSdpImWtd/90//Al/f2WIpY4BYdwrdFj+jhcHV2RkxIeGOp8AMGpxZkMeBirnQup7+Ph1//OMXKK60IQtel0pjAEi8QUNDdTV+/PEHh8oeQ+v669cpCA0O/ujzPZjj+Bl/m64xbExlSNcme9SNvdHXtOCSBE6bNtUoy8841r0ib6bNU+WHMnz13TdgjnhHD0RlnQeS9XFjxshpFjfJirAPgF4eJIznZWdhaXy8EPYl8XE4ceo45kdHy+uIqAgjT1GE3Qq+1pGo66+GJWFngNWp86dlwc3Pz4Wnz0y7I+tNLY2ICAnFrRvXETLb324K7fRmgSIpCvcNxKO7d+1OPp8SBpIeuobM9PNGZXWFFRPWdpVyb2TI79IvuKKqHLP9Z9t9nnYSBja6wSwMnwutoVHcf3o7Jjb//XYNZeWlklkrpzDHvCn5FNf2/ponCnR/8TbV6rB5uZBoaQZUlZXB38tb3DvtXQbd3f/tmzfFdZBzTrnA2PaawM1V9rtMLF+yRHTkbG9vqe/w+u1rLFoej2VrV4ghgIYrlSWmJ1nqFL3j47Al7AeOHkS1iThl52bBy8kN5WUlNk8M6RtcU1ctqb7uPrgjxO/O/du4eOOyw5JAtynTJfJcMgLYYfYYkgJWMGWgDV2w7IIUDIIFhiXef//7/0B6Zpp9use0a7IQXbpyETGRUWYS66jybNWaUVZVJmT2bdobh7O0090iO/u9ZIOpra2yn3lJn3aTe0x4WJjR0m6HerE7os7PniY9AjOH6Ztkbvwdda45Qr9I2JOfPTMT9rUrVgph52nd+SsXsDZhnSLsVq+rHYm6/srxCbtJuVHB6ZOCRTAePLiH0tIi86JL5c0iDMxj3pMiGcrPee8hUWG49+QBGrRGmQApb1ONAaef9FFXdHq/7fGRxUPWrVsDL09PvH+bYXekgcqKPuv/z//8H1i0Il4yUNijHPp7z8Tq6ZMnsGHtWnzzzdfIsLNAVH0u0UXr+5E/4NiRw2Z90t+xseXraQ3j/Xl5eEhaXN1dhoHTQ6kH+/u/uR401dQicLav3cqRa1Z5cTH+9MWX4Elxf8fElq4nWf951Cgh6yp140fuYsu6gvfGE5GN69bJOh0ZGSHukKz8/Do9FRvWrRV5cuOlLOw9yVSn6B0fHZ6wFxYXIDn5JYoLPhalIenNycmCs7OTmbATbLR++nh52aziY6Abfe5v3Lkpi4xO2AP8/FDzodzYF9MOjsVQSDJu3btlt0UlOLEZwHLn6nXUVVZKvvJH9+/ZTcpHkp3n6a8kwJRuMAsWzMe77ExjIK3VO+2eJrYdfN6ugdVc129cL9kDKEvmlbYnSzvnEjMeeHt5yclcTPwCuyV6fVn0y0qKEOTrh8LyIjES2DNhp993U1U1vFzcJStMX8bDZq4xaOIeExISbPd52nl6zE3DnVu3wJMDfZNsM2M9nHR2H/tKwr4lIUG4CDG5cvVK4Sw7t2xVhL1XY9qRqOuvHJ6wL1u9HLHzY7Bn507ExsXi+KHDOH78KI4cP4LZs32waN58CdyhEmfLzXoPD3d3lJeXim+qrVgdeGQbGhnWoYKpoa0Fuw/txXTn6fDz88WKxUuwcfNGCfKIXxKPrRsT8P0339ptuXsS9mUL4/Dq+TMYGhtFPtHzo3Hv3h3x49QVvK3ISL8P3hex9C4rEwHBAcgtypVN06VLF3Dm5EljkDMnrwlzw2FBImHn8TbTfbHfLGIWFBSIzMwMow+4DRbPIP64SWYsBd1g5kfNldd8b/uu7cjJz7bbzXBvMae1NIPBjhMnTsDrtFSjP7EJvzru7eGRbj6Z799iwq9jUFVSapyDvVpIbWyDbJLB44cPZB2QgEw7dY/hiUFqWgoWLViA7Lws81zrLVbV94cOo9evXpGTVJ5gxcbESBYY6tE9u3ZiQ8IGZWG3WtfoFL3jo8MT9vr6GoQHBKOqtAzFpUX4L//1/8K2bVvw7MVTaauWLsPyhfEfLe2aBuY1d3J3QU1NpU1Y2xubGxAxP0rcYHRlROV2+sIZxCyIMRIeg4a2xibJdFBVVS65aufHLYBd+WZ+Amb6xJ08eBj7du/+SHKhwcfPB1mZb4W02yJJYNaJt+lv8C+/+63ktabMaC2ilYE5aHUZipsW3ZhI8D/pu6O95mnQ6rWrO+Sdr/7wAV9//ZXNpnzkSRzl9uZNKiLnzOlwgrVkuTGwip87mqw67Y9BQ2VpKZymTYOvp5e4Yuj4tcU52Nk98cSroLQAP476EasXLwNaWu2fsJv0xoWrF8Ug5ePjjYKCPJtYtzqTQXfvvXz+DP/wD/+A40ePgOt2pzh0cD1p730+d/EsjDVUNOzevNWYthGabJI3bd2kCLvV+O1I1PVXDk/Y6f9WmJ1jzuFa+qEEC6KiPxJ0aLhy/ry4LcgCZKpSyO95eHkMqeIjkSMxZxabm3dvdVBgJ8+dwn//b/8Nb9+bLJQGDTt3bsfpS2flmsvnzmHZ4sUyQWxdCbCPJ44dxaYNG3D57Dm8Snlp7istRksXx3cg7CwD7OrphvsPbc89hqSAOccnTJ0k/nv62NdUVWDM6NGygeImihkPstMzsG71auzctg2Lly4291m/xl4f9+/fi62bNuHimTPiesZ+kLCXVpZi8sSJH2VpSvk4c6YnMjLTbS4QlZZ1Lj4hfgHGbDCmGJEXyc/lRMvyyP78+bPYvmmztPj4OMmMY6/y6/S+DRrOnDopecAbK6vEPcaeUj5Sx9AQw9PT4vJizI+ci/LCIocg7OzbvLlRKCoplKJKHi6uyMnLFrLUHUG2pc/u3bkNt5nukrGHFbtJ2GmZ7RSLVpMexzeE2Nr4kLAfOnJQ+FXc/AVmwk53Y0XYe4NHnaJ3fHR8wm6a3Fs3b8Lps6eEwJ45fxpBc8NQ21KH3Tt3IGLOHGxO2Cj5Q6VaIRdmg4b37zOFGDIl3VAoN5as9wv0w40b1zosLCdPHgcrhjG7zcY1a7Fi9QqZJAlbEsS/ND3nLebNi7YfZWfQQPnwKPT0iRMInRMqOaDZh1VrViEwOBDffP+tuClZWjTnzpuL+3duGzdfQ3wMzEVTAkwzU+X+mRFFlKmprLin7ywcPXxI/LijoqPg5uwCKrQbV69iy/YtiFsY+5HI2uuCZJo3y+LicfXqZSRevSYb5eCwYMExg47oN+zk6tQhtSWLK9E9hpl0YAOuMToRv3z5olRWpC7Qgy0ZPEU/9i2bErBu5SqcPXoco779My6cPYub164hJmYeNm/bDLqr2dpi2p/7Yf93HtgNnt7xdyoqyuDlPkNS4+qWdlt1UaO//bvcd5jmNM2YaACaxDWdPHPSIYLASWwXL1okGKXrWUl+PsKDQ5CbnzMk61Zv18oH9+4iLCBIcEWcrd+8AclvU8ET1v5gVl3bG4I4MN+9evkSTh4/JmvyirjFeP3yJR7cTMT6tWswb8E8ZWG3em3vSNT1V8OGsHPy+gb4yvF2Y0sDdhzaLcVcTp8+KUqBi/TpY8cRFR5uJIAmaxpTP/q4e8pC1VtF1Nfvc+FraKrHwriFePDovvF+2ozW9j2H92FuhKkAgUn4GzdthKf7DFHYFbUVmDJpEko+mAij1QAZmAnbJyVpInrzwiJQVlYsk3r58qV4n5khzykbHvOOnzRerEjm/9GmiY+4uMe0GYZ0ceJJDrPB/PmHP4MBv/o9NlbXIDoqUoJ/2Q+6WZDMT58+TfpGN62fx/8qz2nR1a+zy0eTHIvy8/DH3/8BdHlh1UyS8Q8VZea+3X18H2ERYR9jKzSju8Wf//zdkFvaufGinFKTX2HunI+6gEQiv6wAP37/PUqLC0GfblqYczPfYeXyZXJNXk4WVq5cbv+FXXjKyEb/aJP+YP+fvHxiJOim3Pocp1menijNy7eJTXNn+pb94HxkESiSWb0/J0+fkJSO8lpiTgzGPmuabcclmGRDkk6s6v0JCwnB/acPjX00aELanZymS8rHzsbFVt6jGwx1oW7gIM7mLohGRs5bY5yEKR5I8KgZVC52G1/PSdgP7t8n+mDKlMlYHBOLwzv3ICnpIQ4fPCB6kthVWWI+6lZ9Dnd81Cl6x8dhRdirGqsxcuSPEk3f3tKCiLAw3Lx9Q5QclR9bZHQkogJDP5J2WkgrKzDNedpnJYRevrOQeN/C3xkazl27gKmTJ2Pv3t1yz+wPLRG/jBmNxpoawGDAjFke9pnru82A3Oz3GDPmV8kIU15TjuCAANRVVwGtBunb8XMn8eUfvhBCRFcZupWQ5Lp7uuPV06cis8+9EIn/uUFDRkYaXN1dUV1bJaSc98c2c5qrBFsyuJn4YsDi2LFj5HSE/eL7zFjEvlguwB0nb0+T28Y+b9Pw/k2aBAzXtdaDaUe/+tPXgtkWBp0aNEnTOXXqlA7H3nUNteB7Q5E9houILjOmlAsNCER9Y53cM4keiQQttIH+/th//KDIkXEx1BXEalnNB/w8drQsSPYsxzZDC67fviGNpwmM42Frqa8XF69ffvoJzLxFfLKfjfW1CPDyMepQQ6tRb2q2UTVaLP+trXBxc0FtRYXoEN433R2//eNXQhJ1mfPxYuIVaecunxcscHNtS/OQJwUnr5zB+esXcefebdA1kNhkY758Nw83ea7fc0VZKUb9+rPoms+tF635fw/v3ZVUypaF5CobqhAVGw2ubZxz7FteQS6u3bmBK4nXsHH9OpuSiT7W6tFYIO/5m5eImj9X9AArnspGC5q4idLllZt8RditWa87EnX91bAi7FQAb/PeITw6AkUFeQKqxXGLQBcZTrhXL54jJjYG54+fxPrlq4yLD62G7ZpY/lzcXcQH2Rpl1Nfv0HcvyN8fV29d66CYDh0/jHlx86UQQVyc8fiTFt158QtQU18t97okdhFu3+1I8u1KkWgGpKWmYN+OXaKsc0vyJNiPMQbRkZHiLnP//l0Ez/KV1HqWle/o1nQ/MVFIRF/HvrfXsSASSUtmRhq8/X2ECHC8udDzpIAnHc+TksQSe+3yZRBrIYGB4EJFxbVp00acP3vG8Y5+aZk1aNi/dw9OnD8lsmSRr9WrV2Lr9q1IWL8eTM95685N2eRU1VSasU5LW1BIkAQpfU73GC4ilMmlC+flRISbKW4uqDOqm2rgPdsbqRmpqGmpxckLpyUDwvRJkyWdKr8Tv3wxkl+/MvfDruadhdWOeF69cgViYxfgyqWLWLZymVSaDAkLwd4dO8FTMA+PGUKi9D4ykJOF57Iz3pp1Zm/n0kB/n/0oyyvA5HHjUZxr1PVC4KFJcCbjRtiYdo6ZnCJjosDATbozubm5ChZs7cSL5DU4NBg8UT1y6CDCwkIxb/48aYviF0maYi8fL/HVF9kYNFnnQsNDJaPRQI9xX36POpPX0ZUxNDjYbFnn/TIz27hfx2Dbzm3YsGUj4lYuhpOnK6KiInHz+jXERERhUezwSqeqzzF7eKQL08u3KVi30ZiHPTx8jpmwM0YtLNyYqlMRdkXYrVooaaFgY1pALkDMEsDX8QsX4sixw4hfGi8FKKjY1y5eBncnZ6QnpyD7fSZu3b4Jd29PuE6bbkz5OAguGLRWcaH0dp4hPqK01tL6cPjEEfz7F/9hzCbSruH6rWsICwzCjJkzQItEZV0lYqPniVKzh4nd5T3y+FPTJFiWxI6yefTkIaZMm4L6mmpz//NzsjHyT98JKebkZ+N1zPtKwk/3lL4sJr25Rv6voUU2crSs0k1CrO3tmmwmSPCaG+slHSVTUtKneeH8+bh25bJsulgbYOnypWaF1uWYWJApu/mOSY6UyeIVS8DS1CS1uw/swfiJ49He1GzM0NGuiXzDQ0PlZELvHy2gTB+Y/jbNOKaD6Neu40drbcaTZ487uMHQ6kp3iv/yf/yfeJP5RvpATH6o/oDwqHCkvnopBPXAgX2IX7nEIU5ISHRpNKA7Bd3QWP158rTJUmhOa2BqVYNsjF2dnNHa3CibTY4JG337899noZ2WdmJgCOJKSAi5kWdRvADv2cb5pbv4tLZKLMXFyxfk3nn/H0qLwb4wz3xJRYmk+qUbJMk6T8N0TNrCI8eYRpo5ISForKtFc0M9nN2cBZcM6ubnF29exvJVy41ZVkz9LizMh7uHO3ILcoZEJpZ6lfKhG4y7u5tkbdPHtbi4UDbvZRWlqG2oQW1TrbighQQFiawKivKxJC7OpuSh37t6NBHQNgNSM1+bLOwGictKevIIJ06fkJim7ft3iiw5Py+cO4sD+/Ya5+cg6vfPYvRp1+S06+/+//bOAzqO7DrT1EjySrbXPt6jHa93VzOaEUdZWu3aa61kWbYsjSYnkRySwwgGMIBgzjlzmBBIMA5zznE4JMEEEsw5R4AAiZyJDHRX499zX3UV0E0CaIQCqtE/z3mnWI0OVfd+777/vbrvvZf/Hq1eaoVWrSqLZHTUjw9jTN3zGFAj7KbhXBoe3L6NDp06qGXmBKD12zaqURaVt+nUMH38JLXs4/79eyGC4sKNS8gvK1B5t0HdulkiCEeMGK4axgMHv1TLSnbvHYTOn32Gy9cuYdXaVebolWxOMHbYCBSVF6lgLaverNi0Wv3fvEd/FHruaxYRNWbiWJy7fE7BLmu7ysRFNULmTlF658P31BwEGRWVIvctDWxwx664f+e25SPtjuJi3L19Ex988D4KC5/pldKdwy2rC50+cQITx4w1K+vU6VPVSj8iXOXJQWjffgGRjynivEunTmotern32DOn8NX+/eqpg+HPPl2CMGl0pa3El5Li9XGbjy3PaRdRLvyIWJcULNWZcPtR5h+MGjoMcffuYcmqZap+ydOTHl264s6tm4rHVVFLsHrlCvU3Ebstof7JPYhNZGRWfCQ2mTR2nFn/5DXh+7e//53uR3e9LSwpwMBeffU45LZhVbHWFP+XddaFM+kYyqowVf3Rs0s3tGvTRq1IZbAn84T0dEINI8eNwsmzJz0+U/Xzdvn/zWtXMXP8JHWfZy6ewbsfvQ9jR1q5xomjxqBtx0/N+3C4yvE0I0lNjn6a0rw7ol44dxYdPv3UY9K5XHPP7kHo8lknHDkWrTiTiej/51f/pC9L7NTwx7fe1HdH9uN2zS78WHod5Q71hBRl5di+fiM++uhD1XmU2Ch73CwNi1Sifd/OXWpFO5UyQ8Fu1tVK33gKdeMsYAW7BOzb164hdOhAJKfpu6CGLQxHVHiEChhTxoxXeVfScBU7ilVwlFEMMWhc3EO11GJxcUEs98gRAAAgAElEQVSDhaGMQknDMmTgQMQcO2Y2ijK6LhNHpfGRIpNNpRKEhc3DovBIdR1yPTITW0b/jfdVOtyXxy72fI8IdhHBE6ZPwukLp9W9yiPR8DlzkZ+drZZ/PHfyFBIePlR2u37rmgm8CKoP/vQ2zp482WDfVCcwJPiIWJcnM8lPE83flh0833nvHZw4elQJmY4dO6hR4jnz5mDfwf3KR5IX3K1zFzVK2xJ8Ves9uJdulDzim/duQiZ8R+/7Eju3bFWsDxkyWE0El42JpIMjS9Op73RqahfKX//7b1UqihUjJeJHEezRBw9i2pgJHmJd/BvcNQhxD+7jWWaWSmVKzk5RW9lfv35VTcgU8WGkp0n9k9HDWu3hR4Ljy4P71ZMEiZWnYk5g0KCBeHD3DmZPnIrVy79QI+2yBJ/EKrlvGeFNSk/CgB7BaqRdPlddHbLidfGnbMjVtn1bNWmxqi9krkjsyRjVEdm+cxs+nzlD5Xzv2KWvaBF75Bg2bdrgF/4Tcf75nM8hYl24O3k6BiuWL1PtwIB+/bBv9258dfgABg0dpJ7miWCX9z1OScCQ0cP0+TOupvWN+FuWbhw2bKiZOij+yc3NQrfPOqkV2cR38+bNwepFSzFt2lS1ZLG0v5s3b8T1i5f0pzZ+VH+q8hcw/3dqWBa1SGkVEez79unpxur+nRqunj2PaVMmo3ePnhTsNbJsSHTPY2AKdsNQMtHxcbx6DJqWnKRE1q0rVxES1BuD+4WYk6ueq2wuDfKYsXvXrmrd2IY0PvL4efK0yWqCqQhV47ek8ZHHz8ZI0PZNmyHbocuEN3lNJhzJqjcyYqnea9xTCzpKR0ZGM2W1GEdZCW5evwYRCLL7qXReJMc4+uhhhPTtqyYjSV6nbJIlj9ukgZYlpRpbNMj3Sc66jPCPHjtadfpkguWFs2fQP7S/mgD7KPGR2YF67513sGX7FnUdaQlP1ONsw6eGr1v6UZ5giTCWyWSyKo40wuvXr1VrR8umZbKUqrwWHNwbvfsHQzo4kks8cMAAHPrqAGS1gYf37jbqko/ye1IunT6DDh+3USI07vZdxN+5p1YzCA0JwfB+oZX1b8sWvPPWW2aeukz669+/n1rNqWq9bUm+lCdWC8PC1XKVcl8Hjx7CP/36n/XUCnecuXzxglqBRVIaxJ7yPuk0y8paavKwe6Rdnlw2JE7W9lmpU1nJKRgSEqo2kDPrmMOJfr16Y/W61WadFPEqKUwSS0XM3rlzC927d1Pi1p/817d/XyQ+eqQY3b9zl9rpVNJ5jHuQeVCyu7cMLBmvJT9JRFBQd4i/arNpY/5d5of17dunskMuYv1ZDgaNHKLaUtNfTk35a/+u3eqapdMonRPj+nm05yCb6RenBlm+V1IIIxZGoFzzSivTNOSX5KslYo+cOc6UmGr1mqdQN84CW7CLsaRBKSvHh++/j7vXb6hgL8u1/e7f/w1XL12sMVCIEJGVIxoS2PoPCUXs+djqf8fd4HVq+6k5c16C7p/+8EeP0V2zwlQLgM0rejXXLaJ91JhROHtBX97y1o3r+PDDD6CVlirBPj9ivlpPX3yo0hnKynWfOpwqnUg2J5IOTUN8ZHxWJtU8jnuI//evv1Er2cgciA2b1mPaxEl4mvBYNYyfdeuMK9cvK3Hw1ptv4uqNK+r/WlEx2v25jZ67bYiYau65JfpSBPu129fwcbs/q8fcIu6un7+IHh06m4L9N//2W7X8o9QrEYtKCLv09BixZXxCXKOJdvn927dvIrR7b+UTYSds+izMGDdJPd2Rv08bN1GxJH/76P0PIPsiiG8uXb2IQUMGtdiOssGf+EDqn2x2JaPT8vrR2OOYPGuqR7yS9LV+Qb1MwS7vkz0u+nfvpddF4d1Cwa44cWro0KatiuVVxZ8MvoRFhmHBgghTsO/ZvxuDQ0PV+f2EB2plKhk4kXQa49794Sj3/cmnbZSNiwvy1cZ5+w5/ad6DrHL0hz/8h55OaMQa94610kmVzrMR26w6Suy9cukiPv7ww+fSYCQtMHLpQqzcuNrkZEifEJw+6hZy0DCof0iLr2f+wJrP1+jUIE+tZDdyWSHsOcEOCnbfbGlIdM8jBbt7cpTLUa42I1qybIkSEJLLuHvbdjVaVNMItogIGemQUaW6BD2ZkNgvpB+OHDlccy5zhYaHcQ+wfNFiNQIkq41MmTIZmdkZZmD2DQD/FOzSKMkj9zlzZmPrho3qsaiMiPUMClJzDBYvXYyi0kJ9zWi3L40Jb87yUrWBiL65Uv1FuzyCLnOW4uaDWxg0fLD+SNf4LVkRRZ6EVOh5v2rZv80b1C65V65dVj67dOkCpk2YhLycLP2xrvFZoxENgKP4UZYMlJUgZJKf7AYrwury6bNqtQhZ+rFbUDfkG/MBDJuIrVyaepIlG2jJ8pn1TY+Ra5B6KlwcPXwY40eM0ncwNfzhPkqHQUqP7t3VpPPgzt3VBGd5beO6derpgOxc25LrndybxD3DFrJu/qP4h8oXsqurrE4iO/bKKkdRi6OQ8PSxetQt62dLIy2+zklPx+//9AckPo6DxFeVr9rISz5KvZPR4iEDQhGfGKeLbrcfZe6RPIKXSbDjJo5T1yRzgdZ8oc85kJF22ZwtK7dyjwB/8qn4RyYFd+nWRS2WIGzPmDMTMiottpbN6GQekCyHO3f253qH022bR3fvqp2XH8Tdr1O7VZc2Tq7v9r1bkI3UZClQuT4pMvn13bfeVn+TycHSIZR0GNk4LzYmRsVI2bTwz23/rJYU9SefBPy1SopvUYGqU84Kh8fcCsM20jHeuXsHtm3bwhF2o5177ugp1I0zCnYvQ23bvR2DBgzAl4cPQNJQZKRNGnoDthcdZcMUmViXlZXuU/CTkTpJDzh54rg+suB1Dd6/IUE3fPZcRMyfjxWLltR4Ld6fbSnnJWXFmDx5ErZv2aJ8In6RnPYun3bQJ5dJQ1SNHWXJR7VOez1Xj5HH5rLefcegzkjNcOdYv+C35JoiFkViwMABuB2nrypy7sxpjBqk7+JX3fUF0uvylEKE0qDQUNy8fEXxfy/uHuTJhAgPEYgvsoe8npGaopbckw5sfUS7jBiLj0QUqEmuMvJbAzeffPIxFkZEmBMrZTUYET7yHfJdL7rOlvia2F7mFqgUjPg45bO9e3djxPhRatlH456XLlqk0pdk597zsbGYN2c21q5ehY6dOuL+3dt6rGvEvHbpKCc9SUDX9h0xcdw49WRLJlXKkqFTx09E20/bmr95+9o1JQzlGqWjKBt6hfTrp3Y8Na7fX4/X7l7HtDkz1MCGcDl81HC1o/Lg0cNUXZN5I7K7srRrqzetVauMyY7DYbPnqJgqYrouQtzX9167dgXvvv8uZkyagkePHyLxaQJOnTiBwUMHo3unzmo1GLH55o0bIOv77965Q9WphIR4jB45kiPrL2hj/ILRGmKqcf3cOKl6vaLbyJDonkcKdq9KIY2TTHh88/231Zqv0jjXJtgNCDt27aQER00BTRoZydtTkyl9TI04e+U8fv6TnyLm1AklFozfC8Tj8uVL1Tr68qhefBMVtUBfpaXKrozP2cWpoWvnzmqysNi/Jv94/01G1x8mPMT//ud/REpO5Q6mz/0GNLUVeNdOndXESnkcuHX/DixdvCjgfVbVVmJPEexSRvUfBNkZTzZMEgElE9JEgFV9v8f/nRqK8vJQ3/QY2Z304cP7Hrnp1Qn2E6dP4OjBg0qsy2oxQ0YOhQhRYS7QBLvhA9lA6Z133lbpX66yMrX78/Dxo8x9BPoGB+P89YsoLCtUOxvK/CDDXjLRWqWsNZJgl46fxOreXborXmSNctmlOjioBxbNDVOpVUuXL9UFu8Op9tc4FnNUncsAy/vvvovHSY9VDrtxf/58lHQzWRlHbCIdkjVrVqll9SQOiWAf2K+/muCZmJQAaU+MDqc8qf2/v/mVPl+rEZ9+SM762x+8q5ZFvfvgDnp81gVTho9RA07JWSlqErfUe3l62qFDe8QlPFJ+lOsaGBJSfQzwaq/92WeBfO0U7BTsjVrJJZDI43ufK5VLUzt1hgb3rVYQytq+Motf0mB8/l5oKC7Mx7PcbEBrWatQ1MUG8l55xCqdJ5ngGRTcQ01ClZU6du7bpael1BDMJYdaRnUvnD6tGjRvYe59Lr8lovLavRuQzUiyc7Nq9ZlsZy/rx9+Pv69yL48eP2I2jHW910B4v6ukFBfPnVXr08u8kX0H9uLujRu6yKrOlxUacrMyERo6APfv+zYR1RCNx45EY+zQEWrCtvi3Whs7NbUSkewBIJslyQjxtZtX1ftr/Fx119xCXpdVcERsyRKrssGUqh+3r2HMoGFKmE+ZNBEPxScqZ12fNK/s5XKqFa9k0mFCaqL+9wYId0m5Sc1KRcdP2yM9KcnkRWKDEqIufUOz7ft2qjzafn36qBghol6ezkhq1ePE+Or974f+khV6ElMS0bnjZ8hLz1A2OXHsKCaNH69S+CaPHa8mSEtHR6XwGfdYoa/GJBO+ZQTcOw7W5/z0yRhVPyVmiv+lmL5xLxn61u//AHka0ndQCG7c0Ff5inv8SD2pzsnxzxSlauOJYWsezTpHwU7BbsLQnBVHNlmStdOV2HdvHCKjeJIGM2byOPU4sjmvr0X8tvvJxJiRIxE2b65qjFVDVFtA1DS1c6psPa8arWo2dlGNjObArUd3ILvbJiTXMOpb5TdFsI+dMBazZ83E/cSHStC0CHtXucdGvR+3H8+dOqVWPJLVkmoV7HItmob0lGS1Sos08jWlx4gvRbAfP360Mg1Gfreme3JqmDF5ilrSUPwpwrTG99f0XS3sbyJ6xR4TJoyHdEjl//EPH2DmlKkI7t7DFOPe9pK81bTcdHQN6orHDx6o99VHDEq9la3q+/TqBdlhVXUOqvHnktXL0LtnT/WETK5TNnUJHRTqsWGP93X667kIdrlHeVLVrVd3tXeA3Iukf/Xp3Rt9e/fWBbt3R1XSF5waZDM6yfmX9Bhpr+rqG/WkyuXEtSuXIfN41PdUw77URxHsY0eMxOMnesdp76H9kCVeZQMzf/UBr7uWuFqFBwr22mzlmQpjnDElpgpEjVbhyh0I6thZ7UQngU9GfWSb3jNnYhmQGtHesqzj/CWR2HPsQLW5zy/yac/gnkh6/Lha0SANn4j1f/vj75GTl+1zAyLrwksurUySVI+mG/FeX3QfLeY12ZHRqSlhcfOKntde272JffPysvHvv/udEowvEu3GyHpyQgJGDh6qiztffOLU1Mj/rh3bffZ9bdfbkv6u2K7QIBvIHdq/X22MIraWpRHPXTyrOkjV3m+FpuYqZDzLBJzuZWt9TMWQeim7OotYr0moy2+LYJS1nuUzUmRDHpmTINdZ7bX5wobN32MMXAwYEIKjR6PNFZBGhAxCTmpatfcuPpU5Ir/61T8jKeVpnQW7tHOyodMH772n0pEkBr7Qzi4n4u/fV4sBiC9kNaE9h/bh8/A5L36/ze39wnvkNdfqSwr2auqHyY4h0T2PFOymgWozYB3+7tSQkpCIYSED1aoFsk29PI5XjYwPEzIYBHyzdZlL39VQGuS62Eyt0NOnDy6dPase13qPJkkaTJfuXZ5bhqzW33CPGFfbWFnBWkv4TrdgN0VYNSOmz9nf5VQbafXr1xey2oW3aBdBIJtYydr8knLjs18MP7KuVl+vRJA5NRyLjoZM6hZbi1hfv2p1zaK4QkNKZgrEZwU5OXpM9EGwy8h6Zl6mSoNJSnpSq2BX6WmLFquUGNnNNHz+PMjTgecYagn15wX3IPMNIiPDET5rjpo7cGDPHqQmPqn5/p2aWtlHdmqWVX+842JN57ISl0zilU50jTZ2OXEo+iCexMVBno716tUTMregtDxwfFOjfV7gy5b4fgr22jSOp1A3zijYragg0php+qZMMgJ49MQRXSxUN+pgxTUEwHfKslGygouUOgc1l4ZxY0bj/NkzyleSYynfI8vSyQZIvqbBePyu+FcKhV7d/CH2MmxnHH3h1/251NRktaGWLAUnI4zyREsmmMruuJNHjq38bl/9YlyDr+/35Vpb2nsMn2lOfefnoB5YsWI5Nq5eo2zvUS+87l062pk5GejRq4faEEst+ei2+YtEoaTTSBrMgN591Mi51FWTF6/vNn5XJjNPmjAeI0IHIyb2hFpqsl5xoprvN37H1keXhjMnYlSqS1RYBNITn9ZcL90+SEl6giHDh6hJ9L6kx8jmWcOGDKkxDca0k8sJ2Wl237YdGDNmNGSTuYDziz8z1UjXTsFOwV5zMGok0MzA48v3yfrcvryP72k2O/Xv21c9DZH0GkmD+eWv/lF/pEufNJtP6lpnJE89LzMT//av/4o7926rEd5Hjx5gzJDhaiRWVqap63fy/bU1KM//fcCgAWpLefWkpJb6Iz6TieCylGdGWoo5Yu4t2GXgQ0bWe3cPqpMPz8SeQlC/XiodJtAFoXReB/Xpr++KWotfFPcyRyQpCX/84x+QnJZU40i7bGTXrk0bfW8KX77bpWHzji0qRU1NEPblM3xPndj3h9hFwf58/PT0mzGm7nnkCDuDQYsLBp7g11wxJFVCNmFav2UD2nXpgNSc6vM86/K9fG/Ndm90+zg1tftsr369sXztCvV43llUrAtB1vGmqeOahrLCQp9tLoI9Mz1VrZxl+KqqYJdRdHnPZ+074HGKbxO/Da5EDBr564HeYRPBLkuTluYX+MaBO0UtKz0NnXt2gywFKRO9q/pGOlxnT8ciuFcvtVykYXdfjpI+JYWCvYljpI3iIAV7bb73FOrGGQW7jSD2JdjxPbWBXr+/z579udochvatn/3sYDdJlZDJhp/PmOGbMGHdb1Q7iYiTUhcW5P2yolbnrp3VEprGPAbZWVjyqGX99qxk9wg8/VUn29bFDy96r6SXJT9JxJCBA1VKUlXBLsuxDh86VMVMlaJE3zSpb17kL396jYK9tnbWkOieRwp2BhoGGjJABshAszEgK5TIaHjX7l2RnZKqRuhl12hZilBNKDcmAdNHTe8jWUDh6RN8+mk7JKfq6TEyoVd29k7LqHkjOX8SkLzW2gRk4/6dgr02e3oKdeOMgp2NQNM3ArQ5bU4GyEAVBmQCeUFBHnp2D4Ks4vRph08hG+ioEXuZ4MoJwM3Di9v2mWmpePfdd7Bty2Z079rVp43kKIJrE2WB+/dKwe58bnUv79W+7H4uKXd5RXn4by//PVq91AqtWlWW9957t5711pDonkcPwX6/qAILZOWnKoG0tv+3bd8Wrb5WeYFysd/61rfQ5oOPoGb/1+G7avst/j1wKzh9T9+TgZbNgOykmpAQj+59e0JW/qG/beRv9+ZKY8ePZeogNU2D66Yh2NW+AS+38mvRLoMNOUW5ePnll5tWsLf6ClgvT7nqACQFu42Cah38Vhcf8730MRkgA03BQHl5iZpoyrxom/EmE1GlcOWzOumjpqgz/vgbItg3rV8PrbRULQMrE6P9tTgcpc0j2Mc9qptYF1Ao2G0WWCnaGVDJABkgA2SADJABmzLw1f79+O6rr+APb7+pyp/++Ec0VzGu4c0363cNn3z4kZoc/9JLL3mkw0i2iaUpMfXpqVGwU7DXhxt+htyQATJABsgAGQhMBuIT49TqQ7IpWn2KLA06ZfyEen3W+L3TF04jYkFEg74j7kkcR9hZiQOzEtPv9DsZIANkgAyQATJQLQOaU6VnTZ46GTevXzM3XjOWhfXp6HBi+9YtiD56uGFPYio0yD4STT7plDnsrCDVVhCbPlrj9ZJZMkAGyAAZIAOBxYCsIOUqK8PkceNx/uK5Oov2NStXYu/e3XXeO+I5zppLsG9NAzZy0mnDelsUtrQfGSADZIAMkAEyQAasZaBCQ35+LqKjD2HZmi/QvWMnTJ8+TZX+/fth2sRJqowYNQLtP2uPCUNHYuXipQjq2g2Xzp+Dq6S04dfXXIL9uZ6DD7Axhz2werX1YYSfISNkgAyQATJABsiAFQw4tDLs2rsLsbEnTQE+a8o0c9Q9uzAHs+bMApxO9dquXTtwy0il8UHn1njNFOyEukZAGgoYP29WatqZdY0MkAEyQAbIgP8y8ODeHWzfs0PfGRkaTl04ja2bN3kI9sgvooByh/nagEEDkJKYCNn/oUG+p2D3X3Aa5HgK6YZVHNqP9iMDZIAMkAEy0LIZcGpKeEcfPIhxE8ahXft2WLtqFQ7s24eTl04jJDQEe/bsQlzCI1ViLsZiZsQcHD9yBDHHjmHdilXYsGQFenXtjj37d0NWnKn33g8U7BTsFP5kgAyQATJABsgAGSADXgw4NZw7HYv1a9cgKycTN+/cwN5du7Bj21b12uTJk7B46WKERYapsnLNSkjZvGEDNm/cgC3rN+D6lcvIS89ATOwJRIaHobS4sH6dHAp2L+ewt1w/kGg32o0MkAEyQAbIABloQQzcuHQZ7du1Q2JKoloDPa8oD05nGTStHI7CIlUqSsvM9BfjNen4yEi6vFd2KC0rK0ZWQTY279qK6ZMm148RCnYKdvaoyQAZIANkgAyQATJABjwZcBQXI+HBQxw7dRxfHvkKkcsWYsaM6Rg4eCD69O6NqHnhGDNqFGbNmK7KpAnjIWVA7z7o2vEzTJ0wEUuiorBu83rEnjmF23dvIT01mYKdoHmCRnvQHmSADJABMkAGyAAZqCcDLg1waXC4ylHmKlNHWZddiqO0BM6yUmRnpiMhIV6VvJws9ZrxHuMo9pfPS5HX6uUPjrDX04kt6JFPvcDh/devwtFutBsZIANkgAyQgRbBgKS91FuA15UBCnYKdgp2MkAGyAAZIANkgAyQARszQMFuY+fUtffF97eIHjsDJuskGSADZIAMkAEy4MEABTuB8ACCop+inwyQATJABsgAGSAD9mKAgp2CnYKdDJABMkAGyAAZIANkwMYMULDb2Dns3dqrd0t/0B9kgAyQATJABshAczBAwU7Bzh41GSADZIAMkAEyQAbIgI0ZoGC3sXOaowfH3+TIARkgA2SADJABMkAG7MUABTsFO3vUZIAMkAEyQAbIABkgAzZmgILdxs5h79ZevVv6g/4gA2SADJABMkAGmoMBCnYKdvaoyQAZIANkgAyQATJABmzMAAW7jZ3THD04/iZHDsgAGSADZIAMkAEyYC8GKNgp2NmjJgNkgAyQATJABsgAGbAxAxTsNnYOe7f26t3SH/QHGSADZIAMkAEy0BwMULBTsLNHTQbIABkgA2SADJABMmBjBijYbeyc5ujB8Tc5ckAGyAAZIANkgAyQAXsxQMFOwc4eNRkgA2SADJABMkAGyICNGaBgt7Fz2Lu1V++W/qA/yAAZIANkgAyQgeZggIKdgp09ajJABsgAGSADZIAMkAEbM0DBbmPnNEcPjr/JkQMyQAbIABkgA2SADNiLAQp2Cnb2qMkAGSADZIAMkAEyQAZszAAFu02c49QAp4YyZymKnMUo1krMnp2cSykpL0ZpaZEqxmvymWpLhU3urS69dFeV+3F/zrjXqkfDDsUO3TZit+fsIN9Vl9+223u9fetwPOf/krLnmTDsVOYq8+/7f5E/3DYx7rFqnfCJCX+sE1Xt4MVEhdOhYoNhDznWxITTWVZZT6p+rz//vwYmqtpF/v/COOHvTPiz73jtLS9G06fW+ZSCvflFncvlQGl+AXJS05CSnowvj36FiIgwDA0diP59+qBn/2BV+g/oj8GhoaqMHjsabTu1x7CBgxA5dz7Wr1mDvV/uUd/xLCsLzpISwA8bImdZqbJFRnIyLt+4jF17d2H27M/Ru29vdA3qinlzZqNbt66mHXp17Y5xw0ciqHMXdO3ZHQvCw7F66XKcOHEMWelpKCjIQ1lZsXUVyKLgJOLzWWaW8ufFc2exImoxQvv3R+egrujSoxuCg3s/V+T1Tt27oH9of8XPgaMHkZWRhry8bBSXFvmdDaSz5dDKlA8zM9Pw5cH92LxyDcKnf472nTsqOwT1CnrODt27d1OMdOvcBSsjFuHLHbuUHaV+FRfkQ+qbP3bkhOO8zExkp6XhVMwJbFi7FrOmTENQN08epK706qcXYeKzbp0xaOggzJ8/F8KE1C1hq6Sk0O/sIL4rLHyG9PQU3Lt3B7t27UDY7DkYNWIE2rf/FFMmTkSPHkFmfDBip8SGjl07IWzeXBUj4h89UEwUZefAWV7qd3bwR355zc2vNegDP/cBBXvzO/DCpfPo06Mn1q5fg8tXL+H+/btISXpiiozs3CxIyXqWhcx8veQXPoOU3LR0VRLiH+HitYvYtm8HwhaGY+ykcUqkVVQ4/aox2rF1KyaMHYutmzfh+r0bqojAkCLiO7/omSqGHZ4V5ik75OfnIjslVZUbd29AyqHog5gwcjQWzg/3KxuUOUqVGF23ZjX27NuNm/du4nHSYySnJqEgLxeFz/JMDoQJo4htcvKy8ST1CR4mPMTd+3ewecMG7Nm5E8F9g1GqlcKveNA0fBG1GOGR4Vi3eT3u3r6Jh/EPlB0yU1JQmJ+HZ89yzPvPycmEFLGPFGFGbCaf2b17pyrS4T16+LBf8aA63pqGDl0+w4oVy7Ft5zZcv3Md8YlxSEp5qpgvyn9mMmHUDTkaTGRlpeNp8hMkPHmMVZvWYOve7Qjt28+/7AANV65dRnC/YKzdsBb3bt/C/Tu3kZGWoooRE/MKck1bFBTlQ4qwkpuRgdSkp2Zc2bB1Iz6fOAXLFy32OztQeDV/u00f0AdNzgAFuz2g27Z5M06dOKFSHqRxjU+Iw5OEeNy8cgWHDhxQ5fDhg4g+eliVmOPHIEXeIyUlLRnZhTm4n/gQ4VERaqTer8SZe6RaKy3F5nXrceFkrLofuafE+DhV7ty6iTOnTqpi2OH0yRh1fvH8OUinRYp8RooIvOULFwEO/+q0SBA4ezoWSxZFqfSFEmcJHjx5pET4owf3cPbkSZMDw+ayLyQAACAASURBVA5yPHE4WnEjDEiR1IiSZ/nYu30HYs7EqNQJv2LCneowd+5sJCc/VXXjSfpTPEh8qHi4GHsax48cMW1x6KsDkHLq2DHcuX4dCQnxyg4ZzzKVHa+cP4+oBZH+J87caWLCtgh2efoiqWBVmYiNiTHt8NWRgzgQ/ZUqRw4fQlzCIzxJTlQlKzcTz0rzsWP3Dmzftd3vbCEd0rkR83D85DH15Cg3NwsJTx+rYsSGkyeOm7YwXjt94oSKk4/iHyKrIFvFh+S0JCXY5elNkze8Fj2Z433Yoz2nH+gHSxigYLcHWPK4++iJI+gXHKwe5w8bMgQ9g4KwLHIhPn7vAxw8eggi2A/s26dKhw7t1aPdpQujIGkBbTt+io6dO2LgkIGQhsgSWJqgkdHKy+AoLsa2dRvQuXMnDAoNRaeOHTFtwiRVPnz/faxYstS0w9ovVqJ9u3b6SOzsuWjTrg169uyhPhc+b56er6vZw8d19cn9W7cwdMRQfPLJxwjp1w/DBg/GtDET8MHb72JhZISywVd790LKzGnTMCp0CCJnzkGfPsGqfPLhRwibNgtpCU8gol/mRfiVYBe/aRqEiYi58/Du228jpFcwBvcfgEVzw9CjW3eMGDrUZOH4mRhs2rkFH7f5GFIvevTqgb59++Cjjz7E8JHDVQqJP6aJQQS72xZPkhIRGjoA7dq0wYD+/TF8yBBMGT8B77z3juqMfLl3L/bs2aWeJqxeuwpDBg3C7Jkz0ad/H1U+/PhDlUJyNPa4X6bMSZyUcnDfPnRs317FBEmBGj1yJBZHLMBHH3yALes3mExIrPj4448QFR6BkaNHqrS6kUOGqjg7bfJkVSe0Cv9MkaprPOH7/bMdoN/oN5MBCnb7wCBiSvLPlyxZpDfQboEcNms2ZBRI08pNIT5vxixdjLrfI6OQ+Xk5UJPKXP43omwCCU2JSrHF04wkTJwxWb9PGW11afjdb3+rUmMMASMTTUW8GhNO05KTMHvubDX6pmzRBJ2MqtfeqP+XSciFhdizfzfOnIgx7zHmyBFs2rBeZ0GEnFPDmCHDER//SL0mk+vCIsJw8fIFFOXl6Z/zZztILrujFGlpKdi0ZaMaYZZ7lnkaYXPnmnVCXjsecwzXLl/S71nTVGrUjl3bUVTwrPJ9fm4LeXJy5Fg0jhw5rItup4Zzp05h3bo16imK0y1A5836HI/jHur37dSUraRzV1SUr3fc/HCOi1m/nE4U5OSoTlv6swx13/LkQcS7sCJ1v0JzICn1KQYPG2z6PjM9FaOGD0dqVqp6n/l9fs4E78M+7Th9QV9YxgAFu83g0jQkxT+GNLaOMn2lmNOnT+HmzeumYJc8zuOSh+vUxW3U4ig8eHDPbJQsg6WJGzURnjfu38TcsLm6AHNpWL58qRJu6h4rNKxfuwaXz53T/+7UsHTxIpXv3yJsUGVFkBWLliDpSYK6z8LcXAwYNED3t6ahOO8Z3n3zLdP/8iRm587tKK+6ck4T+84q+2/fuQ379u0x/T1j6lTzvqU+jB8/DnkZegrMo/v3MH9BWOXfW4gNDNsuXbQIt65eNW0hI+9SZ0SwS972O2+9ZU64jjkUjZivDqtOr/F5vz66O6pPHsdjxfpVpmBfFB6J8+fPmk+SZFLqoSMHFQOSTrNsxTLklxWo9/v1/bcwlukLm+kQ8mXPdoOC3X4VpaSoQI0Uzoucj5UbViM8fD4G9e6HlUuXqQmUg/qHYOrUKdi0dZNKk5g1ZxZu3r6B0oICvfFuIZVNxIfkoosNJk2fjPVbNmBwcH9EhM3HishFqrz1r7/HqvWrsWbjWrz34ftq5Pnuo7soKC+Ew1X5RMIvGwS3YJcUgGMxR9Gtw2cq9UcmYr751ptYsWk1Vm9dh4kzp6gUoMjIcEydPhVt//xnnDp3Su/YGKK/hTAhk6wH9w3BsiWLVenUpRPGjhqFDds3YUFEON5+922sWLUC6zauw3t/eltNTkx8HGfP4NsQnzg1ZDxNQv+evVX6z/w5c/DWO28pHjbv3qo6uW0+/gSKialT8P4f30Ls2VNqrotf1oVqbCUTTZeFL1ArRa3YvAbDhw9TqYRSR6R07tkNy9avUHYJ6tsLn8+Ygbjbd1GU637yJPXDn580VGOXluRj3ov9NAp90kw+oWBvJsO/INAay83NmzcH5y+dU4JLli8ryM55rqTnpKNquXP/tnr0m5Wc0iLEiTzSvhN/DyPHjERadhpSMlOQnZ1RaYdnuSh4louM7HT1eDs9K00tYZiamozrt65hwIAQyGtV04j8Lsi4xfbRk8cgk5KTkp5AVsORkpqT9lyRFVOkpOWmIyk9CYuXLVYTb2Xk2e/u/QX148at6yqHX0S7YQcZNTXqQWFOLqTIUpYZGamQydvCzM5t27D0i6XmqGtLsMWZM7GIioxUK0nJxOL87GyTB/F/Rm6GKgYTYqOnaU/VEqnSuW8JNpCVs/oGB+POlWvIz8pGSnaqKjKx1uBDUl+kSAxRdSYjRa2qM374KPPJBAV7y4gPLYFp3gNZrJEBCnaLAJGJYlLqMHojuZeSkyurokBzKrGpBKfxXVWOTlc5qhYR+zI5b97s2ZANc6S44N+57AsXL1TL9Bn3qTo0hg3cgk4e/xt/F1tJkfO0zFQsXe7fIk1SWkSsS+fNuDejMhv3XPXo/TfNUaYmpKYmPvFrgSb3KB3SsEURcBQWeTxFkrkOhg1UfXNppq1U3XFzcvXGFcgkZKNTbNjK744uDTExxxF94IAeX4z64NJMOxj2kKNxf8ZrMsFSVkw5fTbW/JvxHn86im9XfrEcwrjh96r3aNyL8ZpxlM+5HOWqQyeTcV0lpSrWGu/n0aL28AUdcNqatiYDdWSAgr2OBvM18BipCNKg+viZvJwsbNiwThckkqPp4+eqvu+LL5bhxNmTKkfTn1c/kGXprp477yHOqt6nL/+Xibhnr5yvlx19+X6r3yMpQSGhISiq5wY3Ikwyk5KxcuUXfmsDsXG5Vob90Qf0vGOjXtWxbsiExN5duisxb7XfLP1+p4aRg4c2aNMjeeogK+1Yep119E9dr0X2WNi8cYM+AbmevyWTdKUDKLvF1vX3+f76tU+0G+1GBhrAAAV7A4xXU0Ph1PCb3/waP/vhj/HLH/3Mp/K/fvhTvP697+EHrVvjh2+84dNnjO/+6Y9+jO//6A28+oPX8b3vfQ+tW7fGz3/0E5++Y/feXZY2WLIz4S9/8Qv84mc/U+WXP67dHj9r/SN8743X1T0Z9+jr0fid11q/ruwhdqnps8b7xW6H9u+3xBYyErxoyaIar8P7Gv/7a9/Ff/mH/1onhqp+x09++CO88f3v49VXX/Xpd3/a+of44WutMbTPABSVWrcLZuyx4z5dj3Evr33/dXznf/w9xB7Ga3U9fve738V3vvMd/Lj1D3z6DmHiX/7fr1VKjWUNTIWG+VHh+Okvf45f/LT2OiH3LLFB7kViRV1tIO//Xz/R6+APW9dcJ4zvlusSW/zff/xHS1fa+fW//EbV9drqqnFdEidff/11ZQ/jtboeX3njNbz2o9aQ2OnLZ8Xusedj9ZW4aor9/JslMdSyekh/0V/+wgAFuzWCPS8/F//yH79TK3XI9upSjLSGmo4qtcWd2lHT+6r7m3zel++Q6ymTVUSgYef2bQ0aqaopkMp1ylJqq1euAFxOtdRaddde9XVf76PqZ7z/7+t3yPJvLmc51q5ahW07tloTvFyaWlNfjehpDp9YkPsRoe99X3U994UH47dynmWjR+8e+tKZFgUx2fBr99ZtaJX+K5/vTdip6317v78utpS8/xVRi1UefE18N+hvLk1NpJYRb5lY7H291Z3X5T4a+h0SI3KL8yA7xMousg263xp4mjJugmJd0gKru+aqrwsPvnJd9XNV/+/Ldxixu6S8GPsP7ENkVCSXg6zBj1bxwe+1RqfQrn5mVwp2axxmCHbJncTLrWxZpOGXCtuUgl1Emh2LiPamEuySc2tHG8g1NYVgP3GiUrDb1Q5NLdhFqNrRFpKOJKlZVgt22RjNjvdvXJMIdwp2a9pKikbalQz4yAAFu4+GquOogiHYJY/Y7oJd1raWHF8rKo2MaMmKHSvXrFQjaEYDaLejbMS0ae06yLrNVthBRLrsWqsmTVKwY9f27bYWaCLYly9ZgszsDGt4kHji0rBu2wZkPMtUT+LsVifkeqQjIbHBasE+eeIEW/Mgq1ZRsFvTVloSb+vYXvMa6Fu/YICC3RpQKdh1u1Kwu/miYDeFr4ywU7BTsFdtICnYrWmHqtqY/6eNyYCfM0DBbo0DKdh1u1Kwu/miYKdg9x714wi7yQQFuzXtEAUa7UoGWhADFOzWOJOCXbcrBbubLwp2U5xxhL2SCabE6LagYHcz4d2p47kZNyg8yUjAM0DBbk0loGDX7UrB7uaLgt1seCnYK5mgYNdtQcHuZoIC3YwTAS/OyAJZ8GaAgt2aQEnBrtuVgt3NFwW7GXwp2CuZoGDXbUHB7mbCu4HmuRk3KODJSMAzQMFuTSWgYNftSsHu5ouC3Wx4KdgrmaBg121Bwe5mggLdjBMBL87IAlnwZoCC3ZpAScGu25WC3c0XBbsZfCnYK5mgYNdtQcHuZsK7gea5GTco4MlIwDNAwW5NJaBg1+1Kwe7mi4LdbHgp2CuZoGDXbUHB7maCAt2MEwEvzsgCWfBmgILdmkBJwa7blYLdzRcFuxl8KdgrmaBg121Bwe5mwruB5rkZNyjgyUjAM0DBbk0loGDX7UrB7uaLgt1seCnYK5mgYNdtQcHuZoIC3YwTAS/OyAJZ8GaAgt2aQEnBrtuVgt3NFwW7GXwp2CuZoGDXbUHB7mbCu4HmuRk3KODJSMAzQMFuTSWgYNftSsHu5ouC3Wx4KdgrmaBg121Bwe5mggLdjBMBL87IAlnwZoCC3ZpAScGu25WC3c0XBbsZfCnYK5mgYNdtQcHuZsK7gea5GTco4MlIwDNAwW5NJaBg1+1Kwe7mi4LdbHgp2CuZoGDXbUHB7maCAt2MEwEvzsgCWfBmgILdmkBJwa7blYLdzRcFuxl8KdgrmaBg121Bwe5mwruB5rkZNyjgyUjAM0DBbk0loGDX7UrB7uaLgt1seCnYK5mgYNdtQcHuZoIC3YwTAS/OyAJZ8GaAgt2aQEnBrtuVgt3NFwW7GXwp2CuZoGDXbUHB7mbCu4HmuRk3KODJSMAzQMFuTSWgYNftSsHu5ouC3Wx4KdgrmaBg121Bwe5mggLdjBMBL87IAlnwZoCC3ZpAScGu25WC3c0XBbsZfCnYK5mgYNdtQcHuZsK7gea5GTco4MlIwDNAwW5NJaBg1+1Kwe7mi4LdbHgp2CuZoGDXbUHB7maCAt2MEwEvzsgCWfBmgILdmkBJwa7blYLdzRcFuxl8KdgrmaBg121Bwe5mwruB5rkZNyjgyUjAM0DBbk0loGDX7UrB7uaLgt1seCnYK5mgYNdtQcHuZoIC3YwTAS/OyAJZ8GaAgt2aQEnBrtuVgt3NFwW7GXwp2CuZoGDXbUHB7mbCu4HmuRk3KODJSMAzQMFuTSWgYNftSsHu5ouC3Wx4KdgrmaBg121Bwe5mggLdjBMBL87IAlnwZoCC3ZpAScGu25WC3c0XBbsZfCnYK5mgYNdtQcHuZsK7gea5GTco4MlIwDNAwW5NJaBg1+1Kwe7mi4LdbHgp2CuZoGDXbUHB7maCAt2MEwEvzsgCWfBmgILdmkBJwa7blYLdzRcFuxl8KdgrmaBg121Bwe5mwruB5rkZNyjgyUjAM0DBbk0loGDX7UrB7uaLgt1seCnYK5mgYNdtQcHuZoIC3YwTAS/OyAJZ8GaAgt2aQEnBrtuVgt3NFwW7GXwp2CuZoGDXbUHB7mbCu4HmuRk3KODJSMAzQMFuTSWgYNftSsHu5ouC3Wx4KdgrmaBg121Bwe5mggLdjBMBL87IAlnwZoCC3ZpAScGu25WC3c0XBbsZfCnYK5mgYNdtQcHuZsK7gea5GTco4MlIwDNAwW5NJaBg1+1Kwe7mi4LdbHgp2CuZoGDXbUHB7maCAt2MEwEvzsgCWfBmgILdmkBJwa7blYLdzRcFuxl8KdgrmaBg121Bwe5mwruB5rkZNyjgyUjAM0DBbk0loGDX7UrB7uaLgt1seCnYK5mgYNdtQcHuZoIC3YwTAS/OyAJZ8GaAgt2aQEnBrtuVgt3NFwW7GXwp2CuZoGDXbUHB7mbCu4HmuRk3KODJSMAzQMFuTSUwBbuzHHi5lS1LRYVTBcPtO7ehtLTIksDoL4K9QnNg09p12LVrhyV2gEvD4sgFyC7MgdNVjlbpv7JlyXmWjR69e6CgIM8aO0CDCPbd27YDTs2WNhDfyLUtX7IEmdkZltlBmFi/ZQOyszPgcJTa0hZyXRIbBoeGIicn0zJbTJ00yZb3b9RTzVGG/Qf2ITIqUvkq4IUDOxKW1QWyZY0mawl2dVY4kFOUi5dffhmtXmqFVq0qy3vvvVtPJvHCf608X627U9q2b4tWX6u8QLnYb33rW2jzwUdwOcrrebF1vw5fHG8Idgn0cDltWUSkyr00lWB3uRxQnQQb2kP4aSrB7tBsykSFhqYW7HatG00t2MvKilXdsFv9KC8vaRLBPmXiRFvev8Gno6yk8QS7ywmns4ylkWwgg0J2qzcGNzzaU/v4q19EO7QIwV7mKkORs9g2JTs3C106dLRVJ+K5jkaF3llZs261apStsl96TjrCF0fa3ha7D+/D5s0bLWNo/ab1KMrLs13n0uRC0wCHE93adURq0lM1ymwFE19+uQ/7ow/Ymge578WrliIxJdEyHuQ3ZMRWxJvxtMv0hc1GMHt06IwnSYmNHidk9F7KmDGjbc2D+OfC1QuYOG5cvXkoKS9W9yr3O3PiFFXGTRiHsRPG2q4M7NMPS5YswpABoba7Nm97XblyScUquNszu9YhXpc1g6OBZleJH69+97v+O8Le+vXXEbUgEpHhYbYpSxYsxN/8zd/gjde/jx+98QNbl85dO1tqt1mzZuJ7r7xiaxuIj1579VV81qGDZbbo2vEzvPY/X7E1Ez9urbO6LHwBpFhRp3oGBdmehR+2fgM//+lPMXPmDEtsYNi1S6dOeO2VV/HG9+0ZJ37y/R/gJ6//AL/4wU+wYH6YKsa1N8bR+M7vv/aa7Zn4zj+8jD93bIeIiHq2M2G6/X75819g9+6duHr5Ei5duoALl87brpyNOQmpp3EP79vu2rzt9corr8CIW3Zva3l99tZC/uCfH7RurTJLqqbDyP/9IiXmm9/8JqR87Rsv6ekykjJjl9KqFb7+9a+r6zOu047HVt/4GlSx0m6tWtneDl/72tesZcedb+YXTFjIwte+/pLtWTDqaauXmoaJb3zjG7a0yV9845v4i6/rxcq46g914uvf+iZe+vZf6CNb9awfKsa0aoX4hDhIiqBdCxwOTBw/DnKscOrFrtf67W9/25Z1x4ghPOoajXZoXDv4pWD3vmiee+b40x60BxkgA2TAPgxIh1WeKMiTYbuWv/zbv8Zf/Oe/xN9+5+9se42G7f7zf/lbj8l3ZN0+rNMXTecLvxhhJxBNBwRtTVuTATJABurPgIywS7l7/46Zz27k8dvtOHL0SJSVFMFRqBe7XZ9xPd/+67+kYK+yWgjrZ/3rpz/bznaCvV27tqyYrJhkgAyQATLglwwYgj3u8SNbT7ItcZagU4eOKNVKYawmZtfJfbJSnJSXXnrJL5nwZ5HIa7dB5+DrrVRK8zsfvlfPmOK5fqNx1uBlHT/9tN1zyzoSGBsAQ/HAhoIMkAEyUCsDFOyNv1LIX/3VX+Hv/u7vIEfJZ2ehDQKJgf/0199W6Wsftf3EXoL9/v27OHIsGkePRiM6+hALbUAGyAAZIAN+wcCRw4dw9OBBfPj++7h991Y9G9fGF7wvGjkvLS9B7x49EZfwyPYj7CHBfeAoLobsZcBCGwQaA1JXpcjywC+qy7W/Zoypex4bPMJe+w83TTDjddDOZIAMkAEyUCcGXJpaLzykXz/cuHW9no1r09hcRE+bTz5BbOxJuGS3bpvtC1D1eoaFDOQ67Db2T1Vf8f9NU3/rZmdPoW6cUbCzUtk68NcNcjtWPF4TfUgGbMuAHwn2U+dOYdTw4Zg5fVoDRu6ahkUK9qaxs23rFXVVA3WVIdE9jxTsBKuBYDEwMWiSATLgpwz4kWBfuXw51q5drTYOsztvFOx+Wh+oh2yihzyFunFGwU5AbQIoA5zdG2FeHxltcQz4kWCPCo/AxYvnMX/uHFRUOG0dtynYGStaXKxoUq1oSHTPIwV7kzqBlZiVmAyQATJgGwb8RLDLjqaffPSREumzpk6DpjGH3TYMUUPYuvPon5x4CnXjjIKdlY2VjQyQATIQmAz4iWBPSUnC2BEjlY9WrFqB63fsPUGWI+zslPunULaL3wyJ7nmkYGdDHZgNNf1Ov5MBMuAngv3GjWu4dOUiZKT9+vWr2Ll9GyDXblOGKdjt6xu7MsPrqsqMp1A3zijYbRrwCG9VePl/8kAGyIAFDPiJYN+wYR0K8/OUYE96koA502boyybatP2iYLeAVZv6mnHJCl8bEt3zSMHOSmDbURoGAisCAb+TXJEBkwE/EeyfdegAh6NUxWpneSm6demC/Oxs28ZuCnbWMbOOUWPVo556CnXjjIKdMNUDJgYjBiMyQAZaAAM2F+yyQVL0oYPYuGYt4NJXhpEJpw/jHuDk8eO2jd0U7C2gblAbNWP9MiS655GCnVA2I5QMahR9ZIAMNCMDdhbsFbpdFkZG4ElyoinYJY+9tLQIixYssG3spmBvRqapaWxbL3yP9Z5C3TijYCfcLQBuBkffAwFtRVuRAZMBOwt2d9u0ZuXK5/LVZR32hYsW4sGDe/rf3OLevK9mbtco2FnH7MKif16HIdE9jxTszRzY/BMmBiP6jQyQgRbAgM0F+45tW3Hl7LnnBLuwl5L0BFELIinY2YZz0K3FMeAp1I0zCvYW5+gW0IjSJwzAZIAMNAUDNhbs+fm5CA7uDTidgPbiuL4wIgJwOMx0Gbt0IjnC/mJ/2cU/vA67+8eQ6J5HCvamaBT4GxQfZIAMkAH7MWBjwb5j/y4kJz+FpL+8UGC5nGpN9sjwMJSXl7z4Pc3EHAW73QUhr++FdaqZ6svz1+Ip1I0zCnbbOIgV6HloaRPahAyQAQsZsKlgz8rJxLCRw5QQr1awV2jIy8/F6NGjkJ6eYqtRdgp2C5mlZrFV59Sa+GxIdM8jBTvhDwD4GTytCSq0K+3q5wzYTLAXOYshZdmq5Xgc9/CFuesezDk1VJSWIWJBhFo5pqys2BbxnILdz+sFdVEz1yNPoW6cUbATzGYGk4HNowEmj+SRDDQdAzYU7AXlhVgQHq6LdWct8VH+7tQwc9o03L53CxTstdiLdavp6hZt3QBbGxLd80jBTqgaABWDI8U2GSADfsyAzQT7s9J8TJowHnkFuYDmBGpbrlH+XqGhzFGKuTNnodRhj1x2jrD7cZ2gJrKBJvIU6sYZBTvhtAGcDG4UfWSADDQDAzYT7IeiD+Lc5XMo18rqFJdLtVI8jH+AJSuWwuEordNnreCOgr0ZWKaWaXbuG68uGRLd80jBTshbEOQMko0XMGhL2jIAGLCRYL94+QJmzZiuctgdrvI6xWUR+JL7fuDYQdy4ca1On7WCcwr2AKg71E4W1jNPoW6cUbATOguhY9CyojHkd5IrMtBIDNhBsLucKg996oypKhZXuypMLW2VfM7lcuDzGTPw8ObtZo3rFOyNxGctPmccaKl2NiS655GCnRWiWQM7A05LDTi8L7LtBww0s2AXka05yrAsahFyMjOqX3Pd13bKLf5XLl+OwsJnzRbbKdj9gH1fmeL7mqEeeQp144yCnTA2A4wMZhRzZIAM2ICB5hTsmgatuAShg0ORkpLUqHE4MycDvfr0Uks+Qu6xids5Cvamt3lT+5i/Z6WPDYnueaRgb+JARsithJzfTb7IABmoAwPNKdidGhZHLURKYqIlgjojNQVDRwyFEuwy8t6EbR0Fex0YbEK/NCUD/K2GMOAp1I0zCnZWliYN5KzEDanE/Cz5IQONykBzCHaXhgrNgcjwMFy/flUX1Fa0Qy4NyclP1aZKjWozH66Vgp31tKmZa1m/Z0h0zyMFuw/Bp2WBwEBCf5IBMkAGFANNLNglZ91ZVIyJY8Yi8XFckwyWJKclIWTwAGTnZjXJ74ldKdhZvxhjG8KAp1A3zijYKdibLIizAjekAvOz5IcMNDoDTSjYC0sKkJaZiiULFiI3Lb32TZEasW1Ky0hFVNQCPHh0v0niPQU762qj19VGrA/2vzZDonseKdgDCgIGEftXVPqIPiIDTcaA1YLdqaklG+FwIObYMaxc+QUyM9OaRDRXtaFDK4N0GJYsWYR9B/aq5R+r/r2x/0/Bzjrc2EwF1vd5CnXjjIKdgr3JG4/AqngM3PQ3GbAtA1YK9gpdrBfl5uFEdDTWfLECpaVFzR5vo08cwcqly5CXl62P8st1NnI7SMHe+DZtbB/x++zsI0Oiex4p2Bs5ULES2LkS8NrIJxkgA1UYsFKwQ8Olm1cQ3KsXsnIz1Rrr9d0UqbF9Jp2IUcOHI/rAAZSVFavSmL9BwV6FMWqMRu8QNiar9vwuT6FunFGwszKxMpEBMkAGApMBiwR73MP7mD5rOvbs242sgmyUaqX2sq87VWfv7l2YHzEfjx49aNTro2CnYLenEPYXvxgS3fNIwc6GulEDNSupvwQEXidZJQNqjXKnhpB+/XDj1vU6xUKtwgEpkJQSd4l/9ADLFi9GePh8PH4Sj3KtTIl1h6u8Tt9tOZuaBmgaKpwOlJeXIHxBOGZOn6ZWrpHzhv4+BTvrVkMZCuzPewp144yCnYK9wcE5sCsWAzP9Twb8loF6jrC74ESRs1gVuEerQ0NCt4G7nwAAAy5JREFUMG/ObJUb7nI5/CquyvWWFxTiYPRXGD1iBB49ftig66dgZ0zw25hgC01oSHTPIwW7LZzDys3KTQbIABlocgZ8FewuJzSt3MxDF8H+4MkjrF63GqPHjcZXX+6HpME0+fU3Zvvl7njk5WRh05aNahfW9WvX4N7Du3A6y9S9y5MEsQNq2TmVgp112a/rQmPWq3p9l6dQN84o2OtlTFZGVkYyQAbIgN8zUEWw37p7U63iYkwMlXQXYxS9ICcHT+PjcfnyRSxbsQzDRw7H7OkzcPPyFV3IQjOPfm8TaRNdTnU/V86ew8L54Zg0dhzC58xF7MkYxN+9h8LcXNM20nlR9+xeFUeeOAwePEhfztKCFWhahH2pO/y7c2u5/wyJ7nmkYLfc8GzUGWDJABkgA7Zk4AWC/cbt67h6/QqWREVhxozpePej9xEyMAQDBg7AoeiDKC4uQElJoS5IZVQ6ANoQ6cRI2syhAwcwfMgQjBg6FH9u3xbdenXH+lWrcf3mNSQkxJs2oWAPDC4Cgf3muUdPoW6cUbAHQLBtHuAYsGh3MkAGbM6AjAC7NNy/cxuyYsqJo0dx+tRJnIk9hbNnT+Pq1ct4mvYUWVnp6n2SDiLpIS6npIXonw0oH7vtlZubhaT0JFy/fhXnzp3B+bNnlN2OHD4EKWI7ZR+OsAdEhy6g6kCTaEZDonseKdibxPg2b7RoAwZVMkAGyAAZIANkgAzYgAFPoW6cUbATThvAyQ4NRyjIABkgA2SADJABMmAIdO8jBTsFOwU7GSADZIAMkAEyQAbIgC0Y8Jbq+jkFuy2cwx4lRxXIABkgA2SADJABMkAGKNjZc2TnhAyQATJABsgAGSADZMDGDFCw29g57FGzR00GyAAZIANkgAyQATJAwU7Bzh41GSADZIAMkAEyQAbIgI0ZoGC3sXPYo2aPmgyQATJABsgAGSADZICCnYKdPWoyQAbIABkgA2SADJABGzNAwW5j57BHzR41GSADZIAMkAEyQAbIAAU7BTt71GSADJABMkAGyAAZIAM2ZsAnwf7iN1n3KnuS7EmSATJABsgAGSADZIAMkAGdgRer7v8PPCh4Y7eKnc0AAAAASUVORK5CYII=;" vertex="1" parent="p9Ba1PvIgmXxeS6Y3Wst-124">
          <mxGeometry x="8.279999999999973" y="113.84352941176473" width="345.972" height="217.3864" as="geometry" />
        </mxCell>
        <mxCell id="p9Ba1PvIgmXxeS6Y3Wst-96" value="1" style="text;html=1;strokeColor=none;fillColor=none;align=center;verticalAlign=middle;whiteSpace=wrap;rounded=0;" vertex="1" parent="p9Ba1PvIgmXxeS6Y3Wst-124">
          <mxGeometry x="260" y="155.88588235294122" width="20" height="12.941176470588237" as="geometry" />
        </mxCell>
        <mxCell id="p9Ba1PvIgmXxeS6Y3Wst-97" value="2" style="text;html=1;strokeColor=none;fillColor=none;align=center;verticalAlign=middle;whiteSpace=wrap;rounded=0;" vertex="1" parent="p9Ba1PvIgmXxeS6Y3Wst-124">
          <mxGeometry x="260" y="200.59176470588233" width="20" height="12.941176470588237" as="geometry" />
        </mxCell>
        <mxCell id="p9Ba1PvIgmXxeS6Y3Wst-98" value="3" style="text;html=1;strokeColor=none;fillColor=none;align=center;verticalAlign=middle;whiteSpace=wrap;rounded=0;" vertex="1" parent="p9Ba1PvIgmXxeS6Y3Wst-124">
          <mxGeometry x="320" y="155.88588235294122" width="20" height="12.941176470588237" as="geometry" />
        </mxCell>
        <mxCell id="p9Ba1PvIgmXxeS6Y3Wst-99" value="4" style="text;html=1;strokeColor=none;fillColor=none;align=center;verticalAlign=middle;whiteSpace=wrap;rounded=0;" vertex="1" parent="p9Ba1PvIgmXxeS6Y3Wst-124">
          <mxGeometry x="320" y="200.59176470588233" width="20" height="12.941176470588237" as="geometry" />
        </mxCell>
        <mxCell id="p9Ba1PvIgmXxeS6Y3Wst-100" value="5" style="text;html=1;strokeColor=none;fillColor=none;align=center;verticalAlign=middle;whiteSpace=wrap;rounded=0;" vertex="1" parent="p9Ba1PvIgmXxeS6Y3Wst-124">
          <mxGeometry x="320" y="245.87882352941182" width="20" height="12.941176470588237" as="geometry" />
        </mxCell>
        <mxCell id="p9Ba1PvIgmXxeS6Y3Wst-101" value="6" style="text;html=1;strokeColor=none;fillColor=none;align=center;verticalAlign=middle;whiteSpace=wrap;rounded=0;" vertex="1" parent="p9Ba1PvIgmXxeS6Y3Wst-124">
          <mxGeometry x="240" y="245.87764705882353" width="20" height="12.941176470588237" as="geometry" />
        </mxCell>
        <mxCell id="p9Ba1PvIgmXxeS6Y3Wst-102" value="7" style="text;html=1;strokeColor=none;fillColor=none;align=center;verticalAlign=middle;whiteSpace=wrap;rounded=0;" vertex="1" parent="p9Ba1PvIgmXxeS6Y3Wst-124">
          <mxGeometry x="195" y="245.87764705882353" width="20" height="12.941176470588237" as="geometry" />
        </mxCell>
        <mxCell id="p9Ba1PvIgmXxeS6Y3Wst-103" value="8" style="text;html=1;strokeColor=none;fillColor=none;align=center;verticalAlign=middle;whiteSpace=wrap;rounded=0;" vertex="1" parent="p9Ba1PvIgmXxeS6Y3Wst-124">
          <mxGeometry x="140" y="232.93764705882353" width="20" height="12.941176470588237" as="geometry" />
        </mxCell>
        <mxCell id="p9Ba1PvIgmXxeS6Y3Wst-104" value="9" style="text;html=1;strokeColor=none;fillColor=none;align=center;verticalAlign=middle;whiteSpace=wrap;rounded=0;" vertex="1" parent="p9Ba1PvIgmXxeS6Y3Wst-124">
          <mxGeometry x="90" y="235.87764705882353" width="20" height="12.941176470588237" as="geometry" />
        </mxCell>
        <mxCell id="p9Ba1PvIgmXxeS6Y3Wst-105" value="10" style="text;html=1;strokeColor=none;fillColor=none;align=center;verticalAlign=middle;whiteSpace=wrap;rounded=0;" vertex="1" parent="p9Ba1PvIgmXxeS6Y3Wst-124">
          <mxGeometry x="40" y="235.87764705882353" width="20" height="12.941176470588237" as="geometry" />
        </mxCell>
        <mxCell id="p9Ba1PvIgmXxeS6Y3Wst-106" value="11" style="text;html=1;strokeColor=none;fillColor=none;align=center;verticalAlign=middle;whiteSpace=wrap;rounded=0;" vertex="1" parent="p9Ba1PvIgmXxeS6Y3Wst-124">
          <mxGeometry x="40" y="175.87823529411767" width="20" height="12.941176470588237" as="geometry" />
        </mxCell>
        <mxCell id="p9Ba1PvIgmXxeS6Y3Wst-107" value="12" style="text;html=1;strokeColor=none;fillColor=none;align=center;verticalAlign=middle;whiteSpace=wrap;rounded=0;" vertex="1" parent="p9Ba1PvIgmXxeS6Y3Wst-124">
          <mxGeometry x="90" y="168.8282352941177" width="20" height="12.941176470588237" as="geometry" />
        </mxCell>
        <mxCell id="p9Ba1PvIgmXxeS6Y3Wst-108" value="13" style="text;html=1;strokeColor=none;fillColor=none;align=center;verticalAlign=middle;whiteSpace=wrap;rounded=0;" vertex="1" parent="p9Ba1PvIgmXxeS6Y3Wst-124">
          <mxGeometry x="190" y="285.8805882352942" width="20" height="12.941176470588237" as="geometry" />
        </mxCell>
        <mxCell id="p9Ba1PvIgmXxeS6Y3Wst-109" value="14" style="text;html=1;strokeColor=none;fillColor=none;align=center;verticalAlign=middle;whiteSpace=wrap;rounded=0;" vertex="1" parent="p9Ba1PvIgmXxeS6Y3Wst-124">
          <mxGeometry x="155" y="285.8805882352942" width="20" height="12.941176470588237" as="geometry" />
        </mxCell>
        <mxCell id="p9Ba1PvIgmXxeS6Y3Wst-110" value="15" style="text;html=1;strokeColor=none;fillColor=none;align=center;verticalAlign=middle;whiteSpace=wrap;rounded=0;" vertex="1" parent="p9Ba1PvIgmXxeS6Y3Wst-124">
          <mxGeometry x="130" y="285.8805882352942" width="20" height="12.941176470588237" as="geometry" />
        </mxCell>
        <mxCell id="p9Ba1PvIgmXxeS6Y3Wst-111" value="16" style="text;html=1;strokeColor=none;fillColor=none;align=center;verticalAlign=middle;whiteSpace=wrap;rounded=0;" vertex="1" parent="p9Ba1PvIgmXxeS6Y3Wst-124">
          <mxGeometry x="100" y="285.8805882352942" width="20" height="12.941176470588237" as="geometry" />
        </mxCell>
        <mxCell id="p9Ba1PvIgmXxeS6Y3Wst-112" value="17" style="text;html=1;strokeColor=none;fillColor=none;align=center;verticalAlign=middle;whiteSpace=wrap;rounded=0;" vertex="1" parent="p9Ba1PvIgmXxeS6Y3Wst-124">
          <mxGeometry x="70" y="285.8805882352942" width="20" height="12.941176470588237" as="geometry" />
        </mxCell>
        <mxCell id="p9Ba1PvIgmXxeS6Y3Wst-113" value="18" style="text;html=1;strokeColor=none;fillColor=none;align=center;verticalAlign=middle;whiteSpace=wrap;rounded=0;" vertex="1" parent="p9Ba1PvIgmXxeS6Y3Wst-124">
          <mxGeometry x="40" y="285.8805882352942" width="20" height="12.941176470588237" as="geometry" />
        </mxCell>
        <mxCell id="p9Ba1PvIgmXxeS6Y3Wst-161" value="" style="group" vertex="1" connectable="0" parent="WIyWlLk6GJQsqaUBKTNV-1">
          <mxGeometry x="-618" y="489.99823529411765" width="410" height="550.5899999999999" as="geometry" />
        </mxCell>
        <mxCell id="p9Ba1PvIgmXxeS6Y3Wst-56" value="Бронирование" style="strokeWidth=1;shadow=0;dashed=0;align=center;html=1;shape=mxgraph.mockup.containers.window;align=left;verticalAlign=top;spacingLeft=8;strokeColor2=#008cff;strokeColor3=#c4c4c4;fontColor=#666666;mainText=;fontSize=17;labelBackgroundColor=none;whiteSpace=wrap;movable=1;resizable=1;rotatable=1;deletable=1;editable=1;locked=0;connectable=1;" vertex="1" parent="p9Ba1PvIgmXxeS6Y3Wst-161">
          <mxGeometry width="410" height="550.59" as="geometry" />
        </mxCell>
        <mxCell id="p9Ba1PvIgmXxeS6Y3Wst-114" value="Стол 1" style="html=1;shadow=0;dashed=0;shape=mxgraph.bootstrap.rrect;rSize=5;strokeColor=#82b366;html=1;whiteSpace=wrap;fillColor=#d5e8d4;align=left;spacingLeft=80;spacing=15;fontSize=14;movable=1;resizable=1;rotatable=1;deletable=1;editable=1;locked=0;connectable=1;" vertex="1" parent="p9Ba1PvIgmXxeS6Y3Wst-161">
          <mxGeometry x="18" y="118.8217647058824" width="370" height="51.76" as="geometry" />
        </mxCell>
        <mxCell id="p9Ba1PvIgmXxeS6Y3Wst-115" value="" style="shape=triangle;direction=south;fillColor=#343A40;strokeColor=none;perimeter=none;movable=1;resizable=1;rotatable=1;deletable=1;editable=1;locked=0;connectable=1;" vertex="1" parent="p9Ba1PvIgmXxeS6Y3Wst-114">
          <mxGeometry x="1" y="0.5" width="7" height="3" relative="1" as="geometry">
            <mxPoint x="-17" y="1" as="offset" />
          </mxGeometry>
        </mxCell>
        <mxCell id="p9Ba1PvIgmXxeS6Y3Wst-116" value="" style="shape=triangle;direction=north;fillColor=#343A40;strokeColor=none;perimeter=none;movable=1;resizable=1;rotatable=1;deletable=1;editable=1;locked=0;connectable=1;" vertex="1" parent="p9Ba1PvIgmXxeS6Y3Wst-114">
          <mxGeometry x="1" y="0.5" width="7" height="3" relative="1" as="geometry">
            <mxPoint x="-17" y="-4" as="offset" />
          </mxGeometry>
        </mxCell>
        <mxCell id="p9Ba1PvIgmXxeS6Y3Wst-117" value="Столы" style="html=1;shadow=0;dashed=0;shape=mxgraph.bootstrap.leftButton;strokeColor=#CED4DA;gradientColor=inherit;fontColor=inherit;fillColor=#E9ECEF;rSize=5;perimeter=none;whiteSpace=wrap;resizeHeight=1;fontSize=14;align=left;spacing=15;movable=1;resizable=1;rotatable=1;deletable=1;editable=1;locked=0;connectable=1;" vertex="1" parent="p9Ba1PvIgmXxeS6Y3Wst-114">
          <mxGeometry width="80" height="51.76" relative="1" as="geometry" />
        </mxCell>
        <mxCell id="p9Ba1PvIgmXxeS6Y3Wst-82" value="Забронировать" style="html=1;shadow=0;dashed=0;shape=mxgraph.bootstrap.rrect;rSize=5;fillColor=#0085FC;strokeColor=none;align=center;fontSize=14;fontColor=#FFFFFF;movable=1;resizable=1;rotatable=1;deletable=1;editable=1;locked=0;connectable=1;" vertex="1" parent="p9Ba1PvIgmXxeS6Y3Wst-161">
          <mxGeometry x="18" y="480.0035294117648" width="110" height="51.76470588235295" as="geometry" />
        </mxCell>
        <mxCell id="p9Ba1PvIgmXxeS6Y3Wst-121" value="Карта столов" style="html=1;shadow=0;dashed=0;shape=mxgraph.bootstrap.rrect;rSize=5;fillColor=#0085FC;strokeColor=none;align=center;fontSize=14;fontColor=#FFFFFF;movable=1;resizable=1;rotatable=1;deletable=1;editable=1;locked=0;connectable=1;" vertex="1" parent="p9Ba1PvIgmXxeS6Y3Wst-161">
          <mxGeometry x="18" y="400.0035294117648" width="110" height="51.76470588235295" as="geometry" />
        </mxCell>
        <mxCell id="p9Ba1PvIgmXxeS6Y3Wst-147" value="09.11.2023" style="html=1;shadow=0;dashed=0;shape=mxgraph.bootstrap.rrect;rSize=5;fillColor=none;strokeColor=#999999;align=left;spacing=15;fontSize=14;fontColor=#6C767D;movable=1;resizable=1;rotatable=1;deletable=1;editable=1;locked=0;connectable=1;" vertex="1" parent="p9Ba1PvIgmXxeS6Y3Wst-161">
          <mxGeometry x="18" y="200.00176470588235" width="370" height="50.59" as="geometry" />
        </mxCell>
        <mxCell id="p9Ba1PvIgmXxeS6Y3Wst-148" value="Зал 1" style="html=1;shadow=0;dashed=0;shape=mxgraph.bootstrap.rrect;rSize=5;strokeColor=#82b366;html=1;whiteSpace=wrap;fillColor=#FFFFFF;align=left;spacingLeft=80;spacing=15;fontSize=14;movable=1;resizable=1;rotatable=1;deletable=1;editable=1;locked=0;connectable=1;" vertex="1" parent="p9Ba1PvIgmXxeS6Y3Wst-161">
          <mxGeometry x="18" y="50.00176470588235" width="370" height="51.76" as="geometry" />
        </mxCell>
        <mxCell id="p9Ba1PvIgmXxeS6Y3Wst-149" value="" style="shape=triangle;direction=south;fillColor=#343A40;strokeColor=none;perimeter=none;movable=1;resizable=1;rotatable=1;deletable=1;editable=1;locked=0;connectable=1;" vertex="1" parent="p9Ba1PvIgmXxeS6Y3Wst-148">
          <mxGeometry x="1" y="0.5" width="7" height="3" relative="1" as="geometry">
            <mxPoint x="-17" y="1" as="offset" />
          </mxGeometry>
        </mxCell>
        <mxCell id="p9Ba1PvIgmXxeS6Y3Wst-150" value="" style="shape=triangle;direction=north;fillColor=#343A40;strokeColor=none;perimeter=none;movable=1;resizable=1;rotatable=1;deletable=1;editable=1;locked=0;connectable=1;" vertex="1" parent="p9Ba1PvIgmXxeS6Y3Wst-148">
          <mxGeometry x="1" y="0.5" width="7" height="3" relative="1" as="geometry">
            <mxPoint x="-17" y="-4" as="offset" />
          </mxGeometry>
        </mxCell>
        <mxCell id="p9Ba1PvIgmXxeS6Y3Wst-151" value="Залы" style="html=1;shadow=0;dashed=0;shape=mxgraph.bootstrap.leftButton;strokeColor=#CED4DA;gradientColor=inherit;fontColor=inherit;fillColor=#E9ECEF;rSize=5;perimeter=none;whiteSpace=wrap;resizeHeight=1;fontSize=14;align=left;spacing=15;movable=1;resizable=1;rotatable=1;deletable=1;editable=1;locked=0;connectable=1;" vertex="1" parent="p9Ba1PvIgmXxeS6Y3Wst-148">
          <mxGeometry width="80" height="51.76" relative="1" as="geometry" />
        </mxCell>
        <mxCell id="p9Ba1PvIgmXxeS6Y3Wst-156" value="" style="html=1;dashed=0;aspect=fixed;verticalLabelPosition=bottom;verticalAlign=top;align=center;shape=mxgraph.gmdl.calendar;strokeColor=none;fillColor=#737373;shadow=0;sketch=0;movable=1;resizable=1;rotatable=1;deletable=1;editable=1;locked=0;connectable=1;" vertex="1" parent="p9Ba1PvIgmXxeS6Y3Wst-161">
          <mxGeometry x="338" y="200.00176470588235" width="50" height="50" as="geometry" />
        </mxCell>
        <mxCell id="p9Ba1PvIgmXxeS6Y3Wst-157" value="15:30" style="html=1;shadow=0;dashed=0;shape=mxgraph.bootstrap.rrect;rSize=5;fillColor=none;strokeColor=#999999;align=left;spacing=15;fontSize=14;fontColor=#6C767D;movable=1;resizable=1;rotatable=1;deletable=1;editable=1;locked=0;connectable=1;" vertex="1" parent="p9Ba1PvIgmXxeS6Y3Wst-161">
          <mxGeometry x="18" y="270.00176470588235" width="370" height="50.59" as="geometry" />
        </mxCell>
        <mxCell id="p9Ba1PvIgmXxeS6Y3Wst-158" value="" style="shadow=0;dashed=0;html=1;strokeColor=none;fillColor=#4495D1;labelPosition=center;verticalLabelPosition=bottom;verticalAlign=top;align=center;outlineConnect=0;shape=mxgraph.veeam.time;movable=1;resizable=1;rotatable=1;deletable=1;editable=1;locked=0;connectable=1;" vertex="1" parent="p9Ba1PvIgmXxeS6Y3Wst-161">
          <mxGeometry x="343.2" y="270.00176470588235" width="44.8" height="44.8" as="geometry" />
        </mxCell>
      </root>
    </mxGraphModel>
  </diagram>
</mxfile>
